<svg width="18" height="16" viewBox="0 0 18 16" fill="none" xmlns="http://www.w3.org/2000/svg">
<path fill-rule="evenodd" clip-rule="evenodd" d="M16.929 6.42724H3.6565L7.64262 2.02106C8.061 1.55882 8.061 0.80955 7.64262 0.346781C7.2247 -0.115725 6.54619 -0.115462 6.12828 0.346781L0.313673 6.77398C0.113046 6.99577 0 7.297 0 7.61113C0 7.92525 0.113046 8.22622 0.313673 8.44827L6.12828 14.8755C6.33747 15.1067 6.6114 15.222 6.88557 15.222C7.15973 15.222 7.4339 15.1067 7.64285 14.8755C8.06124 14.413 8.06124 13.6634 7.64285 13.2012L3.6565 8.79502H16.929C17.5204 8.79502 18 8.26463 18 7.61113C18 6.95709 17.5204 6.42724 16.929 6.42724Z" fill="#679F1A"/>
</svg>
