<svg width="46" height="46" viewBox="0 0 46 46" fill="none" xmlns="http://www.w3.org/2000/svg">
<path d="M46 23C46 35.7025 35.7025 46 23 46C10.2975 46 0 35.7025 0 23C0 10.2975 10.2975 0 23 0C35.7025 0 46 10.2975 46 23Z" fill="#181F20"/>
<path fill-rule="evenodd" clip-rule="evenodd" d="M26.5942 18.9375V18.375C26.5942 16.511 25.0831 15 23.2192 15C21.3552 15 19.8442 16.511 19.8442 18.375V18.9375H18.3538C17.6341 18.9375 17.0306 19.4808 16.9552 20.1965L16.0079 29.1965C15.9205 30.0268 16.5715 30.75 17.4064 30.75H29.0319C29.8668 30.75 30.5179 30.0268 30.4305 29.1965L29.4831 20.1965C29.4078 19.4808 28.8042 18.9375 28.0846 18.9375H26.5942ZM23.2192 16.125C21.9765 16.125 20.9692 17.1324 20.9692 18.375V18.9375H25.4692V18.375C25.4692 17.1324 24.4618 16.125 23.2192 16.125ZM25.4692 20.0625H20.9692V21.1211C21.1418 21.2756 21.2504 21.5001 21.2504 21.75C21.2504 22.216 20.8727 22.5938 20.4067 22.5938C19.9407 22.5938 19.5629 22.216 19.5629 21.75C19.5629 21.5001 19.6716 21.2756 19.8442 21.1211V20.0625H18.3538C18.2098 20.0625 18.0891 20.1712 18.0741 20.3143L17.1267 29.3143C17.1092 29.4804 17.2394 29.625 17.4064 29.625H29.0319C29.1989 29.625 29.3291 29.4804 29.3117 29.3143L28.3643 20.3143C28.3492 20.1712 28.2285 20.0625 28.0846 20.0625H26.5942V21.1211C26.7668 21.2756 26.8754 21.5001 26.8754 21.75C26.8754 22.216 26.4977 22.5938 26.0317 22.5938C25.5657 22.5938 25.1879 22.216 25.1879 21.75C25.1879 21.5001 25.2966 21.2756 25.4692 21.1211V20.0625Z" fill="white"/>
</svg>
