<svg width="24" height="24" viewBox="0 0 24 24" fill="none" xmlns="http://www.w3.org/2000/svg">
<path fill-rule="evenodd" clip-rule="evenodd" d="M7.5 5.25C7.5 3.59315 8.84315 2.25 10.5 2.25H13.5C15.1569 2.25 16.5 3.59315 16.5 5.25V5.45498C17.4325 5.54034 18.3574 5.65196 19.274 5.78912C20.7281 6.00668 21.75 7.27163 21.75 8.70569V12.4889C21.75 13.2253 21.4809 13.9315 21 14.4645V18.4C21 19.8519 19.9528 21.1275 18.4769 21.3234C16.3575 21.6048 14.1955 21.75 12 21.75C9.80447 21.75 7.64246 21.6048 5.52314 21.3234C4.04724 21.1275 3 19.8519 3 18.4V14.4645C2.51911 13.9315 2.25 13.2253 2.25 12.4889V8.70569C2.25 7.27163 3.27191 6.00668 4.72596 5.78912C5.64259 5.65197 6.56752 5.54034 7.5 5.45498V5.25ZM9 5.34082C9.99236 5.28056 10.9927 5.25 12 5.25C13.0073 5.25 14.0076 5.28056 15 5.34082V5.25C15 4.42157 14.3284 3.75 13.5 3.75H10.5C9.67157 3.75 9 4.42157 9 5.25V5.34082ZM4.5 15.343V18.4C4.5 19.137 5.02655 19.7443 5.72056 19.8365C7.77461 20.1092 9.87067 20.25 12 20.25C14.1293 20.25 16.2254 20.1092 18.2794 19.8365C18.9734 19.7443 19.5 19.137 19.5 18.4V15.343C17.1334 16.0947 14.6134 16.5 12 16.5C9.38667 16.5 6.8666 16.0947 4.5 15.343ZM12 6.75C10.7573 6.75 9.52602 6.79795 8.30778 6.89209C7.17611 6.97954 6.0557 7.10685 4.94793 7.2726C4.2639 7.37495 3.75 7.97787 3.75 8.70569V12.4889C3.75 12.9271 3.93773 13.3244 4.23655 13.5791C4.3585 13.6831 4.50029 13.7647 4.6595 13.8177C6.96597 14.5845 9.43371 15 12 15C14.5663 15 17.034 14.5845 19.3405 13.8177C19.4997 13.7647 19.6415 13.6831 19.7635 13.5792C20.0623 13.3244 20.25 12.9272 20.25 12.4889V8.70569C20.25 7.97787 19.7361 7.37495 19.0521 7.2726C17.9443 7.10685 16.8239 6.97954 15.6922 6.89209C14.474 6.79795 13.2427 6.75 12 6.75ZM11.25 12.75C11.25 12.3358 11.5858 12 12 12H12.0075C12.4217 12 12.7575 12.3358 12.7575 12.75V12.7575C12.7575 13.1717 12.4217 13.5075 12.0075 13.5075H12C11.5858 13.5075 11.25 13.1717 11.25 12.7575V12.75Z" fill="#02021C"/>
</svg>
