<svg width="20" height="20" viewBox="0 0 20 20" fill="none" xmlns="http://www.w3.org/2000/svg">
<path fill-rule="evenodd" clip-rule="evenodd" d="M4.09423 2.21519C5.82308 1.99073 7.5858 1.875 9.37524 1.875C11.1645 1.875 12.927 1.99071 14.6557 2.21513C16.3294 2.4324 17.5 3.88886 17.5 5.53109V6.68631C18.2594 7.11101 18.75 7.93075 18.75 8.84018V12.4115C18.75 13.6679 17.81 14.757 16.5256 14.8619C16.4338 14.8693 16.342 14.8765 16.25 14.8834V16.875C16.25 17.1278 16.0977 17.3557 15.8642 17.4524C15.6306 17.5492 15.3618 17.4957 15.1831 17.3169L12.8653 14.9992C11.8084 14.9927 10.7609 14.9464 9.72434 14.8618C9.55644 14.8481 9.39371 14.8173 9.23778 14.7711L6.06694 17.9419C5.88819 18.1207 5.61937 18.1742 5.38582 18.0774C5.15228 17.9807 5 17.7528 5 17.5V14.1421C4.69708 14.1097 4.39514 14.0739 4.09424 14.0348C2.42055 13.8175 1.25 12.3611 1.25 10.7189V5.53115C1.25 3.88893 2.42055 2.43249 4.09423 2.21519ZM8.15056 14.0906C7.74271 13.6462 7.5 13.0516 7.5 12.4114V8.84018C7.5 7.58568 8.4373 6.49717 9.72004 6.3907C10.8428 6.29751 11.9784 6.25 13.125 6.25C14.1763 6.25 15.2185 6.28995 16.25 6.36844V5.53109C16.25 4.47096 15.501 3.58534 14.4948 3.45472C12.8193 3.23722 11.1105 3.125 9.37524 3.125C7.63975 3.125 5.93079 3.23724 4.25516 3.45479C3.249 3.58542 2.5 4.47103 2.5 5.53115V10.7189C2.5 11.779 3.249 12.6646 4.25517 12.7952C4.72846 12.8567 5.20441 12.9097 5.68286 12.9542C6.00424 12.9841 6.25 13.2538 6.25 13.5765V15.9911L8.15056 14.0906ZM13.125 7.5C12.013 7.5 10.9119 7.54608 9.82343 7.63642C9.22102 7.68642 8.75 8.20304 8.75 8.84018V12.4114C8.75 12.879 9.00654 13.2862 9.38144 13.486C9.51458 13.557 9.66409 13.6027 9.82604 13.6159C10.9136 13.7047 12.0139 13.75 13.125 13.75C13.2908 13.75 13.4497 13.8158 13.5669 13.9331L15 15.3661V14.2994C15 13.9689 15.2573 13.6955 15.5871 13.6755C15.8669 13.6585 16.1458 13.6387 16.4239 13.616C17.0277 13.5667 17.5 13.0495 17.5 12.4115V8.84018C17.5 8.29781 17.156 7.83949 16.6836 7.68749C16.6025 7.6614 16.5166 7.6439 16.4266 7.63642C15.3381 7.54608 14.237 7.5 13.125 7.5Z" fill="black"/>
</svg>
