<svg width="24" height="25" viewBox="0 0 24 25" fill="none" xmlns="http://www.w3.org/2000/svg">
<ellipse cx="12" cy="12.0024" rx="12" ry="12.0024" fill="#D9D9D9"/>
<path d="M13.2994 11.7889L16.9848 8.10234C17.0862 8.00086 17.1421 7.86547 17.1423 7.7211C17.1423 7.57665 17.0864 7.4411 16.9848 7.33978L16.6619 7.01681C16.5603 6.91509 16.425 6.85938 16.2805 6.85938C16.1362 6.85938 16.0009 6.91509 15.8993 7.01681L12.2139 10.7031L8.52828 7.01681C8.4269 6.91509 8.29147 6.85938 8.14706 6.85938C8.0028 6.85938 7.86737 6.91509 7.76599 7.01681L7.44287 7.33978C7.23258 7.55012 7.23258 7.89224 7.44287 8.10234L11.1284 11.7889L7.44287 15.4753C7.34141 15.577 7.28556 15.7124 7.28556 15.8567C7.28556 16.0011 7.34141 16.1365 7.44287 16.238L7.76591 16.561C7.86729 16.6627 8.0028 16.7184 8.14697 16.7184C8.29139 16.7184 8.42682 16.6627 8.5282 16.561L12.2138 12.8746L15.8993 16.561C16.0008 16.6627 16.1361 16.7184 16.2804 16.7184C16.4247 16.7184 16.5602 16.6627 16.6618 16.561L16.9847 16.238C17.0861 16.1366 17.1421 16.0011 17.1421 15.8567C17.1421 15.7124 17.0861 15.577 16.9847 15.4754L13.2994 11.7889Z" fill="white"/>
</svg>
