<svg width="20" height="20" viewBox="0 0 20 20" fill="none" xmlns="http://www.w3.org/2000/svg">
<path fill-rule="evenodd" clip-rule="evenodd" d="M10.221 2.9802C10.0989 2.85816 9.90107 2.85816 9.77903 2.9802L4.375 8.38423V16.5628C4.375 16.7354 4.51491 16.8753 4.6875 16.8753H7.5V13.4378C7.5 12.5749 8.19955 11.8753 9.0625 11.8753H10.9375C11.8004 11.8753 12.5 12.5749 12.5 13.4378V16.8753H15.3125C15.4851 16.8753 15.625 16.7354 15.625 16.5628V8.38423L10.221 2.9802ZM16.875 9.63423L17.6831 10.4423C17.9271 10.6864 18.3229 10.6864 18.5669 10.4423C18.811 10.1982 18.811 9.80248 18.5669 9.5584L11.1049 2.09632C10.4947 1.48612 9.50534 1.48612 8.89514 2.09632L1.43306 9.5584C1.18898 9.80248 1.18898 10.1982 1.43306 10.4423C1.67714 10.6864 2.07286 10.6864 2.31694 10.4423L3.125 9.63423V16.5628C3.125 17.4258 3.82455 18.1253 4.6875 18.1253H15.3125C16.1754 18.1253 16.875 17.4258 16.875 16.5628V9.63423ZM11.25 16.8753H8.75V13.4378C8.75 13.2653 8.88991 13.1253 9.0625 13.1253H10.9375C11.1101 13.1253 11.25 13.2653 11.25 13.4378V16.8753Z" fill="#181F20"/>
</svg>
