<svg width="50" height="50" viewBox="0 0 50 50" fill="none" xmlns="http://www.w3.org/2000/svg">
<g clip-path="url(#clip0_417_4953)">
<path d="M50 25C50 11.1929 38.8071 0 25 0C11.1929 0 0 11.1929 0 25C0 38.8071 11.1929 50 25 50C38.8071 50 50 38.8071 50 25Z" fill="#ECECEC"/>
<path d="M28.4412 19H30.2929L26.5582 22.7347C26.3629 22.9299 26.3629 23.2465 26.5582 23.4418C26.7535 23.6371 27.0701 23.6371 27.2653 23.4418L31 19.7071V21.5588C31 21.8349 31.2239 22.0588 31.5 22.0588C31.7761 22.0588 32 21.8349 32 21.5588V18.5C32 18.2239 31.7761 18 31.5 18H28.4412C28.1651 18 27.9412 18.2239 27.9412 18.5C27.9412 18.7761 28.1651 19 28.4412 19ZM31.5 24.1177C31.2239 24.1177 31 24.3415 31 24.6177V29.9705C31 30.5391 30.5391 31 29.9705 31H20.0295C19.4609 31 19 30.5391 19 29.9705V20.0295C19 19.4609 19.4609 19 20.0295 19H25.3823C25.6585 19 25.8823 18.7761 25.8823 18.5C25.8823 18.2239 25.6585 18 25.3823 18H20.0295C18.9086 18 18 18.9086 18 20.0295V29.9705C18 31.0914 18.9086 32 20.0295 32H29.9705C31.0914 32 32 31.0914 32 29.9705V24.6177C32 24.3415 31.7761 24.1177 31.5 24.1177Z" fill="#181F20" stroke="#181F20" stroke-width="0.2"/>
</g>
<defs>
<clipPath id="clip0_417_4953">
<rect width="50" height="50" fill="white"/>
</clipPath>
</defs>
</svg>
