<svg width="256" height="199" viewBox="0 0 256 199" fill="none" xmlns="http://www.w3.org/2000/svg">
<g clip-path="url(#clip0_93_30)">
<path d="M46.5399 198.011V184.84C46.5399 179.79 43.4659 176.498 38.1969 176.498C35.5629 176.498 32.7089 177.376 30.7329 180.23C29.1969 177.815 27.0019 176.498 23.7089 176.498C21.5129 176.498 19.3189 177.156 17.5619 179.571V176.937H12.9519V198.011H17.5619V186.376C17.5619 182.645 19.5379 180.888 22.6119 180.888C25.6839 180.888 27.2219 182.864 27.2219 186.376V198.011H31.8319V186.376C31.8319 182.645 34.0259 180.888 36.8799 180.888C39.9539 180.888 41.4899 182.864 41.4899 186.376V198.011H46.5399ZM114.811 176.937H107.348V170.571H102.738V176.937H98.5669V181.107H102.737V190.767C102.737 195.597 104.713 198.45 109.982 198.45C111.958 198.45 114.152 197.792 115.69 196.914L114.372 192.962C113.055 193.84 111.519 194.06 110.421 194.06C108.226 194.06 107.348 192.743 107.348 190.547V181.107H114.811V176.937ZM153.887 176.497C151.253 176.497 149.497 177.815 148.399 179.571V176.937H143.789V198.011H148.399V186.157C148.399 182.645 149.935 180.669 152.789 180.669C153.667 180.669 154.765 180.889 155.643 181.108L156.96 176.718C156.082 176.498 154.765 176.498 153.887 176.498V176.497ZM94.8349 178.693C92.6389 177.156 89.5659 176.498 86.2729 176.498C81.0049 176.498 77.4929 179.132 77.4929 183.303C77.4929 186.816 80.1269 188.791 84.7369 189.45L86.9319 189.67C89.3469 190.108 90.6639 190.767 90.6639 191.865C90.6639 193.401 88.9079 194.499 85.8339 194.499C82.7609 194.499 80.3459 193.401 78.8089 192.304L76.6139 195.816C79.0289 197.572 82.3219 198.45 85.6139 198.45C91.7609 198.45 95.2739 195.597 95.2739 191.645C95.2739 187.913 92.4199 185.937 88.0289 185.279L85.8339 185.059C83.8579 184.839 82.3219 184.401 82.3219 183.084C82.3219 181.547 83.8579 180.669 86.2729 180.669C88.9079 180.669 91.5419 181.766 92.8589 182.425L94.8349 178.693ZM217.33 176.498C214.695 176.498 212.939 177.815 211.841 179.571V176.937H207.231V198.011H211.841V186.157C211.841 182.645 213.378 180.669 216.231 180.669C217.11 180.669 218.208 180.889 219.086 181.108L220.403 176.718C219.525 176.498 218.208 176.498 217.33 176.498ZM158.497 187.474C158.497 193.84 162.887 198.45 169.693 198.45C172.766 198.45 174.961 197.792 177.156 196.036L174.961 192.304C173.205 193.621 171.449 194.279 169.473 194.279C165.741 194.279 163.107 191.645 163.107 187.474C163.107 183.523 165.741 180.888 169.473 180.669C171.449 180.669 173.205 181.327 174.961 182.645L177.156 178.913C174.961 177.156 172.766 176.498 169.693 176.498C162.887 176.498 158.497 181.108 158.497 187.474ZM201.085 187.474V176.937H196.475V179.571C194.938 177.596 192.743 176.498 189.889 176.498C183.962 176.498 179.352 181.108 179.352 187.474C179.352 193.84 183.962 198.45 189.889 198.45C192.962 198.45 195.158 197.353 196.475 195.377V198.011H201.085V187.474ZM184.181 187.474C184.181 183.742 186.596 180.669 190.547 180.669C194.279 180.669 196.914 183.523 196.914 187.474C196.914 191.206 194.279 194.279 190.547 194.279C186.596 194.059 184.181 191.206 184.181 187.474ZM129.081 176.498C122.934 176.498 118.543 180.888 118.543 187.474C118.543 194.06 122.933 198.45 129.3 198.45C132.373 198.45 135.447 197.572 137.862 195.597L135.666 192.304C133.91 193.621 131.715 194.499 129.52 194.499C126.666 194.499 123.812 193.182 123.153 189.449H138.74V187.694C138.96 180.888 135.009 176.498 129.081 176.498ZM129.081 180.449C131.934 180.449 133.911 182.206 134.349 185.499H123.373C123.812 182.645 125.788 180.449 129.081 180.449ZM243.453 187.474V168.595H238.843V179.571C237.306 177.596 235.111 176.498 232.257 176.498C226.33 176.498 221.72 181.108 221.72 187.474C221.72 193.84 226.33 198.45 232.257 198.45C235.331 198.45 237.526 197.353 238.843 195.377V198.011H243.453V187.474ZM226.55 187.474C226.55 183.742 228.964 180.669 232.916 180.669C236.648 180.669 239.282 183.523 239.282 187.474C239.282 191.206 236.648 194.279 232.916 194.279C228.964 194.059 226.55 191.206 226.55 187.474ZM72.4429 187.474V176.937H67.8329V179.571C66.2959 177.596 64.1009 176.498 61.2469 176.498C55.3199 176.498 50.7099 181.108 50.7099 187.474C50.7099 193.84 55.3199 198.45 61.2469 198.45C64.3209 198.45 66.5159 197.353 67.8329 195.377V198.011H72.4429V187.474ZM55.3199 187.474C55.3199 183.742 57.7349 180.669 61.6859 180.669C65.4179 180.669 68.0529 183.523 68.0529 187.474C68.0529 191.206 65.4179 194.279 61.6859 194.279C57.7349 194.059 55.3199 191.206 55.3199 187.474Z" fill="black"/>
<path d="M93.2981 16.9028H162.448V141.154H93.2981V16.9028Z" fill="#FF5F00"/>
<path d="M97.689 79.029C97.689 53.784 109.543 31.392 127.763 16.903C114.373 6.366 97.47 0 79.03 0C35.343 0 0 35.343 0 79.029C0 122.714 35.343 158.058 79.029 158.058C97.469 158.058 114.372 151.692 127.763 141.154C109.543 126.885 97.689 104.274 97.689 79.029Z" fill="#EB001B"/>
<path d="M255.746 79.029C255.746 122.714 220.403 158.058 176.717 158.058C158.277 158.058 141.374 151.692 127.983 141.154C146.423 126.666 158.058 104.274 158.058 79.029C158.058 53.784 146.203 31.392 127.983 16.903C141.373 6.366 158.277 0 176.717 0C220.403 0 255.746 35.563 255.746 79.029Z" fill="#F79E1B"/>
</g>
<defs>
<clipPath id="clip0_93_30">
<rect width="256" height="199" fill="white"/>
</clipPath>
</defs>
</svg>
