<svg width="14" height="18" viewBox="0 0 14 18" fill="none" xmlns="http://www.w3.org/2000/svg">
<path fill-rule="evenodd" clip-rule="evenodd" d="M7 2.125C3.8934 2.125 1.375 4.6434 1.375 7.75C1.375 10.4966 2.81723 12.6919 4.32212 14.2327C5.07062 14.9991 5.82091 15.5888 6.38405 15.9867C6.63237 16.1621 6.84321 16.2994 7 16.3974C7.15678 16.2994 7.36763 16.1621 7.61595 15.9867C8.17909 15.5888 8.92938 14.9991 9.67788 14.2327C11.1828 12.6919 12.625 10.4966 12.625 7.75C12.625 4.6434 10.1066 2.125 7 2.125ZM7 17.125C6.69976 17.6732 6.69954 17.673 6.6993 17.6729L6.69705 17.6717L6.69206 17.6689L6.67542 17.6596C6.66141 17.6517 6.64163 17.6405 6.61646 17.6259C6.56612 17.5967 6.49419 17.5542 6.40375 17.4985C6.22295 17.3872 5.96771 17.223 5.66282 17.0076C5.05409 16.5776 4.24188 15.9395 3.42788 15.1061C1.80777 13.4474 0.125 10.9551 0.125 7.75C0.125 3.95304 3.20304 0.875 7 0.875C10.797 0.875 13.875 3.95304 13.875 7.75C13.875 10.9551 12.1922 13.4474 10.5721 15.1061C9.75812 15.9395 8.94591 16.5776 8.33718 17.0076C8.03229 17.223 7.77705 17.3872 7.59625 17.4985C7.50581 17.5542 7.43388 17.5967 7.38354 17.6259C7.35837 17.6405 7.33859 17.6517 7.32458 17.6596L7.30794 17.6689L7.30295 17.6717L7.30131 17.6726C7.30106 17.6727 7.30024 17.6732 7 17.125ZM7 17.125L7.30024 17.6732C7.11319 17.7756 6.88635 17.7754 6.6993 17.6729L7 17.125ZM7 5.875C5.96447 5.875 5.125 6.71447 5.125 7.75C5.125 8.78553 5.96447 9.625 7 9.625C8.03553 9.625 8.875 8.78553 8.875 7.75C8.875 6.71447 8.03553 5.875 7 5.875ZM3.875 7.75C3.875 6.02411 5.27411 4.625 7 4.625C8.72589 4.625 10.125 6.02411 10.125 7.75C10.125 9.47589 8.72589 10.875 7 10.875C5.27411 10.875 3.875 9.47589 3.875 7.75Z" fill="black"/>
</svg>
