<svg width="20" height="20" viewBox="0 0 20 20" fill="none" xmlns="http://www.w3.org/2000/svg">
<path fill-rule="evenodd" clip-rule="evenodd" d="M15.4472 1.91325C15.7713 1.7946 16.1303 1.96119 16.2489 2.28533C16.3656 2.60409 16.4747 2.92653 16.5758 3.25243C17.0122 4.65805 17.3023 6.12781 17.4283 7.64372C17.8591 8.09243 18.125 8.70296 18.125 9.37517C18.125 10.0474 17.8591 10.6579 17.4283 11.1066C17.3023 12.6225 17.0122 14.0923 16.5758 15.4979C16.4747 15.8238 16.3656 16.1463 16.2489 16.465C16.1303 16.7892 15.7713 16.9557 15.4472 16.8371C15.123 16.7184 14.9564 16.3595 15.0751 16.0353C15.1239 15.9019 15.1714 15.7678 15.2173 15.633C13.4395 14.7835 11.5119 14.1972 9.48452 13.9243C9.63685 14.3813 9.81152 14.8281 10.0072 15.2634C10.3352 15.9929 10.0972 16.8967 9.36384 17.3202L8.81691 17.6359L8.50441 17.0947L8.81691 17.6359C8.05984 18.073 7.05142 17.8095 6.6647 16.973C6.18171 15.9283 5.7952 14.8298 5.51664 13.689C3.44954 13.3401 1.875 11.5415 1.875 9.37517C1.875 6.95892 3.83375 5.00017 6.25 5.00017H6.875C7.44397 5.00017 8.00706 4.97566 8.5633 4.92767C10.9287 4.72357 13.1721 4.09455 15.2173 3.11735C15.1714 2.98256 15.1239 2.84844 15.0751 2.71501C14.9564 2.39086 15.123 2.03191 15.4472 1.91325ZM15.5856 4.32578C13.5835 5.25988 11.4066 5.88199 9.11777 6.12958C8.87724 7.17205 8.75 8.25839 8.75 9.37517C8.75 10.4919 8.87723 11.5783 9.11777 12.6208C11.4066 12.8683 13.5835 13.4905 15.5856 14.4246C15.9023 13.248 16.1111 12.0269 16.2004 10.7725C16.2333 10.3111 16.25 9.84514 16.25 9.37517C16.25 8.9052 16.2333 8.43924 16.2004 7.97784C16.1111 6.72342 15.9023 5.50235 15.5856 4.32578ZM7.81699 12.5213C7.60909 11.5046 7.5 10.4523 7.5 9.37517C7.5 8.298 7.60909 7.24574 7.81699 6.22903C7.50471 6.24307 7.19066 6.25017 6.875 6.25017H6.25C4.52411 6.25017 3.125 7.64928 3.125 9.37517C3.125 11.1011 4.52411 12.5002 6.25 12.5002H6.875C7.19066 12.5002 7.50471 12.5073 7.81699 12.5213ZM6.8225 13.7502C7.07245 14.684 7.40052 15.5859 7.79931 16.4484C7.8579 16.5752 8.02999 16.6469 8.19191 16.5534L8.73884 16.2376C8.87645 16.1582 8.95159 15.9638 8.86716 15.776C8.57935 15.1358 8.33336 14.4728 8.13268 13.7903C7.71696 13.7637 7.2976 13.7502 6.875 13.7502H6.8225Z" fill="black"/>
</svg>
