<svg width="24" height="24" viewBox="0 0 24 24" fill="none" xmlns="http://www.w3.org/2000/svg">
<path fill-rule="evenodd" clip-rule="evenodd" d="M15.8859 6.78926V6.10508C15.8859 3.83791 14.048 2 11.7808 2C9.51365 2 7.67575 3.83791 7.67575 6.10508V6.78926H5.86294C4.9876 6.78926 4.25352 7.45012 4.16188 8.32065L3.00958 19.2675C2.90327 20.2774 3.69514 21.157 4.71063 21.157H18.851C19.8665 21.157 20.6584 20.2775 20.5521 19.2675L19.3998 8.32065C19.3081 7.45012 18.574 6.78926 17.6987 6.78926H15.8859ZM11.7808 3.36836C10.2694 3.36836 9.04411 4.59363 9.04411 6.10508V6.78926H14.5175V6.10508C14.5175 4.59363 13.2923 3.36836 11.7808 3.36836ZM14.5175 8.15762H9.04411V9.44521C9.25406 9.63313 9.3862 9.90621 9.3862 10.2102C9.3862 10.777 8.92672 11.2364 8.35993 11.2364C7.79313 11.2364 7.33366 10.777 7.33366 10.2102C7.33366 9.90621 7.46579 9.63313 7.67575 9.44521V8.15762H5.86294C5.68787 8.15762 5.54105 8.28979 5.52273 8.4639L4.37042 19.4108C4.34916 19.6128 4.50753 19.7887 4.71063 19.7887H18.851C19.0541 19.7887 19.2125 19.6128 19.1912 19.4108L18.0389 8.4639C18.0206 8.28979 17.8738 8.15762 17.6987 8.15762H15.8859V9.44521C16.0959 9.63313 16.228 9.90621 16.228 10.2102C16.228 10.777 15.7685 11.2364 15.2017 11.2364C14.6349 11.2364 14.1755 10.777 14.1755 10.2102C14.1755 9.90621 14.3076 9.63313 14.5175 9.44521V8.15762Z" fill="#B6B6B6"/>
</svg>
