<svg width="46" height="46" viewBox="0 0 46 46" fill="none" xmlns="http://www.w3.org/2000/svg">
<circle cx="23" cy="23" r="23" fill="url(#paint0_linear_449_4498)"/>
<path fill-rule="evenodd" clip-rule="evenodd" d="M23.0513 15.916C20.635 15.916 18.6763 17.8748 18.6763 20.291L18.6761 20.916C18.6761 22.6739 18.1172 24.3024 17.1682 25.6319C18.3172 25.9977 19.5129 26.2591 20.7442 26.4052C21.5004 26.4949 22.2702 26.541 23.0511 26.541C23.8321 26.541 24.602 26.4948 25.3584 26.4051C26.5895 26.2591 27.7851 25.9976 28.9341 25.6319C27.985 24.3023 27.4261 22.6739 27.4261 20.916V20.327L27.4263 20.291C27.4263 17.8748 25.4675 15.916 23.0513 15.916ZM17.4263 20.2909C17.4264 17.1843 19.9447 14.666 23.0513 14.666C26.1579 14.666 28.6763 17.1844 28.6763 20.291L28.6761 20.332V20.916C28.6761 22.6853 29.3436 24.2972 30.4416 25.5159C30.5803 25.6699 30.6337 25.8827 30.584 26.084C30.5344 26.2852 30.3881 26.4488 30.1937 26.5206C28.907 26.9956 27.5601 27.3459 26.1676 27.557C26.1734 27.6343 26.1763 27.7124 26.1763 27.791C26.1763 29.5169 24.7772 30.916 23.0513 30.916C21.3254 30.916 19.9263 29.5169 19.9263 27.791C19.9263 27.7124 19.9292 27.6344 19.9349 27.5571C18.5424 27.346 17.1953 26.9956 15.9086 26.5206C15.7141 26.4488 15.5679 26.2852 15.5182 26.084C15.4685 25.8827 15.5219 25.6699 15.6607 25.5159C16.7586 24.2972 17.4261 22.6853 17.4261 20.916L17.4263 20.2909ZM21.1781 27.7071C21.1769 27.7349 21.1763 27.7629 21.1763 27.791C21.1763 28.8265 22.0157 29.666 23.0513 29.666C24.0868 29.666 24.9263 28.8265 24.9263 27.791C24.9263 27.7629 24.9257 27.7349 24.9244 27.707C24.3073 27.7626 23.6824 27.791 23.0511 27.791C22.4199 27.791 21.7952 27.7626 21.1781 27.7071Z" fill="white"/>
<defs>
<linearGradient id="paint0_linear_449_4498" x1="0" y1="0" x2="46" y2="46" gradientUnits="userSpaceOnUse">
<stop stop-color="#B4E210"/>
<stop offset="1" stop-color="#68A019"/>
</linearGradient>
</defs>
</svg>
