<svg width="18" height="18" viewBox="0 0 18 18" fill="none" xmlns="http://www.w3.org/2000/svg">
<path opacity="0.3" d="M11.999 6.7446V15.2646C11.999 16.3521 11.219 16.8096 10.2665 16.2846L7.31903 14.6421C7.00403 14.4696 6.49402 14.4696 6.17902 14.6421L3.23152 16.2846C2.27902 16.8096 1.49902 16.3521 1.49902 15.2646V6.7446C1.49902 5.4621 2.54901 4.41211 3.83151 4.41211H9.66654C10.949 4.41211 11.999 5.4621 11.999 6.7446Z" fill="url(#paint0_linear_450_4652)"/>
<path d="M16.499 3.83054V12.3505C16.499 13.438 15.719 13.8955 14.7665 13.3705L11.999 11.8255V6.74054C11.999 5.45804 10.949 4.40805 9.66653 4.40805H5.99902V3.83054C5.99902 2.54804 7.04901 1.49805 8.33151 1.49805H14.1665C15.449 1.49805 16.499 2.54804 16.499 3.83054Z" fill="url(#paint1_linear_450_4652)"/>
<path d="M8.25098 8.43945H7.31348V7.50195C7.31348 7.19445 7.05848 6.93945 6.75098 6.93945C6.44348 6.93945 6.18848 7.19445 6.18848 7.50195V8.43945H5.25098C4.94348 8.43945 4.68848 8.69445 4.68848 9.00195C4.68848 9.30945 4.94348 9.56445 5.25098 9.56445H6.18848V10.502C6.18848 10.8095 6.44348 11.0645 6.75098 11.0645C7.05848 11.0645 7.31348 10.8095 7.31348 10.502V9.56445H8.25098C8.55848 9.56445 8.81348 9.30945 8.81348 9.00195C8.81348 8.69445 8.55848 8.43945 8.25098 8.43945Z" fill="url(#paint2_linear_450_4652)"/>
<defs>
<linearGradient id="paint0_linear_450_4652" x1="6.74902" y1="4.41211" x2="6.74902" y2="16.5023" gradientUnits="userSpaceOnUse">
<stop stop-color="#CCF60E"/>
<stop offset="1" stop-color="#81C441"/>
</linearGradient>
<linearGradient id="paint1_linear_450_4652" x1="11.249" y1="1.49805" x2="11.249" y2="13.5882" gradientUnits="userSpaceOnUse">
<stop stop-color="#CCF60E"/>
<stop offset="1" stop-color="#81C441"/>
</linearGradient>
<linearGradient id="paint2_linear_450_4652" x1="6.75098" y1="6.93945" x2="6.75098" y2="11.0645" gradientUnits="userSpaceOnUse">
<stop stop-color="#CCF60E"/>
<stop offset="1" stop-color="#81C441"/>
</linearGradient>
</defs>
</svg>
