<svg width="24" height="24" viewBox="0 0 24 24" fill="none" xmlns="http://www.w3.org/2000/svg">
<path fill-rule="evenodd" clip-rule="evenodd" d="M5.25 6C5.25 4.34315 6.59315 3 8.25 3H15.75C17.4069 3 18.75 4.34315 18.75 6V6.40157C19.6461 6.91993 20.25 7.88874 20.25 9V9.40157C21.1461 9.91992 21.75 10.8887 21.75 12V18C21.75 19.6569 20.4069 21 18.75 21H5.25C3.59315 21 2.25 19.6569 2.25 18V12C2.25 10.8887 2.8539 9.91992 3.75 9.40157V9C3.75 7.88874 4.3539 6.91992 5.25 6.40157V6ZM6.75 6H17.25C17.25 5.17157 16.5784 4.5 15.75 4.5H8.25C7.42157 4.5 6.75 5.17157 6.75 6ZM5.25 9H18.75C18.75 8.34806 18.3337 7.79143 17.7501 7.58516C17.5946 7.53022 17.4267 7.5 17.25 7.5H6.75C6.57334 7.5 6.40536 7.53022 6.24993 7.58516C5.66633 7.79143 5.25 8.34806 5.25 9ZM5.25 10.5C5.07334 10.5 4.90536 10.5302 4.74993 10.5852C4.16633 10.7914 3.75 11.3481 3.75 12V18C3.75 18.8284 4.42157 19.5 5.25 19.5H18.75C19.5784 19.5 20.25 18.8284 20.25 18V12C20.25 11.3481 19.8337 10.7914 19.2501 10.5852C19.0946 10.5302 18.9267 10.5 18.75 10.5H5.25Z" fill="#02021C"/>
</svg>
