<svg width="20" height="20" viewBox="0 0 20 20" fill="none" xmlns="http://www.w3.org/2000/svg">
<path fill-rule="evenodd" clip-rule="evenodd" d="M1 2.625C1 2.27982 1.27982 2 1.625 2H17.875C18.2202 2 18.5 2.27982 18.5 2.625C18.5 2.97018 18.2202 3.25 17.875 3.25H17.25V12C17.25 13.3807 16.1307 14.5 14.75 14.5H13.7421L14.7179 17.4274C14.8271 17.7548 14.6501 18.1088 14.3226 18.2179C13.9952 18.3271 13.6412 18.1501 13.5321 17.8226L13.2579 17H6.24214L5.96793 17.8226C5.85877 18.1501 5.50482 18.3271 5.17736 18.2179C4.84989 18.1088 4.67292 17.7548 4.78207 17.4274L5.75786 14.5H4.75C3.36929 14.5 2.25 13.3807 2.25 12V3.25H1.625C1.27982 3.25 1 2.97018 1 2.625ZM3.5 3.25V12C3.5 12.6904 4.05964 13.25 4.75 13.25H14.75C15.4404 13.25 16 12.6904 16 12V3.25H3.5ZM7.07547 14.5L6.65881 15.75H12.8412L12.4245 14.5H7.07547ZM14.041 6.14987C14.2138 6.44866 14.1117 6.83099 13.813 7.00383C12.6178 7.69516 11.5891 8.64299 10.8024 9.77198C10.6967 9.92376 10.5291 10.0209 10.3448 10.0372C10.1606 10.0536 9.97853 9.98741 9.84772 9.8566L8.5 8.50888L6.44194 10.5669C6.19786 10.811 5.80214 10.811 5.55806 10.5669C5.31398 10.3229 5.31398 9.92714 5.55806 9.68306L8.05806 7.18306C8.30214 6.93898 8.69786 6.93898 8.94194 7.18306L10.2223 8.46338C11.0431 7.44469 12.0481 6.58067 13.187 5.92182C13.4858 5.74898 13.8682 5.85108 14.041 6.14987Z" fill="black"/>
</svg>
