<svg width="22" height="20" viewBox="0 0 22 20" fill="none" xmlns="http://www.w3.org/2000/svg">
<path fill-rule="evenodd" clip-rule="evenodd" d="M0.5 1C0.5 0.585786 0.835786 0.25 1.25 0.25H20.75C21.1642 0.25 21.5 0.585786 21.5 1C21.5 1.41421 21.1642 1.75 20.75 1.75H20V12.25C20 13.9069 18.6569 15.25 17 15.25H15.7906L16.9615 18.7628C17.0925 19.1558 16.8801 19.5805 16.4872 19.7115C16.0942 19.8425 15.6695 19.6301 15.5385 19.2372L15.2094 18.25H6.79057L6.46151 19.2372C6.33053 19.6301 5.90579 19.8425 5.51283 19.7115C5.11987 19.5805 4.9075 19.1558 5.03849 18.7628L6.20943 15.25H5C3.34315 15.25 2 13.9069 2 12.25V1.75H1.25C0.835786 1.75 0.5 1.41421 0.5 1ZM3.5 1.75V12.25C3.5 13.0784 4.17157 13.75 5 13.75H17C17.8284 13.75 18.5 13.0784 18.5 12.25V1.75H3.5ZM7.79057 15.25L7.29057 16.75H14.7094L14.2094 15.25H7.79057ZM14 4C14.4142 4 14.75 4.33579 14.75 4.75V10.75C14.75 11.1642 14.4142 11.5 14 11.5C13.5858 11.5 13.25 11.1642 13.25 10.75V4.75C13.25 4.33579 13.5858 4 14 4ZM11 6.25C11.4142 6.25 11.75 6.58579 11.75 7V10.75C11.75 11.1642 11.4142 11.5 11 11.5C10.5858 11.5 10.25 11.1642 10.25 10.75V7C10.25 6.58579 10.5858 6.25 11 6.25ZM8 8.5C8.41421 8.5 8.75 8.83579 8.75 9.25V10.75C8.75 11.1642 8.41421 11.5 8 11.5C7.58579 11.5 7.25 11.1642 7.25 10.75V9.25C7.25 8.83579 7.58579 8.5 8 8.5Z" fill="#02021C"/>
</svg>
