<?xml version="1.0"?>
<svg xmlns="http://www.w3.org/2000/svg" xmlns:xlink="http://www.w3.org/1999/xlink" version="1.1" width="500px" height="500px" viewBox="0 0 500 500"><defs><rect id="block" width="15.151515151515" height="15.151515151515" fill="#000000" fill-opacity="1"/></defs><rect x="0" y="0" width="500" height="500" fill="#ffffff" fill-opacity="1"/><use x="0" y="0" xlink:href="#block"/><use x="15.151515151515" y="0" xlink:href="#block"/><use x="30.30303030303" y="0" xlink:href="#block"/><use x="45.454545454545" y="0" xlink:href="#block"/><use x="60.606060606061" y="0" xlink:href="#block"/><use x="75.757575757576" y="0" xlink:href="#block"/><use x="90.909090909091" y="0" xlink:href="#block"/><use x="166.66666666667" y="0" xlink:href="#block"/><use x="181.81818181818" y="0" xlink:href="#block"/><use x="227.27272727273" y="0" xlink:href="#block"/><use x="242.42424242424" y="0" xlink:href="#block"/><use x="257.57575757576" y="0" xlink:href="#block"/><use x="303.0303030303" y="0" xlink:href="#block"/><use x="318.18181818182" y="0" xlink:href="#block"/><use x="333.33333333333" y="0" xlink:href="#block"/><use x="348.48484848485" y="0" xlink:href="#block"/><use x="363.63636363636" y="0" xlink:href="#block"/><use x="393.93939393939" y="0" xlink:href="#block"/><use x="409.09090909091" y="0" xlink:href="#block"/><use x="424.24242424242" y="0" xlink:href="#block"/><use x="439.39393939394" y="0" xlink:href="#block"/><use x="454.54545454545" y="0" xlink:href="#block"/><use x="469.69696969697" y="0" xlink:href="#block"/><use x="484.84848484848" y="0" xlink:href="#block"/><use x="0" y="15.151515151515" xlink:href="#block"/><use x="90.909090909091" y="15.151515151515" xlink:href="#block"/><use x="136.36363636364" y="15.151515151515" xlink:href="#block"/><use x="181.81818181818" y="15.151515151515" xlink:href="#block"/><use x="242.42424242424" y="15.151515151515" xlink:href="#block"/><use x="257.57575757576" y="15.151515151515" xlink:href="#block"/><use x="303.0303030303" y="15.151515151515" xlink:href="#block"/><use x="318.18181818182" y="15.151515151515" xlink:href="#block"/><use x="333.33333333333" y="15.151515151515" xlink:href="#block"/><use x="348.48484848485" y="15.151515151515" xlink:href="#block"/><use x="363.63636363636" y="15.151515151515" xlink:href="#block"/><use x="393.93939393939" y="15.151515151515" xlink:href="#block"/><use x="484.84848484848" y="15.151515151515" xlink:href="#block"/><use x="0" y="30.30303030303" xlink:href="#block"/><use x="30.30303030303" y="30.30303030303" xlink:href="#block"/><use x="45.454545454545" y="30.30303030303" xlink:href="#block"/><use x="60.606060606061" y="30.30303030303" xlink:href="#block"/><use x="90.909090909091" y="30.30303030303" xlink:href="#block"/><use x="166.66666666667" y="30.30303030303" xlink:href="#block"/><use x="181.81818181818" y="30.30303030303" xlink:href="#block"/><use x="196.9696969697" y="30.30303030303" xlink:href="#block"/><use x="242.42424242424" y="30.30303030303" xlink:href="#block"/><use x="318.18181818182" y="30.30303030303" xlink:href="#block"/><use x="348.48484848485" y="30.30303030303" xlink:href="#block"/><use x="363.63636363636" y="30.30303030303" xlink:href="#block"/><use x="393.93939393939" y="30.30303030303" xlink:href="#block"/><use x="424.24242424242" y="30.30303030303" xlink:href="#block"/><use x="439.39393939394" y="30.30303030303" xlink:href="#block"/><use x="454.54545454545" y="30.30303030303" xlink:href="#block"/><use x="484.84848484848" y="30.30303030303" xlink:href="#block"/><use x="0" y="45.454545454545" xlink:href="#block"/><use x="30.30303030303" y="45.454545454545" xlink:href="#block"/><use x="45.454545454545" y="45.454545454545" xlink:href="#block"/><use x="60.606060606061" y="45.454545454545" xlink:href="#block"/><use x="90.909090909091" y="45.454545454545" xlink:href="#block"/><use x="136.36363636364" y="45.454545454545" xlink:href="#block"/><use x="151.51515151515" y="45.454545454545" xlink:href="#block"/><use x="166.66666666667" y="45.454545454545" xlink:href="#block"/><use x="212.12121212121" y="45.454545454545" xlink:href="#block"/><use x="227.27272727273" y="45.454545454545" xlink:href="#block"/><use x="242.42424242424" y="45.454545454545" xlink:href="#block"/><use x="257.57575757576" y="45.454545454545" xlink:href="#block"/><use x="287.87878787879" y="45.454545454545" xlink:href="#block"/><use x="303.0303030303" y="45.454545454545" xlink:href="#block"/><use x="318.18181818182" y="45.454545454545" xlink:href="#block"/><use x="363.63636363636" y="45.454545454545" xlink:href="#block"/><use x="393.93939393939" y="45.454545454545" xlink:href="#block"/><use x="424.24242424242" y="45.454545454545" xlink:href="#block"/><use x="439.39393939394" y="45.454545454545" xlink:href="#block"/><use x="454.54545454545" y="45.454545454545" xlink:href="#block"/><use x="484.84848484848" y="45.454545454545" xlink:href="#block"/><use x="0" y="60.606060606061" xlink:href="#block"/><use x="30.30303030303" y="60.606060606061" xlink:href="#block"/><use x="45.454545454545" y="60.606060606061" xlink:href="#block"/><use x="60.606060606061" y="60.606060606061" xlink:href="#block"/><use x="90.909090909091" y="60.606060606061" xlink:href="#block"/><use x="121.21212121212" y="60.606060606061" xlink:href="#block"/><use x="136.36363636364" y="60.606060606061" xlink:href="#block"/><use x="151.51515151515" y="60.606060606061" xlink:href="#block"/><use x="181.81818181818" y="60.606060606061" xlink:href="#block"/><use x="196.9696969697" y="60.606060606061" xlink:href="#block"/><use x="242.42424242424" y="60.606060606061" xlink:href="#block"/><use x="272.72727272727" y="60.606060606061" xlink:href="#block"/><use x="303.0303030303" y="60.606060606061" xlink:href="#block"/><use x="348.48484848485" y="60.606060606061" xlink:href="#block"/><use x="363.63636363636" y="60.606060606061" xlink:href="#block"/><use x="393.93939393939" y="60.606060606061" xlink:href="#block"/><use x="424.24242424242" y="60.606060606061" xlink:href="#block"/><use x="439.39393939394" y="60.606060606061" xlink:href="#block"/><use x="454.54545454545" y="60.606060606061" xlink:href="#block"/><use x="484.84848484848" y="60.606060606061" xlink:href="#block"/><use x="0" y="75.757575757576" xlink:href="#block"/><use x="90.909090909091" y="75.757575757576" xlink:href="#block"/><use x="151.51515151515" y="75.757575757576" xlink:href="#block"/><use x="166.66666666667" y="75.757575757576" xlink:href="#block"/><use x="227.27272727273" y="75.757575757576" xlink:href="#block"/><use x="257.57575757576" y="75.757575757576" xlink:href="#block"/><use x="303.0303030303" y="75.757575757576" xlink:href="#block"/><use x="318.18181818182" y="75.757575757576" xlink:href="#block"/><use x="348.48484848485" y="75.757575757576" xlink:href="#block"/><use x="393.93939393939" y="75.757575757576" xlink:href="#block"/><use x="484.84848484848" y="75.757575757576" xlink:href="#block"/><use x="0" y="90.909090909091" xlink:href="#block"/><use x="15.151515151515" y="90.909090909091" xlink:href="#block"/><use x="30.30303030303" y="90.909090909091" xlink:href="#block"/><use x="45.454545454545" y="90.909090909091" xlink:href="#block"/><use x="60.606060606061" y="90.909090909091" xlink:href="#block"/><use x="75.757575757576" y="90.909090909091" xlink:href="#block"/><use x="90.909090909091" y="90.909090909091" xlink:href="#block"/><use x="121.21212121212" y="90.909090909091" xlink:href="#block"/><use x="151.51515151515" y="90.909090909091" xlink:href="#block"/><use x="181.81818181818" y="90.909090909091" xlink:href="#block"/><use x="212.12121212121" y="90.909090909091" xlink:href="#block"/><use x="242.42424242424" y="90.909090909091" xlink:href="#block"/><use x="272.72727272727" y="90.909090909091" xlink:href="#block"/><use x="303.0303030303" y="90.909090909091" xlink:href="#block"/><use x="333.33333333333" y="90.909090909091" xlink:href="#block"/><use x="363.63636363636" y="90.909090909091" xlink:href="#block"/><use x="393.93939393939" y="90.909090909091" xlink:href="#block"/><use x="409.09090909091" y="90.909090909091" xlink:href="#block"/><use x="424.24242424242" y="90.909090909091" xlink:href="#block"/><use x="439.39393939394" y="90.909090909091" xlink:href="#block"/><use x="454.54545454545" y="90.909090909091" xlink:href="#block"/><use x="469.69696969697" y="90.909090909091" xlink:href="#block"/><use x="484.84848484848" y="90.909090909091" xlink:href="#block"/><use x="121.21212121212" y="106.06060606061" xlink:href="#block"/><use x="181.81818181818" y="106.06060606061" xlink:href="#block"/><use x="212.12121212121" y="106.06060606061" xlink:href="#block"/><use x="227.27272727273" y="106.06060606061" xlink:href="#block"/><use x="242.42424242424" y="106.06060606061" xlink:href="#block"/><use x="272.72727272727" y="106.06060606061" xlink:href="#block"/><use x="287.87878787879" y="106.06060606061" xlink:href="#block"/><use x="303.0303030303" y="106.06060606061" xlink:href="#block"/><use x="318.18181818182" y="106.06060606061" xlink:href="#block"/><use x="363.63636363636" y="106.06060606061" xlink:href="#block"/><use x="30.30303030303" y="121.21212121212" xlink:href="#block"/><use x="45.454545454545" y="121.21212121212" xlink:href="#block"/><use x="90.909090909091" y="121.21212121212" xlink:href="#block"/><use x="106.06060606061" y="121.21212121212" xlink:href="#block"/><use x="121.21212121212" y="121.21212121212" xlink:href="#block"/><use x="136.36363636364" y="121.21212121212" xlink:href="#block"/><use x="166.66666666667" y="121.21212121212" xlink:href="#block"/><use x="196.9696969697" y="121.21212121212" xlink:href="#block"/><use x="212.12121212121" y="121.21212121212" xlink:href="#block"/><use x="227.27272727273" y="121.21212121212" xlink:href="#block"/><use x="242.42424242424" y="121.21212121212" xlink:href="#block"/><use x="257.57575757576" y="121.21212121212" xlink:href="#block"/><use x="272.72727272727" y="121.21212121212" xlink:href="#block"/><use x="287.87878787879" y="121.21212121212" xlink:href="#block"/><use x="303.0303030303" y="121.21212121212" xlink:href="#block"/><use x="348.48484848485" y="121.21212121212" xlink:href="#block"/><use x="363.63636363636" y="121.21212121212" xlink:href="#block"/><use x="378.78787878788" y="121.21212121212" xlink:href="#block"/><use x="393.93939393939" y="121.21212121212" xlink:href="#block"/><use x="424.24242424242" y="121.21212121212" xlink:href="#block"/><use x="0" y="136.36363636364" xlink:href="#block"/><use x="15.151515151515" y="136.36363636364" xlink:href="#block"/><use x="30.30303030303" y="136.36363636364" xlink:href="#block"/><use x="60.606060606061" y="136.36363636364" xlink:href="#block"/><use x="75.757575757576" y="136.36363636364" xlink:href="#block"/><use x="136.36363636364" y="136.36363636364" xlink:href="#block"/><use x="166.66666666667" y="136.36363636364" xlink:href="#block"/><use x="181.81818181818" y="136.36363636364" xlink:href="#block"/><use x="212.12121212121" y="136.36363636364" xlink:href="#block"/><use x="227.27272727273" y="136.36363636364" xlink:href="#block"/><use x="272.72727272727" y="136.36363636364" xlink:href="#block"/><use x="287.87878787879" y="136.36363636364" xlink:href="#block"/><use x="303.0303030303" y="136.36363636364" xlink:href="#block"/><use x="318.18181818182" y="136.36363636364" xlink:href="#block"/><use x="363.63636363636" y="136.36363636364" xlink:href="#block"/><use x="439.39393939394" y="136.36363636364" xlink:href="#block"/><use x="454.54545454545" y="136.36363636364" xlink:href="#block"/><use x="469.69696969697" y="136.36363636364" xlink:href="#block"/><use x="484.84848484848" y="136.36363636364" xlink:href="#block"/><use x="0" y="151.51515151515" xlink:href="#block"/><use x="15.151515151515" y="151.51515151515" xlink:href="#block"/><use x="45.454545454545" y="151.51515151515" xlink:href="#block"/><use x="75.757575757576" y="151.51515151515" xlink:href="#block"/><use x="90.909090909091" y="151.51515151515" xlink:href="#block"/><use x="106.06060606061" y="151.51515151515" xlink:href="#block"/><use x="196.9696969697" y="151.51515151515" xlink:href="#block"/><use x="227.27272727273" y="151.51515151515" xlink:href="#block"/><use x="257.57575757576" y="151.51515151515" xlink:href="#block"/><use x="287.87878787879" y="151.51515151515" xlink:href="#block"/><use x="348.48484848485" y="151.51515151515" xlink:href="#block"/><use x="378.78787878788" y="151.51515151515" xlink:href="#block"/><use x="393.93939393939" y="151.51515151515" xlink:href="#block"/><use x="409.09090909091" y="151.51515151515" xlink:href="#block"/><use x="424.24242424242" y="151.51515151515" xlink:href="#block"/><use x="454.54545454545" y="151.51515151515" xlink:href="#block"/><use x="469.69696969697" y="151.51515151515" xlink:href="#block"/><use x="15.151515151515" y="166.66666666667" xlink:href="#block"/><use x="30.30303030303" y="166.66666666667" xlink:href="#block"/><use x="45.454545454545" y="166.66666666667" xlink:href="#block"/><use x="60.606060606061" y="166.66666666667" xlink:href="#block"/><use x="75.757575757576" y="166.66666666667" xlink:href="#block"/><use x="136.36363636364" y="166.66666666667" xlink:href="#block"/><use x="151.51515151515" y="166.66666666667" xlink:href="#block"/><use x="166.66666666667" y="166.66666666667" xlink:href="#block"/><use x="212.12121212121" y="166.66666666667" xlink:href="#block"/><use x="242.42424242424" y="166.66666666667" xlink:href="#block"/><use x="272.72727272727" y="166.66666666667" xlink:href="#block"/><use x="287.87878787879" y="166.66666666667" xlink:href="#block"/><use x="303.0303030303" y="166.66666666667" xlink:href="#block"/><use x="348.48484848485" y="166.66666666667" xlink:href="#block"/><use x="363.63636363636" y="166.66666666667" xlink:href="#block"/><use x="393.93939393939" y="166.66666666667" xlink:href="#block"/><use x="409.09090909091" y="166.66666666667" xlink:href="#block"/><use x="424.24242424242" y="166.66666666667" xlink:href="#block"/><use x="454.54545454545" y="166.66666666667" xlink:href="#block"/><use x="469.69696969697" y="166.66666666667" xlink:href="#block"/><use x="484.84848484848" y="166.66666666667" xlink:href="#block"/><use x="0" y="181.81818181818" xlink:href="#block"/><use x="15.151515151515" y="181.81818181818" xlink:href="#block"/><use x="30.30303030303" y="181.81818181818" xlink:href="#block"/><use x="90.909090909091" y="181.81818181818" xlink:href="#block"/><use x="166.66666666667" y="181.81818181818" xlink:href="#block"/><use x="181.81818181818" y="181.81818181818" xlink:href="#block"/><use x="196.9696969697" y="181.81818181818" xlink:href="#block"/><use x="227.27272727273" y="181.81818181818" xlink:href="#block"/><use x="242.42424242424" y="181.81818181818" xlink:href="#block"/><use x="318.18181818182" y="181.81818181818" xlink:href="#block"/><use x="378.78787878788" y="181.81818181818" xlink:href="#block"/><use x="0" y="196.9696969697" xlink:href="#block"/><use x="75.757575757576" y="196.9696969697" xlink:href="#block"/><use x="106.06060606061" y="196.9696969697" xlink:href="#block"/><use x="166.66666666667" y="196.9696969697" xlink:href="#block"/><use x="181.81818181818" y="196.9696969697" xlink:href="#block"/><use x="257.57575757576" y="196.9696969697" xlink:href="#block"/><use x="272.72727272727" y="196.9696969697" xlink:href="#block"/><use x="303.0303030303" y="196.9696969697" xlink:href="#block"/><use x="333.33333333333" y="196.9696969697" xlink:href="#block"/><use x="348.48484848485" y="196.9696969697" xlink:href="#block"/><use x="393.93939393939" y="196.9696969697" xlink:href="#block"/><use x="439.39393939394" y="196.9696969697" xlink:href="#block"/><use x="484.84848484848" y="196.9696969697" xlink:href="#block"/><use x="0" y="212.12121212121" xlink:href="#block"/><use x="15.151515151515" y="212.12121212121" xlink:href="#block"/><use x="30.30303030303" y="212.12121212121" xlink:href="#block"/><use x="75.757575757576" y="212.12121212121" xlink:href="#block"/><use x="90.909090909091" y="212.12121212121" xlink:href="#block"/><use x="136.36363636364" y="212.12121212121" xlink:href="#block"/><use x="151.51515151515" y="212.12121212121" xlink:href="#block"/><use x="212.12121212121" y="212.12121212121" xlink:href="#block"/><use x="227.27272727273" y="212.12121212121" xlink:href="#block"/><use x="272.72727272727" y="212.12121212121" xlink:href="#block"/><use x="303.0303030303" y="212.12121212121" xlink:href="#block"/><use x="318.18181818182" y="212.12121212121" xlink:href="#block"/><use x="333.33333333333" y="212.12121212121" xlink:href="#block"/><use x="348.48484848485" y="212.12121212121" xlink:href="#block"/><use x="363.63636363636" y="212.12121212121" xlink:href="#block"/><use x="409.09090909091" y="212.12121212121" xlink:href="#block"/><use x="424.24242424242" y="212.12121212121" xlink:href="#block"/><use x="45.454545454545" y="227.27272727273" xlink:href="#block"/><use x="75.757575757576" y="227.27272727273" xlink:href="#block"/><use x="106.06060606061" y="227.27272727273" xlink:href="#block"/><use x="121.21212121212" y="227.27272727273" xlink:href="#block"/><use x="136.36363636364" y="227.27272727273" xlink:href="#block"/><use x="166.66666666667" y="227.27272727273" xlink:href="#block"/><use x="181.81818181818" y="227.27272727273" xlink:href="#block"/><use x="196.9696969697" y="227.27272727273" xlink:href="#block"/><use x="212.12121212121" y="227.27272727273" xlink:href="#block"/><use x="287.87878787879" y="227.27272727273" xlink:href="#block"/><use x="333.33333333333" y="227.27272727273" xlink:href="#block"/><use x="348.48484848485" y="227.27272727273" xlink:href="#block"/><use x="393.93939393939" y="227.27272727273" xlink:href="#block"/><use x="409.09090909091" y="227.27272727273" xlink:href="#block"/><use x="454.54545454545" y="227.27272727273" xlink:href="#block"/><use x="484.84848484848" y="227.27272727273" xlink:href="#block"/><use x="60.606060606061" y="242.42424242424" xlink:href="#block"/><use x="90.909090909091" y="242.42424242424" xlink:href="#block"/><use x="106.06060606061" y="242.42424242424" xlink:href="#block"/><use x="121.21212121212" y="242.42424242424" xlink:href="#block"/><use x="136.36363636364" y="242.42424242424" xlink:href="#block"/><use x="166.66666666667" y="242.42424242424" xlink:href="#block"/><use x="181.81818181818" y="242.42424242424" xlink:href="#block"/><use x="227.27272727273" y="242.42424242424" xlink:href="#block"/><use x="257.57575757576" y="242.42424242424" xlink:href="#block"/><use x="287.87878787879" y="242.42424242424" xlink:href="#block"/><use x="303.0303030303" y="242.42424242424" xlink:href="#block"/><use x="318.18181818182" y="242.42424242424" xlink:href="#block"/><use x="348.48484848485" y="242.42424242424" xlink:href="#block"/><use x="393.93939393939" y="242.42424242424" xlink:href="#block"/><use x="409.09090909091" y="242.42424242424" xlink:href="#block"/><use x="424.24242424242" y="242.42424242424" xlink:href="#block"/><use x="439.39393939394" y="242.42424242424" xlink:href="#block"/><use x="45.454545454545" y="257.57575757576" xlink:href="#block"/><use x="60.606060606061" y="257.57575757576" xlink:href="#block"/><use x="106.06060606061" y="257.57575757576" xlink:href="#block"/><use x="121.21212121212" y="257.57575757576" xlink:href="#block"/><use x="181.81818181818" y="257.57575757576" xlink:href="#block"/><use x="196.9696969697" y="257.57575757576" xlink:href="#block"/><use x="212.12121212121" y="257.57575757576" xlink:href="#block"/><use x="272.72727272727" y="257.57575757576" xlink:href="#block"/><use x="287.87878787879" y="257.57575757576" xlink:href="#block"/><use x="303.0303030303" y="257.57575757576" xlink:href="#block"/><use x="333.33333333333" y="257.57575757576" xlink:href="#block"/><use x="424.24242424242" y="257.57575757576" xlink:href="#block"/><use x="484.84848484848" y="257.57575757576" xlink:href="#block"/><use x="45.454545454545" y="272.72727272727" xlink:href="#block"/><use x="90.909090909091" y="272.72727272727" xlink:href="#block"/><use x="136.36363636364" y="272.72727272727" xlink:href="#block"/><use x="272.72727272727" y="272.72727272727" xlink:href="#block"/><use x="287.87878787879" y="272.72727272727" xlink:href="#block"/><use x="378.78787878788" y="272.72727272727" xlink:href="#block"/><use x="393.93939393939" y="272.72727272727" xlink:href="#block"/><use x="409.09090909091" y="272.72727272727" xlink:href="#block"/><use x="424.24242424242" y="272.72727272727" xlink:href="#block"/><use x="439.39393939394" y="272.72727272727" xlink:href="#block"/><use x="454.54545454545" y="272.72727272727" xlink:href="#block"/><use x="469.69696969697" y="272.72727272727" xlink:href="#block"/><use x="0" y="287.87878787879" xlink:href="#block"/><use x="45.454545454545" y="287.87878787879" xlink:href="#block"/><use x="75.757575757576" y="287.87878787879" xlink:href="#block"/><use x="136.36363636364" y="287.87878787879" xlink:href="#block"/><use x="166.66666666667" y="287.87878787879" xlink:href="#block"/><use x="181.81818181818" y="287.87878787879" xlink:href="#block"/><use x="196.9696969697" y="287.87878787879" xlink:href="#block"/><use x="227.27272727273" y="287.87878787879" xlink:href="#block"/><use x="242.42424242424" y="287.87878787879" xlink:href="#block"/><use x="257.57575757576" y="287.87878787879" xlink:href="#block"/><use x="303.0303030303" y="287.87878787879" xlink:href="#block"/><use x="318.18181818182" y="287.87878787879" xlink:href="#block"/><use x="363.63636363636" y="287.87878787879" xlink:href="#block"/><use x="409.09090909091" y="287.87878787879" xlink:href="#block"/><use x="439.39393939394" y="287.87878787879" xlink:href="#block"/><use x="454.54545454545" y="287.87878787879" xlink:href="#block"/><use x="0" y="303.0303030303" xlink:href="#block"/><use x="60.606060606061" y="303.0303030303" xlink:href="#block"/><use x="90.909090909091" y="303.0303030303" xlink:href="#block"/><use x="106.06060606061" y="303.0303030303" xlink:href="#block"/><use x="121.21212121212" y="303.0303030303" xlink:href="#block"/><use x="166.66666666667" y="303.0303030303" xlink:href="#block"/><use x="181.81818181818" y="303.0303030303" xlink:href="#block"/><use x="227.27272727273" y="303.0303030303" xlink:href="#block"/><use x="272.72727272727" y="303.0303030303" xlink:href="#block"/><use x="303.0303030303" y="303.0303030303" xlink:href="#block"/><use x="318.18181818182" y="303.0303030303" xlink:href="#block"/><use x="363.63636363636" y="303.0303030303" xlink:href="#block"/><use x="393.93939393939" y="303.0303030303" xlink:href="#block"/><use x="439.39393939394" y="303.0303030303" xlink:href="#block"/><use x="0" y="318.18181818182" xlink:href="#block"/><use x="15.151515151515" y="318.18181818182" xlink:href="#block"/><use x="30.30303030303" y="318.18181818182" xlink:href="#block"/><use x="75.757575757576" y="318.18181818182" xlink:href="#block"/><use x="106.06060606061" y="318.18181818182" xlink:href="#block"/><use x="166.66666666667" y="318.18181818182" xlink:href="#block"/><use x="181.81818181818" y="318.18181818182" xlink:href="#block"/><use x="212.12121212121" y="318.18181818182" xlink:href="#block"/><use x="287.87878787879" y="318.18181818182" xlink:href="#block"/><use x="303.0303030303" y="318.18181818182" xlink:href="#block"/><use x="318.18181818182" y="318.18181818182" xlink:href="#block"/><use x="363.63636363636" y="318.18181818182" xlink:href="#block"/><use x="424.24242424242" y="318.18181818182" xlink:href="#block"/><use x="439.39393939394" y="318.18181818182" xlink:href="#block"/><use x="454.54545454545" y="318.18181818182" xlink:href="#block"/><use x="469.69696969697" y="318.18181818182" xlink:href="#block"/><use x="484.84848484848" y="318.18181818182" xlink:href="#block"/><use x="30.30303030303" y="333.33333333333" xlink:href="#block"/><use x="45.454545454545" y="333.33333333333" xlink:href="#block"/><use x="60.606060606061" y="333.33333333333" xlink:href="#block"/><use x="90.909090909091" y="333.33333333333" xlink:href="#block"/><use x="121.21212121212" y="333.33333333333" xlink:href="#block"/><use x="136.36363636364" y="333.33333333333" xlink:href="#block"/><use x="151.51515151515" y="333.33333333333" xlink:href="#block"/><use x="166.66666666667" y="333.33333333333" xlink:href="#block"/><use x="181.81818181818" y="333.33333333333" xlink:href="#block"/><use x="212.12121212121" y="333.33333333333" xlink:href="#block"/><use x="227.27272727273" y="333.33333333333" xlink:href="#block"/><use x="242.42424242424" y="333.33333333333" xlink:href="#block"/><use x="257.57575757576" y="333.33333333333" xlink:href="#block"/><use x="272.72727272727" y="333.33333333333" xlink:href="#block"/><use x="287.87878787879" y="333.33333333333" xlink:href="#block"/><use x="303.0303030303" y="333.33333333333" xlink:href="#block"/><use x="318.18181818182" y="333.33333333333" xlink:href="#block"/><use x="333.33333333333" y="333.33333333333" xlink:href="#block"/><use x="348.48484848485" y="333.33333333333" xlink:href="#block"/><use x="363.63636363636" y="333.33333333333" xlink:href="#block"/><use x="378.78787878788" y="333.33333333333" xlink:href="#block"/><use x="393.93939393939" y="333.33333333333" xlink:href="#block"/><use x="424.24242424242" y="333.33333333333" xlink:href="#block"/><use x="439.39393939394" y="333.33333333333" xlink:href="#block"/><use x="454.54545454545" y="333.33333333333" xlink:href="#block"/><use x="15.151515151515" y="348.48484848485" xlink:href="#block"/><use x="45.454545454545" y="348.48484848485" xlink:href="#block"/><use x="75.757575757576" y="348.48484848485" xlink:href="#block"/><use x="106.06060606061" y="348.48484848485" xlink:href="#block"/><use x="121.21212121212" y="348.48484848485" xlink:href="#block"/><use x="151.51515151515" y="348.48484848485" xlink:href="#block"/><use x="196.9696969697" y="348.48484848485" xlink:href="#block"/><use x="227.27272727273" y="348.48484848485" xlink:href="#block"/><use x="272.72727272727" y="348.48484848485" xlink:href="#block"/><use x="287.87878787879" y="348.48484848485" xlink:href="#block"/><use x="318.18181818182" y="348.48484848485" xlink:href="#block"/><use x="333.33333333333" y="348.48484848485" xlink:href="#block"/><use x="393.93939393939" y="348.48484848485" xlink:href="#block"/><use x="409.09090909091" y="348.48484848485" xlink:href="#block"/><use x="424.24242424242" y="348.48484848485" xlink:href="#block"/><use x="439.39393939394" y="348.48484848485" xlink:href="#block"/><use x="469.69696969697" y="348.48484848485" xlink:href="#block"/><use x="484.84848484848" y="348.48484848485" xlink:href="#block"/><use x="0" y="363.63636363636" xlink:href="#block"/><use x="75.757575757576" y="363.63636363636" xlink:href="#block"/><use x="90.909090909091" y="363.63636363636" xlink:href="#block"/><use x="121.21212121212" y="363.63636363636" xlink:href="#block"/><use x="136.36363636364" y="363.63636363636" xlink:href="#block"/><use x="151.51515151515" y="363.63636363636" xlink:href="#block"/><use x="181.81818181818" y="363.63636363636" xlink:href="#block"/><use x="227.27272727273" y="363.63636363636" xlink:href="#block"/><use x="242.42424242424" y="363.63636363636" xlink:href="#block"/><use x="257.57575757576" y="363.63636363636" xlink:href="#block"/><use x="272.72727272727" y="363.63636363636" xlink:href="#block"/><use x="287.87878787879" y="363.63636363636" xlink:href="#block"/><use x="303.0303030303" y="363.63636363636" xlink:href="#block"/><use x="333.33333333333" y="363.63636363636" xlink:href="#block"/><use x="363.63636363636" y="363.63636363636" xlink:href="#block"/><use x="378.78787878788" y="363.63636363636" xlink:href="#block"/><use x="393.93939393939" y="363.63636363636" xlink:href="#block"/><use x="409.09090909091" y="363.63636363636" xlink:href="#block"/><use x="424.24242424242" y="363.63636363636" xlink:href="#block"/><use x="439.39393939394" y="363.63636363636" xlink:href="#block"/><use x="454.54545454545" y="363.63636363636" xlink:href="#block"/><use x="469.69696969697" y="363.63636363636" xlink:href="#block"/><use x="121.21212121212" y="378.78787878788" xlink:href="#block"/><use x="151.51515151515" y="378.78787878788" xlink:href="#block"/><use x="166.66666666667" y="378.78787878788" xlink:href="#block"/><use x="196.9696969697" y="378.78787878788" xlink:href="#block"/><use x="227.27272727273" y="378.78787878788" xlink:href="#block"/><use x="242.42424242424" y="378.78787878788" xlink:href="#block"/><use x="257.57575757576" y="378.78787878788" xlink:href="#block"/><use x="272.72727272727" y="378.78787878788" xlink:href="#block"/><use x="318.18181818182" y="378.78787878788" xlink:href="#block"/><use x="333.33333333333" y="378.78787878788" xlink:href="#block"/><use x="348.48484848485" y="378.78787878788" xlink:href="#block"/><use x="363.63636363636" y="378.78787878788" xlink:href="#block"/><use x="424.24242424242" y="378.78787878788" xlink:href="#block"/><use x="439.39393939394" y="378.78787878788" xlink:href="#block"/><use x="469.69696969697" y="378.78787878788" xlink:href="#block"/><use x="0" y="393.93939393939" xlink:href="#block"/><use x="15.151515151515" y="393.93939393939" xlink:href="#block"/><use x="30.30303030303" y="393.93939393939" xlink:href="#block"/><use x="45.454545454545" y="393.93939393939" xlink:href="#block"/><use x="60.606060606061" y="393.93939393939" xlink:href="#block"/><use x="75.757575757576" y="393.93939393939" xlink:href="#block"/><use x="90.909090909091" y="393.93939393939" xlink:href="#block"/><use x="121.21212121212" y="393.93939393939" xlink:href="#block"/><use x="136.36363636364" y="393.93939393939" xlink:href="#block"/><use x="181.81818181818" y="393.93939393939" xlink:href="#block"/><use x="196.9696969697" y="393.93939393939" xlink:href="#block"/><use x="242.42424242424" y="393.93939393939" xlink:href="#block"/><use x="257.57575757576" y="393.93939393939" xlink:href="#block"/><use x="272.72727272727" y="393.93939393939" xlink:href="#block"/><use x="287.87878787879" y="393.93939393939" xlink:href="#block"/><use x="303.0303030303" y="393.93939393939" xlink:href="#block"/><use x="318.18181818182" y="393.93939393939" xlink:href="#block"/><use x="363.63636363636" y="393.93939393939" xlink:href="#block"/><use x="393.93939393939" y="393.93939393939" xlink:href="#block"/><use x="424.24242424242" y="393.93939393939" xlink:href="#block"/><use x="454.54545454545" y="393.93939393939" xlink:href="#block"/><use x="484.84848484848" y="393.93939393939" xlink:href="#block"/><use x="0" y="409.09090909091" xlink:href="#block"/><use x="90.909090909091" y="409.09090909091" xlink:href="#block"/><use x="136.36363636364" y="409.09090909091" xlink:href="#block"/><use x="151.51515151515" y="409.09090909091" xlink:href="#block"/><use x="166.66666666667" y="409.09090909091" xlink:href="#block"/><use x="181.81818181818" y="409.09090909091" xlink:href="#block"/><use x="196.9696969697" y="409.09090909091" xlink:href="#block"/><use x="212.12121212121" y="409.09090909091" xlink:href="#block"/><use x="242.42424242424" y="409.09090909091" xlink:href="#block"/><use x="257.57575757576" y="409.09090909091" xlink:href="#block"/><use x="303.0303030303" y="409.09090909091" xlink:href="#block"/><use x="348.48484848485" y="409.09090909091" xlink:href="#block"/><use x="363.63636363636" y="409.09090909091" xlink:href="#block"/><use x="424.24242424242" y="409.09090909091" xlink:href="#block"/><use x="439.39393939394" y="409.09090909091" xlink:href="#block"/><use x="484.84848484848" y="409.09090909091" xlink:href="#block"/><use x="0" y="424.24242424242" xlink:href="#block"/><use x="30.30303030303" y="424.24242424242" xlink:href="#block"/><use x="45.454545454545" y="424.24242424242" xlink:href="#block"/><use x="60.606060606061" y="424.24242424242" xlink:href="#block"/><use x="90.909090909091" y="424.24242424242" xlink:href="#block"/><use x="136.36363636364" y="424.24242424242" xlink:href="#block"/><use x="181.81818181818" y="424.24242424242" xlink:href="#block"/><use x="227.27272727273" y="424.24242424242" xlink:href="#block"/><use x="303.0303030303" y="424.24242424242" xlink:href="#block"/><use x="333.33333333333" y="424.24242424242" xlink:href="#block"/><use x="348.48484848485" y="424.24242424242" xlink:href="#block"/><use x="363.63636363636" y="424.24242424242" xlink:href="#block"/><use x="378.78787878788" y="424.24242424242" xlink:href="#block"/><use x="393.93939393939" y="424.24242424242" xlink:href="#block"/><use x="409.09090909091" y="424.24242424242" xlink:href="#block"/><use x="424.24242424242" y="424.24242424242" xlink:href="#block"/><use x="454.54545454545" y="424.24242424242" xlink:href="#block"/><use x="484.84848484848" y="424.24242424242" xlink:href="#block"/><use x="0" y="439.39393939394" xlink:href="#block"/><use x="30.30303030303" y="439.39393939394" xlink:href="#block"/><use x="45.454545454545" y="439.39393939394" xlink:href="#block"/><use x="60.606060606061" y="439.39393939394" xlink:href="#block"/><use x="90.909090909091" y="439.39393939394" xlink:href="#block"/><use x="121.21212121212" y="439.39393939394" xlink:href="#block"/><use x="136.36363636364" y="439.39393939394" xlink:href="#block"/><use x="151.51515151515" y="439.39393939394" xlink:href="#block"/><use x="196.9696969697" y="439.39393939394" xlink:href="#block"/><use x="212.12121212121" y="439.39393939394" xlink:href="#block"/><use x="242.42424242424" y="439.39393939394" xlink:href="#block"/><use x="333.33333333333" y="439.39393939394" xlink:href="#block"/><use x="348.48484848485" y="439.39393939394" xlink:href="#block"/><use x="363.63636363636" y="439.39393939394" xlink:href="#block"/><use x="424.24242424242" y="439.39393939394" xlink:href="#block"/><use x="439.39393939394" y="439.39393939394" xlink:href="#block"/><use x="454.54545454545" y="439.39393939394" xlink:href="#block"/><use x="0" y="454.54545454545" xlink:href="#block"/><use x="30.30303030303" y="454.54545454545" xlink:href="#block"/><use x="45.454545454545" y="454.54545454545" xlink:href="#block"/><use x="60.606060606061" y="454.54545454545" xlink:href="#block"/><use x="90.909090909091" y="454.54545454545" xlink:href="#block"/><use x="121.21212121212" y="454.54545454545" xlink:href="#block"/><use x="136.36363636364" y="454.54545454545" xlink:href="#block"/><use x="151.51515151515" y="454.54545454545" xlink:href="#block"/><use x="181.81818181818" y="454.54545454545" xlink:href="#block"/><use x="196.9696969697" y="454.54545454545" xlink:href="#block"/><use x="212.12121212121" y="454.54545454545" xlink:href="#block"/><use x="272.72727272727" y="454.54545454545" xlink:href="#block"/><use x="287.87878787879" y="454.54545454545" xlink:href="#block"/><use x="333.33333333333" y="454.54545454545" xlink:href="#block"/><use x="348.48484848485" y="454.54545454545" xlink:href="#block"/><use x="363.63636363636" y="454.54545454545" xlink:href="#block"/><use x="409.09090909091" y="454.54545454545" xlink:href="#block"/><use x="424.24242424242" y="454.54545454545" xlink:href="#block"/><use x="0" y="469.69696969697" xlink:href="#block"/><use x="90.909090909091" y="469.69696969697" xlink:href="#block"/><use x="136.36363636364" y="469.69696969697" xlink:href="#block"/><use x="151.51515151515" y="469.69696969697" xlink:href="#block"/><use x="212.12121212121" y="469.69696969697" xlink:href="#block"/><use x="242.42424242424" y="469.69696969697" xlink:href="#block"/><use x="257.57575757576" y="469.69696969697" xlink:href="#block"/><use x="272.72727272727" y="469.69696969697" xlink:href="#block"/><use x="287.87878787879" y="469.69696969697" xlink:href="#block"/><use x="318.18181818182" y="469.69696969697" xlink:href="#block"/><use x="333.33333333333" y="469.69696969697" xlink:href="#block"/><use x="348.48484848485" y="469.69696969697" xlink:href="#block"/><use x="363.63636363636" y="469.69696969697" xlink:href="#block"/><use x="378.78787878788" y="469.69696969697" xlink:href="#block"/><use x="393.93939393939" y="469.69696969697" xlink:href="#block"/><use x="424.24242424242" y="469.69696969697" xlink:href="#block"/><use x="454.54545454545" y="469.69696969697" xlink:href="#block"/><use x="469.69696969697" y="469.69696969697" xlink:href="#block"/><use x="0" y="484.84848484848" xlink:href="#block"/><use x="15.151515151515" y="484.84848484848" xlink:href="#block"/><use x="30.30303030303" y="484.84848484848" xlink:href="#block"/><use x="45.454545454545" y="484.84848484848" xlink:href="#block"/><use x="60.606060606061" y="484.84848484848" xlink:href="#block"/><use x="75.757575757576" y="484.84848484848" xlink:href="#block"/><use x="90.909090909091" y="484.84848484848" xlink:href="#block"/><use x="136.36363636364" y="484.84848484848" xlink:href="#block"/><use x="151.51515151515" y="484.84848484848" xlink:href="#block"/><use x="181.81818181818" y="484.84848484848" xlink:href="#block"/><use x="196.9696969697" y="484.84848484848" xlink:href="#block"/><use x="212.12121212121" y="484.84848484848" xlink:href="#block"/><use x="227.27272727273" y="484.84848484848" xlink:href="#block"/><use x="242.42424242424" y="484.84848484848" xlink:href="#block"/><use x="257.57575757576" y="484.84848484848" xlink:href="#block"/><use x="272.72727272727" y="484.84848484848" xlink:href="#block"/><use x="287.87878787879" y="484.84848484848" xlink:href="#block"/><use x="303.0303030303" y="484.84848484848" xlink:href="#block"/><use x="318.18181818182" y="484.84848484848" xlink:href="#block"/><use x="393.93939393939" y="484.84848484848" xlink:href="#block"/><use x="409.09090909091" y="484.84848484848" xlink:href="#block"/><use x="424.24242424242" y="484.84848484848" xlink:href="#block"/></svg>
