<svg width="18" height="20" viewBox="0 0 18 20" fill="none" xmlns="http://www.w3.org/2000/svg">
<path d="M0 3.46165C0 3.64524 0.072941 3.82125 0.202746 3.95121C0.33255 4.08102 0.50872 4.15396 0.692302 4.15396H0.962732L1.74543 17.4572L1.74558 17.4571C1.78406 18.1032 2.06778 18.7102 2.53865 19.1541C3.00951 19.5981 3.63213 19.8455 4.27929 19.846H13.7207C14.3679 19.8455 14.9905 19.5981 15.4614 19.1541C15.9322 18.7102 16.2159 18.1032 16.2544 17.4571L17.0373 4.1538H17.3077C17.5551 4.1538 17.7837 4.02183 17.9073 3.80765C18.0309 3.59347 18.0309 3.32953 17.9073 3.11535C17.7837 2.90117 17.5551 2.7692 17.3077 2.7692H14.1148L13.5609 1.10767C13.4548 0.785166 13.2495 0.50438 12.9743 0.305512C12.6991 0.106631 12.3683 -0.000307901 12.0288 6.68139e-07H5.97329C5.63379 -0.000308415 5.30295 0.106627 5.02773 0.305512C4.75251 0.504392 4.54727 0.785178 4.44113 1.10767L3.88729 2.7692H0.692488C0.508906 2.7692 0.332737 2.84214 0.202932 2.97194C0.0731272 3.10175 0.000186223 3.27776 0.000186223 3.4615L0 3.46165ZM5.75363 1.54251C5.78561 1.4484 5.87385 1.38489 5.97322 1.38474H12.0267C12.1261 1.38489 12.2143 1.4484 12.2463 1.54251L12.6542 2.76935H5.34551L5.75363 1.54251ZM4.38465 4.15396H15.6462L14.868 17.375C14.8504 17.6686 14.7215 17.9445 14.5073 18.1464C14.2933 18.3484 14.0104 18.461 13.7161 18.4613H4.27945C3.98538 18.461 3.70258 18.3485 3.48856 18.1468C3.27454 17.945 3.14535 17.6693 3.12758 17.3759L2.35398 4.15371L4.38465 4.15396Z" fill="#DC4949"/>
<path d="M6.6923 14.3083C6.87589 14.3083 7.0519 14.2353 7.18186 14.1055C7.31166 13.9757 7.3846 13.7997 7.3846 13.616V9.00089C7.3846 8.75348 7.25264 8.52494 7.03845 8.40131C6.82427 8.27769 6.56033 8.27769 6.34615 8.40131C6.13197 8.52494 6 8.75349 6 9.00089V13.6164V13.6162C6 13.7999 6.07294 13.976 6.20275 14.1058C6.33255 14.2356 6.50857 14.3085 6.6923 14.3085V14.3083Z" fill="#DC4949"/>
<path d="M11.3075 14.3083C11.4913 14.3083 11.6673 14.2353 11.7971 14.1055C11.9269 13.9757 11.9998 13.7997 11.9998 13.616V9.00089C11.9998 8.75348 11.8679 8.52494 11.6537 8.40131C11.4395 8.27769 11.1756 8.27769 10.9614 8.40131C10.7472 8.52494 10.6152 8.75349 10.6152 9.00089V13.6164V13.6162C10.6152 13.7999 10.6882 13.976 10.818 14.1058C10.9479 14.2356 11.124 14.3085 11.3075 14.3085V14.3083Z" fill="#DC4949"/>
</svg>
