<svg width="21" height="21" viewBox="0 0 21 21" fill="none" xmlns="http://www.w3.org/2000/svg">
<path fill-rule="evenodd" clip-rule="evenodd" d="M14.009 5.73098V5.09419C14.009 2.98405 12.2984 1.27344 10.1883 1.27344C8.07813 1.27344 6.36752 2.98405 6.36752 5.09419V5.73098H4.68027C3.86556 5.73098 3.18232 6.34608 3.09704 7.15631L2.02454 17.345C1.9256 18.285 2.66262 19.1036 3.60778 19.1036H16.7688C17.7139 19.1036 18.451 18.285 18.352 17.345L17.2795 7.15631C17.1942 6.34608 16.511 5.73098 15.6963 5.73098H14.009ZM10.1883 2.54702C8.78151 2.54702 7.64111 3.68743 7.64111 5.09419V5.73098H12.7354V5.09419C12.7354 3.68743 11.595 2.54702 10.1883 2.54702ZM12.7354 7.00457H7.64111V8.20298C7.83652 8.37788 7.9595 8.63205 7.9595 8.91495C7.9595 9.44248 7.53185 9.87014 7.00431 9.87014C6.47678 9.87014 6.04912 9.44248 6.04912 8.91495C6.04912 8.63205 6.1721 8.37788 6.36752 8.20298V7.00457H4.68027C4.51733 7.00457 4.38068 7.12759 4.36362 7.28963L3.29113 17.4783C3.27134 17.6663 3.41874 17.83 3.60778 17.83H16.7688C16.9578 17.83 17.1052 17.6663 17.0854 17.4783L16.0129 7.28963C15.9959 7.12759 15.8592 7.00457 15.6963 7.00457H14.009V8.20298C14.2044 8.37788 14.3274 8.63205 14.3274 8.91495C14.3274 9.44248 13.8998 9.87014 13.3722 9.87014C12.8447 9.87014 12.417 9.44248 12.417 8.91495C12.417 8.63205 12.54 8.37788 12.7354 8.20298V7.00457Z" fill="white"/>
</svg>
