<svg width="20" height="20" viewBox="0 0 20 20" fill="none" xmlns="http://www.w3.org/2000/svg">
<path fill-rule="evenodd" clip-rule="evenodd" d="M2.5 5C2.5 3.61929 3.61929 2.5 5 2.5H6.875C8.25571 2.5 9.375 3.61929 9.375 5V6.875C9.375 8.25571 8.25571 9.375 6.875 9.375H5C3.61929 9.375 2.5 8.25571 2.5 6.875V5ZM5 3.75C4.30964 3.75 3.75 4.30964 3.75 5V6.875C3.75 7.56536 4.30964 8.125 5 8.125H6.875C7.56536 8.125 8.125 7.56536 8.125 6.875V5C8.125 4.30964 7.56536 3.75 6.875 3.75H5ZM10.625 5C10.625 3.61929 11.7443 2.5 13.125 2.5H15C16.3807 2.5 17.5 3.61929 17.5 5V6.875C17.5 8.25571 16.3807 9.375 15 9.375H13.125C11.7443 9.375 10.625 8.25571 10.625 6.875V5ZM13.125 3.75C12.4346 3.75 11.875 4.30964 11.875 5V6.875C11.875 7.56536 12.4346 8.125 13.125 8.125H15C15.6904 8.125 16.25 7.56536 16.25 6.875V5C16.25 4.30964 15.6904 3.75 15 3.75H13.125ZM2.5 13.125C2.5 11.7443 3.61929 10.625 5 10.625H6.875C8.25571 10.625 9.375 11.7443 9.375 13.125V15C9.375 16.3807 8.25571 17.5 6.875 17.5H5C3.61929 17.5 2.5 16.3807 2.5 15V13.125ZM5 11.875C4.30964 11.875 3.75 12.4346 3.75 13.125V15C3.75 15.6904 4.30964 16.25 5 16.25H6.875C7.56536 16.25 8.125 15.6904 8.125 15V13.125C8.125 12.4346 7.56536 11.875 6.875 11.875H5ZM10.625 13.125C10.625 11.7443 11.7443 10.625 13.125 10.625H15C16.3807 10.625 17.5 11.7443 17.5 13.125V15C17.5 16.3807 16.3807 17.5 15 17.5H13.125C11.7443 17.5 10.625 16.3807 10.625 15V13.125ZM13.125 11.875C12.4346 11.875 11.875 12.4346 11.875 13.125V15C11.875 15.6904 12.4346 16.25 13.125 16.25H15C15.6904 16.25 16.25 15.6904 16.25 15V13.125C16.25 12.4346 15.6904 11.875 15 11.875H13.125Z" fill="black"/>
</svg>
