<svg width="70" height="14" viewBox="0 0 70 14" fill="none" xmlns="http://www.w3.org/2000/svg">
<path d="M10.5547 2.22656L10.5312 3.78906V3.89062C10.4531 4.41146 9.88281 5.25 8.82031 6.40625L8.21875 7.0625C7.54688 7.85417 7.0026 8.50521 6.58594 9.01562L5.69531 10.1016H6.10938L10.6406 10.0391C10.7188 10.0391 10.7578 10.5026 10.7578 11.4297V12.3047L10.7734 12.8125C10.7734 12.9792 10.7396 13.0833 10.6719 13.125C10.6094 13.1719 10.4948 13.1953 10.3281 13.1953H10.125L0.757812 13.2734C0.611979 13.2734 0.502604 13.2578 0.429688 13.2266C0.356771 13.1953 0.28125 13.1224 0.203125 13.0078C0.203125 11.5859 0.184896 10.7005 0.148438 10.3516L0.273438 10.25L1.375 8.91406C2.98958 6.89323 4.24219 5.34896 5.13281 4.28125L2.82812 4.30469L2.25 4.32031C1.68229 4.33594 1.11198 4.34375 0.539062 4.34375C0.481771 4.3125 0.455729 4.23438 0.460938 4.10938C0.471354 3.98438 0.471354 3.88542 0.460938 3.8125V3.66406L0.46875 3.60156V3.14062L0.398438 1.35156L0.40625 1.30469C0.416667 1.30469 0.440104 1.3151 0.476562 1.33594C0.611979 1.33594 1.1224 1.33594 2.00781 1.33594C2.89844 1.33594 5.01562 1.3099 8.35938 1.25781L10.0547 1.23438C10.2318 1.23958 10.362 1.27344 10.4453 1.33594C10.5286 1.39323 10.5703 1.51823 10.5703 1.71094L10.5547 2.14844V2.22656Z" fill="black"/>
<path d="M12.1909 12.1641C12.1909 11.1068 12.2196 10.3724 12.2769 9.96094C12.2769 7.69531 12.3081 5.41146 12.3706 3.10938C12.355 2.78125 12.3472 2.45052 12.3472 2.11719V1.85938C12.3264 1.69792 12.3159 1.55469 12.3159 1.42969C12.3159 1.30469 12.329 1.22396 12.355 1.1875C13.4696 1.25521 14.4461 1.28906 15.2847 1.28906C16.1232 1.28906 16.6987 1.27344 17.0112 1.24219C17.0217 1.25781 17.0295 1.30208 17.0347 1.375H16.98V4.20312L17.0347 10.5625C17.0347 10.6094 17.0425 10.6484 17.0581 10.6797V10.6953C17.0737 10.7266 17.0816 10.7604 17.0816 10.7969L17.1441 13.0703C17.118 13.1276 17.0711 13.1719 17.0034 13.2031H16.7378L12.3628 13.2734C12.3107 13.2474 12.243 13.2083 12.1597 13.1562L12.1675 13.0234L12.1909 12.1641Z" fill="black"/>
<path d="M31.0459 12.5469C31.0459 12.5521 31.0485 12.5625 31.0537 12.5781L31.0303 12.6406H31.0381V12.6562C31.0381 12.6667 31.0355 12.6745 31.0303 12.6797C30.7855 12.8672 30.1866 13.0391 29.2334 13.1953C28.2855 13.3516 27.6319 13.4297 27.2725 13.4297C26.9183 13.4297 26.7204 13.4271 26.6787 13.4219L26.2803 13.4453C25.8636 13.4714 25.6241 13.4844 25.5616 13.4844C23.3741 13.4844 21.7074 12.9349 20.5616 11.8359C19.4209 10.737 18.8506 9.17708 18.8506 7.15625C18.8506 5.13021 19.4652 3.59375 20.6944 2.54688C21.9287 1.5 23.598 0.976562 25.7022 0.976562C26.0876 0.976562 26.5616 1.01302 27.1241 1.08594C27.6918 1.15885 28.1892 1.26562 28.6162 1.40625C29.1371 1.61979 29.5824 1.92969 29.9522 2.33594C30.3272 2.73698 30.572 3.18229 30.6866 3.67188C30.7074 3.80729 30.7308 4.02083 30.7569 4.3125C30.7881 4.59896 30.8142 4.8099 30.835 4.94531C30.8037 5.02344 30.6918 5.0625 30.4991 5.0625L26.5303 4.99219C26.5095 4.98177 26.4834 4.91146 26.4522 4.78125V4.80469C26.3584 4.38281 26.1735 4.125 25.8975 4.03125C25.7725 3.98438 25.6084 3.96094 25.4053 3.96094C25.2022 3.96094 25.0095 3.99479 24.8272 4.0625C24.6501 4.13021 24.5017 4.22396 24.3819 4.34375C24.2621 4.46354 24.1553 4.60417 24.0616 4.76562C23.9678 4.92188 23.8975 5.09115 23.8506 5.27344C23.8037 5.45573 23.7621 5.64323 23.7256 5.83594C23.6892 6.02865 23.6657 6.21875 23.6553 6.40625C23.6501 6.59375 23.6423 6.77344 23.6319 6.94531C23.6267 7.11719 23.6267 7.26042 23.6319 7.375C23.6371 7.48438 23.6397 7.55729 23.6397 7.59375V8.13281C23.6397 8.47135 23.6553 8.70833 23.6866 8.84375C23.7178 8.97396 23.7543 9.11979 23.7959 9.28125C23.8376 9.4375 23.8871 9.55729 23.9444 9.64062C24.1475 9.92708 24.3662 10.1276 24.6006 10.2422C24.8402 10.3516 25.21 10.4062 25.71 10.4062C26.2152 10.4062 26.6944 10.3307 27.1475 10.1797L27.1866 8.94531L26.6241 8.89844L26.5459 8.9375H25.7334L25.6397 8.94531L25.4444 8.74219C25.434 8.65365 25.4287 8.51302 25.4287 8.32031V6.57031C25.4287 6.48177 25.4912 6.39323 25.6162 6.30469H26.1397C26.5928 6.30469 27.1006 6.3099 27.6631 6.32031H27.7412C28.2517 6.33073 28.6397 6.33594 28.9053 6.33594H29.3741L29.5537 6.32812C30.4808 6.32812 31.0095 6.38802 31.1397 6.50781L31.0459 12.4375V12.5469Z" fill="black"/>
<path d="M42.6197 2.22656L42.5962 3.78906V3.89062C42.5181 4.41146 41.9478 5.25 40.8853 6.40625L40.2837 7.0625C39.6119 7.85417 39.0676 8.50521 38.6509 9.01562L37.7603 10.1016H38.1744L42.7056 10.0391C42.7837 10.0391 42.8228 10.5026 42.8228 11.4297V12.3047L42.8384 12.8125C42.8384 12.9792 42.8046 13.0833 42.7369 13.125C42.6744 13.1719 42.5598 13.1953 42.3931 13.1953H42.19L32.8228 13.2734C32.677 13.2734 32.5676 13.2578 32.4947 13.2266C32.4218 13.1953 32.3462 13.1224 32.2681 13.0078C32.2681 11.5859 32.2499 10.7005 32.2134 10.3516L32.3384 10.25L33.44 8.91406C35.0546 6.89323 36.3072 5.34896 37.1978 4.28125L34.8931 4.30469L34.315 4.32031C33.7473 4.33594 33.177 4.34375 32.6041 4.34375C32.5468 4.3125 32.5207 4.23438 32.5259 4.10938C32.5364 3.98438 32.5364 3.88542 32.5259 3.8125V3.66406L32.5337 3.60156V3.14062L32.4634 1.35156L32.4712 1.30469C32.4817 1.30469 32.5051 1.3151 32.5416 1.33594C32.677 1.33594 33.1874 1.33594 34.0728 1.33594C34.9634 1.33594 37.0806 1.3099 40.4244 1.25781L42.1197 1.23438C42.2968 1.23958 42.427 1.27344 42.5103 1.33594C42.5936 1.39323 42.6353 1.51823 42.6353 1.71094L42.6197 2.14844V2.22656Z" fill="black"/>
<path d="M56.7091 13.0859C56.7039 13.1536 56.5606 13.1875 56.2794 13.1875H55.5606L55.0762 13.1953H54.5997L53.8419 13.2031C53.0867 13.2031 52.4591 13.1849 51.9591 13.1484C51.9434 13.1432 51.9252 13.112 51.9044 13.0547L51.8653 12.8906C51.8184 12.3542 51.696 11.8359 51.4981 11.3359L48.1544 11.3672C48.1335 11.4557 48.0658 11.7188 47.9512 12.1562C47.8367 12.5938 47.7507 12.9245 47.6934 13.1484C47.6414 13.2005 47.394 13.2266 46.9512 13.2266L46.7559 13.2188H46.3028L44.2716 13.2656H44.0372L43.8184 13.2734H43.2716C43.2351 13.237 43.196 13.1901 43.1544 13.1328C43.6752 11.3307 44.3809 9.09635 45.2716 6.42969L45.4512 5.875H45.4434L45.6544 5.22656C45.7221 5.01823 45.9148 4.4401 46.2325 3.49219C46.5554 2.54427 46.7559 1.93229 46.8341 1.65625C46.9174 1.38021 46.9669 1.23698 46.9825 1.22656H48.2794L51.0528 1.1875L51.8028 1.22656L52.42 1.1875C52.7325 1.1875 52.8887 1.25 52.8887 1.375C53.4096 2.82812 54.1049 4.91927 54.9747 7.64844C55.8445 10.3776 56.3341 11.9115 56.4434 12.25L56.5528 12.6406C56.5893 12.7812 56.6414 12.9297 56.7091 13.0859ZM48.9747 8.82031L49.295 8.82812L51.1622 8.82031C51.0841 8.20052 51.0242 7.74479 50.9825 7.45312L50.6856 6.11719C50.3731 4.73698 50.2117 4.03385 50.2012 4.00781C50.1908 3.98177 50.1804 3.95833 50.17 3.9375C50.1648 3.91146 50.1596 3.89583 50.1544 3.89062C50.1492 3.88021 50.1414 3.86458 50.1309 3.84375C50.1257 3.82292 50.1179 3.8099 50.1075 3.80469C50.1023 3.79427 50.0945 3.78125 50.0841 3.76562C50.0476 3.70312 49.9721 3.64844 49.8575 3.60156C49.7169 3.63281 49.2976 5.20052 48.5997 8.30469L48.5137 8.82031H48.9747Z" fill="black"/>
<path d="M69.3453 12.5469C69.3453 12.5521 69.3479 12.5625 69.3531 12.5781L69.3297 12.6406H69.3375V12.6562C69.3375 12.6667 69.3349 12.6745 69.3297 12.6797C69.0849 12.8672 68.4859 13.0391 67.5328 13.1953C66.5849 13.3516 65.9313 13.4297 65.5719 13.4297C65.2177 13.4297 65.0198 13.4271 64.9781 13.4219L64.5797 13.4453C64.163 13.4714 63.9234 13.4844 63.8609 13.4844C61.6734 13.4844 60.0068 12.9349 58.8609 11.8359C57.7203 10.737 57.15 9.17708 57.15 7.15625C57.15 5.13021 57.7646 3.59375 58.9938 2.54688C60.2281 1.5 61.8974 0.976562 64.0016 0.976562C64.387 0.976562 64.8609 1.01302 65.4234 1.08594C65.9911 1.15885 66.4885 1.26562 66.9156 1.40625C67.4365 1.61979 67.8818 1.92969 68.2516 2.33594C68.6266 2.73698 68.8714 3.18229 68.9859 3.67188C69.0068 3.80729 69.0302 4.02083 69.0563 4.3125C69.0875 4.59896 69.1135 4.8099 69.1344 4.94531C69.1031 5.02344 68.9911 5.0625 68.7984 5.0625L64.8297 4.99219C64.8089 4.98177 64.7828 4.91146 64.7516 4.78125V4.80469C64.6578 4.38281 64.4729 4.125 64.1969 4.03125C64.0719 3.98438 63.9078 3.96094 63.7047 3.96094C63.5016 3.96094 63.3089 3.99479 63.1266 4.0625C62.9495 4.13021 62.801 4.22396 62.6813 4.34375C62.5615 4.46354 62.4547 4.60417 62.3609 4.76562C62.2672 4.92188 62.1969 5.09115 62.15 5.27344C62.1031 5.45573 62.0615 5.64323 62.025 5.83594C61.9885 6.02865 61.9651 6.21875 61.9547 6.40625C61.9495 6.59375 61.9417 6.77344 61.9313 6.94531C61.926 7.11719 61.926 7.26042 61.9313 7.375C61.9365 7.48438 61.9391 7.55729 61.9391 7.59375V8.13281C61.9391 8.47135 61.9547 8.70833 61.9859 8.84375C62.0172 8.97396 62.0536 9.11979 62.0953 9.28125C62.137 9.4375 62.1865 9.55729 62.2438 9.64062C62.4469 9.92708 62.6656 10.1276 62.9 10.2422C63.1396 10.3516 63.5094 10.4062 64.0094 10.4062C64.5146 10.4062 64.9938 10.3307 65.4469 10.1797L65.4859 8.94531L64.9234 8.89844L64.8453 8.9375H64.0328L63.9391 8.94531L63.7438 8.74219C63.7333 8.65365 63.7281 8.51302 63.7281 8.32031V6.57031C63.7281 6.48177 63.7906 6.39323 63.9156 6.30469H64.4391C64.8922 6.30469 65.4 6.3099 65.9625 6.32031H66.0406C66.551 6.33073 66.9391 6.33594 67.2047 6.33594H67.6734L67.8531 6.32812C68.7802 6.32812 69.3089 6.38802 69.4391 6.50781L69.3453 12.4375V12.5469Z" fill="black"/>
</svg>
