<svg width="117" height="45" viewBox="0 0 117 45" fill="none" xmlns="http://www.w3.org/2000/svg">
<rect y="0.375" width="116.01" height="44.2513" rx="6" fill="#F7F7F7"/>
<path d="M26.4412 23.4551C26.4641 21.6671 27.4206 19.9754 28.9379 19.0388C27.9806 17.6664 26.3774 16.7963 24.7094 16.7439C22.9303 16.5564 21.2054 17.8127 20.2989 17.8127C19.3747 17.8127 17.9788 16.7625 16.4757 16.7936C14.5164 16.8571 12.6899 17.9753 11.7367 19.6949C9.68771 23.2564 11.2161 28.4905 13.179 31.3692C14.161 32.7789 15.3086 34.3535 16.8104 34.2977C18.2799 34.2366 18.8289 33.3569 20.6028 33.3569C22.3601 33.3569 22.8751 34.2977 24.4073 34.2622C25.9842 34.2365 26.9777 32.8463 27.9253 31.4233C28.6309 30.4189 29.1739 29.3087 29.5341 28.1341C27.6809 27.3471 26.4433 25.4749 26.4412 23.4551Z" fill="#181F20"/>
<path d="M23.5469 14.8516C24.4067 13.8154 24.8303 12.4836 24.7277 11.1389C23.4141 11.2774 22.2007 11.9077 21.3293 12.9041C20.4772 13.8776 20.0338 15.186 20.1177 16.4794C21.4317 16.4929 22.7235 15.8797 23.5469 14.8516Z" fill="#181F20"/>
<path d="M78.8567 21.6096V23.7763H77.504V25.1971H78.8567V30.0248C78.8567 31.6733 79.5996 32.3327 81.4684 32.3327C81.7968 32.3327 82.1096 32.2934 82.3833 32.2463V30.8411C82.1487 30.8647 82.0001 30.8805 81.742 30.8805C80.9055 30.8805 80.5379 30.488 80.5379 29.593V25.1971H82.3833V23.7763H80.5379V21.6096H78.8567Z" fill="#181F20"/>
<path d="M87.1443 32.4509C89.6308 32.4509 91.1556 30.7788 91.1556 28.0078C91.1556 25.2525 89.6231 23.5725 87.1443 23.5725C84.6577 23.5725 83.1251 25.2525 83.1251 28.0078C83.1251 30.7788 84.6499 32.4509 87.1443 32.4509ZM87.1443 30.9515C85.6821 30.9515 84.861 29.876 84.861 28.0078C84.861 26.1552 85.6821 25.0719 87.1443 25.0719C88.5987 25.0719 89.4275 26.1552 89.4275 28.0078C89.4275 29.8683 88.5987 30.9515 87.1443 30.9515Z" fill="#181F20"/>
<path d="M92.459 32.2858H94.1401V27.2383C94.1401 26.0373 95.0394 25.2288 96.3139 25.2288C96.6111 25.2288 97.1115 25.2837 97.2523 25.3308V23.6666C97.0724 23.6195 96.7519 23.5959 96.5016 23.5959C95.3912 23.5959 94.4451 24.2083 94.2028 25.0482H94.0776V23.7373H92.459V32.2858Z" fill="#181F20"/>
<path d="M101.427 25.0091C102.671 25.0091 103.484 25.8804 103.523 27.2228H99.2224C99.3161 25.8883 100.184 25.0091 101.427 25.0091ZM103.515 29.9781C103.202 30.6454 102.507 31.0143 101.49 31.0143C100.145 31.0143 99.277 30.0644 99.2224 28.5651V28.4709H105.235V27.8822C105.235 25.1975 103.805 23.5725 101.435 23.5725C99.0346 23.5725 97.5098 25.3074 97.5098 28.0391C97.5098 30.771 99.0034 32.4509 101.443 32.4509C103.39 32.4509 104.751 31.5088 105.134 29.9781H103.515Z" fill="#181F20"/>
<path d="M67.8321 29.1286C67.9617 31.2277 69.7043 32.5701 72.2976 32.5701C75.0694 32.5701 76.8039 31.1626 76.8039 28.917C76.8039 27.1515 75.8151 26.1751 73.4161 25.6137L72.1275 25.2964C70.6039 24.9383 69.9878 24.4584 69.9878 23.6204C69.9878 22.5626 70.9443 21.871 72.3787 21.871C73.7403 21.871 74.6805 22.5464 74.8507 23.6285H76.6174C76.512 21.6513 74.7777 20.26 72.403 20.26C69.8501 20.26 68.1482 21.6513 68.1482 23.7423C68.1482 25.4672 69.1126 26.4924 71.2278 26.9887L72.7354 27.3548C74.2833 27.721 74.9641 28.258 74.9641 29.153C74.9641 30.1944 73.8943 30.9511 72.4355 30.9511C70.8713 30.9511 69.7852 30.2432 69.6313 29.1286H67.8321Z" fill="#181F20"/>
<path d="M50.4161 23.5959C49.2587 23.5959 48.2579 24.1768 47.7417 25.1502H47.6166V23.7373H45.9981V35.1276H47.6792V30.9906H47.8122C48.2579 31.8934 49.2196 32.4272 50.4317 32.4272C52.582 32.4272 53.9504 30.7237 53.9504 28.0077C53.9504 25.2916 52.582 23.5959 50.4161 23.5959ZM49.9391 30.9121C48.5316 30.9121 47.648 29.7975 47.648 28.0155C47.648 26.2257 48.5316 25.111 49.9469 25.111C51.37 25.111 52.2223 26.2021 52.2223 28.0077C52.2223 29.821 51.37 30.9121 49.9391 30.9121Z" fill="#181F20"/>
<path d="M59.834 23.5959C58.6768 23.5959 57.6759 24.1768 57.1598 25.1502H57.0347V23.7373H55.4161V35.1276H57.0973V30.9906H57.2301C57.6759 31.8934 58.6377 32.4272 59.8497 32.4272C62.0001 32.4272 63.3684 30.7237 63.3684 28.0077C63.3684 25.2916 62.0001 23.5959 59.834 23.5959ZM59.3571 30.9121C57.9495 30.9121 57.0659 29.7975 57.0659 28.0155C57.0659 26.2257 57.9495 25.111 59.3648 25.111C60.7881 25.111 61.6403 26.2021 61.6403 28.0077C61.6403 29.821 60.7881 30.9121 59.3571 30.9121Z" fill="#181F20"/>
<path d="M42.9811 32.2857H44.91L40.6875 20.5452H38.7343L34.5118 32.2857H36.3758L37.4538 29.1696H41.9113L42.9811 32.2857ZM39.6177 22.6769H39.7554L41.4493 27.64H37.9158L39.6177 22.6769Z" fill="#181F20"/>
<path d="M34.4649 12.2639V16.9047H36.1339C37.5114 16.9047 38.3091 16.0524 38.3091 14.5698C38.3091 13.1097 37.505 12.2639 36.1339 12.2639H34.4649ZM35.1825 12.92H36.0538C37.0116 12.92 37.5788 13.531 37.5788 14.5795C37.5788 15.644 37.0213 16.2486 36.0538 16.2486H35.1825V12.92Z" fill="#181F20"/>
<path d="M40.7522 16.9716C41.7709 16.9716 42.3956 16.2866 42.3956 15.1513C42.3956 14.0225 41.7677 13.3342 40.7522 13.3342C39.7334 13.3342 39.1055 14.0225 39.1055 15.1513C39.1055 16.2866 39.7302 16.9716 40.7522 16.9716ZM40.7522 16.3574C40.1531 16.3574 39.8167 15.9168 39.8167 15.1513C39.8167 14.3923 40.1531 13.9485 40.7522 13.9485C41.348 13.9485 41.6875 14.3923 41.6875 15.1513C41.6875 15.9135 41.348 16.3574 40.7522 16.3574Z" fill="#181F20"/>
<path d="M47.717 13.4026H47.0283L46.4067 16.0751H46.3523L45.6347 13.4026H44.9748L44.2572 16.0751H44.2059L43.5812 13.4026H42.8829L43.8438 16.9049H44.5519L45.2694 14.3256H45.3239L46.0447 16.9049H46.7592L47.717 13.4026Z" fill="#181F20"/>
<path d="M48.5098 16.904H49.1986V14.8555C49.1986 14.3087 49.5221 13.9678 50.0315 13.9678C50.5408 13.9678 50.7843 14.2475 50.7843 14.8104V16.904H51.4731V14.6367C51.4731 13.8038 51.0437 13.3342 50.2653 13.3342C49.7399 13.3342 49.394 13.569 49.2242 13.9581H49.1729V13.4018H48.5098V16.904Z" fill="#181F20"/>
<path d="M52.5567 16.9045H53.2455V12.0354H52.5567V16.9045Z" fill="#181F20"/>
<path d="M55.8361 16.9716C56.8549 16.9716 57.4797 16.2866 57.4797 15.1513C57.4797 14.0225 56.8518 13.3342 55.8361 13.3342C54.8175 13.3342 54.1895 14.0225 54.1895 15.1513C54.1895 16.2866 54.8143 16.9716 55.8361 16.9716ZM55.8361 16.3574C55.2371 16.3574 54.9008 15.9168 54.9008 15.1513C54.9008 14.3923 55.2371 13.9485 55.8361 13.9485C56.4321 13.9485 56.7716 14.3923 56.7716 15.1513C56.7716 15.9135 56.4321 16.3574 55.8361 16.3574Z" fill="#181F20"/>
<path d="M59.5326 16.3799C59.1577 16.3799 58.8854 16.1965 58.8854 15.8814C58.8854 15.5726 59.1032 15.4086 59.5837 15.3764L60.4359 15.3218V15.6144C60.4359 16.0486 60.0515 16.3799 59.5326 16.3799ZM59.3563 16.9619C59.8145 16.9619 60.1956 16.7626 60.4038 16.412H60.4584V16.9041H61.1214V14.5113C61.1214 13.7717 60.6281 13.3342 59.7536 13.3342C58.9623 13.3342 58.3984 13.7201 58.328 14.3216H58.9944C59.0712 14.0739 59.3371 13.9324 59.7215 13.9324C60.1925 13.9324 60.4359 14.1415 60.4359 14.5113V14.8136L59.4908 14.8683C58.6612 14.9198 58.1934 15.2831 58.1934 15.9135C58.1934 16.5535 58.6835 16.9619 59.3563 16.9619Z" fill="#181F20"/>
<path d="M63.4578 16.9624C63.9383 16.9624 64.3452 16.7341 64.5534 16.3514H64.608V16.9045H65.2679V12.0354H64.5792V13.9586H64.5278C64.3389 13.5727 63.9352 13.3443 63.4578 13.3443C62.5768 13.3443 62.0098 14.0454 62.0098 15.1518C62.0098 16.2613 62.5705 16.9624 63.4578 16.9624ZM63.6532 13.965C64.2299 13.965 64.5919 14.4249 64.5919 15.155C64.5919 15.8883 64.2332 16.3417 63.6532 16.3417C63.0702 16.3417 62.7211 15.8946 62.7211 15.1518C62.7211 14.4153 63.0734 13.965 63.6532 13.965Z" fill="#181F20"/>
<path d="M69.7346 16.9716C70.7533 16.9716 71.3781 16.2866 71.3781 15.1513C71.3781 14.0225 70.7502 13.3342 69.7346 13.3342C68.716 13.3342 68.088 14.0225 68.088 15.1513C68.088 16.2866 68.7127 16.9716 69.7346 16.9716ZM69.7346 16.3574C69.1355 16.3574 68.7992 15.9168 68.7992 15.1513C68.7992 14.3923 69.1355 13.9485 69.7346 13.9485C70.3305 13.9485 70.6701 14.3923 70.6701 15.1513C70.6701 15.9135 70.3305 16.3574 69.7346 16.3574Z" fill="#181F20"/>
<path d="M72.2911 16.904H72.9798V14.8555C72.9798 14.3087 73.3034 13.9678 73.8127 13.9678C74.3221 13.9678 74.5656 14.2475 74.5656 14.8104V16.904H75.2544V14.6367C75.2544 13.8038 74.8251 13.3342 74.0467 13.3342C73.5213 13.3342 73.1753 13.569 73.0054 13.9581H72.9542V13.4018H72.2911V16.904Z" fill="#181F20"/>
<path d="M78.4254 12.5315V13.4191H77.8712V14.0012H78.4254V15.979C78.4254 16.6544 78.7297 16.9246 79.4954 16.9246C79.63 16.9246 79.7581 16.9086 79.8702 16.8892V16.3136C79.7741 16.3232 79.7132 16.3297 79.6075 16.3297C79.2647 16.3297 79.1141 16.1688 79.1141 15.8023V14.0012H79.8702V13.4191H79.1141V12.5315H78.4254Z" fill="#181F20"/>
<path d="M80.7949 16.9045H81.4836V14.8591C81.4836 14.3285 81.7976 13.9715 82.3614 13.9715C82.8484 13.9715 83.1079 14.2544 83.1079 14.814V16.9045H83.7967V14.6436C83.7967 13.8106 83.3385 13.3379 82.5953 13.3379C82.0699 13.3379 81.7015 13.5727 81.5317 13.965H81.4773V12.0354H80.7949V16.9045Z" fill="#181F20"/>
<path d="M86.2809 13.9227C86.7902 13.9227 87.1233 14.2797 87.1393 14.8297H85.3774C85.4158 14.2829 85.7715 13.9227 86.2809 13.9227ZM87.1361 15.9585C87.008 16.2319 86.7229 16.3831 86.3064 16.3831C85.7555 16.3831 85.3999 15.9939 85.3774 15.3797V15.341H87.8409V15.0998C87.8409 14 87.2547 13.3342 86.284 13.3342C85.3005 13.3342 84.6758 14.0449 84.6758 15.1641C84.6758 16.2833 85.2877 16.9716 86.2872 16.9716C87.0849 16.9716 87.6424 16.5857 87.7993 15.9585H87.1361Z" fill="#181F20"/>
</svg>
