<svg width="150" height="55" viewBox="0 0 150 55" fill="none" xmlns="http://www.w3.org/2000/svg">
<g filter="url(#filter0_b_1_147)">
<path d="M141.143 1H9.00001C4.58173 1 1.00001 4.58173 1.00001 9L1 46.1571C1 50.5754 4.58171 54.1571 8.99999 54.1571H141.143C145.561 54.1571 149.143 50.5754 149.143 46.1571V9C149.143 4.58172 145.561 1 141.143 1Z" fill="#181F20" fill-opacity="0.6"/>
<path d="M141.143 0.75H9.00001C4.44366 0.75 0.750008 4.44366 0.750007 9L0.75 46.1571C0.75 50.7135 4.44364 54.4071 8.99999 54.4071H141.143C145.699 54.4071 149.393 50.7135 149.393 46.1571V9C149.393 4.44365 145.699 0.75 141.143 0.75Z" stroke="#181F20" stroke-width="0.5"/>
</g>
<path d="M52.25 13.6012H54.1669C54.9432 13.6012 55.6097 13.7499 56.1662 14.0472C56.7227 14.3376 57.1452 14.7421 57.4337 15.2608C57.7223 15.7724 57.8666 16.3567 57.8666 17.0136C57.8666 17.6705 57.7223 18.2583 57.4337 18.7769C57.1452 19.2955 56.7192 19.7035 56.1558 20.0008C55.5993 20.2982 54.9364 20.4468 54.1669 20.4468H52.25V13.6012ZM54.1669 19.9593C54.8264 19.9593 55.3898 19.8314 55.857 19.5756C56.331 19.3128 56.6917 18.9601 56.9391 18.5176C57.1864 18.0681 57.3101 17.5668 57.3101 17.0136C57.3101 16.4605 57.1864 15.9626 56.9391 15.5201C56.6986 15.0775 56.3414 14.7283 55.8673 14.4725C55.3932 14.2166 54.8264 14.0887 54.1669 14.0887H52.7859V19.9593H54.1669Z" fill="white"/>
<path d="M61.8681 20.5505C61.4009 20.5505 60.9681 20.4364 60.5696 20.2083C60.178 19.9732 59.8688 19.6551 59.6421 19.254C59.4154 18.853 59.302 18.4139 59.302 17.9368C59.302 17.4527 59.4154 17.0136 59.6421 16.6195C59.8688 16.2184 60.178 15.9038 60.5696 15.6756C60.9681 15.4475 61.4044 15.3334 61.8784 15.3334C62.3525 15.3334 62.7853 15.4509 63.1769 15.686C63.5685 15.9142 63.8777 16.2288 64.1044 16.6299C64.338 17.024 64.4548 17.4596 64.4548 17.9368C64.4548 18.4139 64.338 18.853 64.1044 19.254C63.8777 19.6551 63.5651 19.9732 63.1666 20.2083C62.775 20.4364 62.3422 20.5505 61.8681 20.5505ZM61.8681 20.0631C62.246 20.0631 62.5895 19.9697 62.8987 19.783C63.2147 19.5963 63.4621 19.3439 63.6407 19.0258C63.8262 18.7008 63.9189 18.3413 63.9189 17.9471C63.9189 17.5461 63.8262 17.1865 63.6407 16.8684C63.4621 16.5434 63.2182 16.2876 62.909 16.1009C62.5998 15.9142 62.2563 15.8209 61.8784 15.8209C61.4937 15.8209 61.1467 15.9142 60.8376 16.1009C60.5284 16.2876 60.2845 16.5434 60.1059 16.8684C59.9272 17.1865 59.8379 17.5461 59.8379 17.9471C59.8379 18.3413 59.9272 18.7008 60.1059 19.0258C60.2845 19.3439 60.5284 19.5963 60.8376 19.783C61.1467 19.9697 61.4903 20.0631 61.8681 20.0631Z" fill="white"/>
<path d="M73.5214 15.4371L71.5221 20.5505H71.3057L69.4919 16.3291L67.6884 20.5505H67.4823L65.4727 15.4371H66.0292L67.5957 19.5963L69.3889 15.3334H69.6053L71.4088 19.5756L72.9649 15.4371H73.5214Z" fill="white"/>
<path d="M77.1977 15.3334C77.7679 15.3334 78.2145 15.5131 78.5374 15.8727C78.8603 16.2323 79.0218 16.7025 79.0218 17.2833V20.4468H78.5065V17.3144C78.5065 16.8719 78.3794 16.5123 78.1252 16.2357C77.8779 15.9591 77.5412 15.8209 77.1152 15.8209C76.6824 15.8209 76.3252 15.9626 76.0435 16.2461C75.7687 16.5296 75.6312 16.8857 75.6312 17.3144V20.4468H75.116V15.4371H75.6106V16.1113C75.7824 15.8623 76.0022 15.6722 76.2702 15.5408C76.545 15.4025 76.8542 15.3334 77.1977 15.3334Z" fill="white"/>
<path d="M81.1717 12.6677H81.687V20.4468H81.1717V12.6677Z" fill="white"/>
<path d="M86.1012 20.5505C85.634 20.5505 85.2011 20.4364 84.8027 20.2083C84.411 19.9732 84.1019 19.6551 83.8752 19.254C83.6484 18.853 83.5351 18.4139 83.5351 17.9368C83.5351 17.4527 83.6484 17.0136 83.8752 16.6195C84.1019 16.2184 84.411 15.9038 84.8027 15.6756C85.2011 15.4475 85.6374 15.3334 86.1115 15.3334C86.5855 15.3334 87.0184 15.4509 87.41 15.686C87.8016 15.9142 88.1107 16.2288 88.3375 16.6299C88.5711 17.024 88.6879 17.4596 88.6879 17.9368C88.6879 18.4139 88.5711 18.853 88.3375 19.254C88.1107 19.6551 87.7981 19.9732 87.3997 20.2083C87.008 20.4364 86.5752 20.5505 86.1012 20.5505ZM86.1012 20.0631C86.479 20.0631 86.8225 19.9697 87.1317 19.783C87.4478 19.5963 87.6951 19.3439 87.8737 19.0258C88.0592 18.7008 88.152 18.3413 88.152 17.9471C88.152 17.5461 88.0592 17.1865 87.8737 16.8684C87.6951 16.5434 87.4512 16.2876 87.142 16.1009C86.8329 15.9142 86.4893 15.8209 86.1115 15.8209C85.7267 15.8209 85.3798 15.9142 85.0706 16.1009C84.7614 16.2876 84.5175 16.5434 84.3389 16.8684C84.1603 17.1865 84.071 17.5461 84.071 17.9471C84.071 18.3413 84.1603 18.7008 84.3389 19.0258C84.5175 19.3439 84.7614 19.5963 85.0706 19.783C85.3798 19.9697 85.7233 20.0631 86.1012 20.0631Z" fill="white"/>
<path d="M92.2052 15.3334C92.7686 15.3334 93.2186 15.5028 93.5552 15.8416C93.8988 16.1804 94.0705 16.6679 94.0705 17.3041V20.4468H93.5758V19.6585C93.3972 19.942 93.1533 20.1633 92.8442 20.3224C92.535 20.4745 92.1846 20.5505 91.793 20.5505C91.3121 20.5505 90.9067 20.433 90.5769 20.1979C90.2471 19.9559 90.0823 19.6205 90.0823 19.1918C90.0823 18.7838 90.2403 18.4588 90.5563 18.2168C90.8724 17.9748 91.2914 17.8538 91.8136 17.8538H93.5449V17.2833C93.5449 16.8062 93.4213 16.4432 93.1739 16.1942C92.9266 15.9453 92.5934 15.8209 92.1743 15.8209C91.8583 15.8209 91.58 15.8935 91.3395 16.0387C91.0991 16.177 90.8724 16.3844 90.6594 16.661L90.2987 16.3706C90.7796 15.6791 91.4151 15.3334 92.2052 15.3334ZM91.8445 20.0942C92.1468 20.0942 92.4285 20.0285 92.6896 19.8971C92.9506 19.7657 93.1568 19.5859 93.3079 19.3577C93.4659 19.1226 93.5449 18.8633 93.5449 18.5798V18.2998H91.8651C91.4598 18.2998 91.1506 18.3759 90.9376 18.528C90.7246 18.6732 90.6181 18.8841 90.6181 19.1607C90.6181 19.4649 90.7384 19.6966 90.9788 19.8556C91.2193 20.0146 91.5079 20.0942 91.8445 20.0942Z" fill="white"/>
<path d="M100.836 12.6677V20.4468H100.341V19.4304C100.156 19.7761 99.8776 20.0492 99.5066 20.2497C99.1424 20.4503 98.7439 20.5505 98.3111 20.5505C97.8508 20.5505 97.4317 20.4364 97.0538 20.2083C96.676 19.9732 96.3771 19.6585 96.1572 19.2644C95.9443 18.8633 95.8378 18.4243 95.8378 17.9471C95.8378 17.4631 95.9443 17.024 96.1572 16.6299C96.3702 16.2288 96.6656 15.9142 97.0435 15.686C97.4214 15.4509 97.8439 15.3334 98.3111 15.3334C98.7371 15.3334 99.1287 15.4302 99.4859 15.6238C99.8501 15.8174 100.128 16.0802 100.321 16.4121V12.6677H100.836ZM98.3626 20.0631C98.7062 20.0631 99.0256 19.987 99.3211 19.8349C99.6234 19.6827 99.8638 19.4476 100.042 19.1296C100.228 18.8115 100.321 18.4173 100.321 17.9471C100.321 17.47 100.228 17.0724 100.042 16.7543C99.8638 16.4363 99.6234 16.2012 99.3211 16.049C99.0256 15.8969 98.7062 15.8209 98.3626 15.8209C97.9848 15.8209 97.6447 15.9142 97.3424 16.1009C97.0401 16.2807 96.8031 16.5331 96.6313 16.8581C96.4595 17.1831 96.3737 17.5426 96.3737 17.9368C96.3737 18.3309 96.4595 18.6905 96.6313 19.0155C96.8031 19.3405 97.0401 19.5963 97.3424 19.783C97.6447 19.9697 97.9848 20.0631 98.3626 20.0631Z" fill="white"/>
<path d="M58.6446 35.5894H54.0534L53.3269 37.3008H51.5801L56.0785 26.8612H56.635L61.1334 37.3008H59.3711L58.6446 35.5894ZM56.3567 29.9262L54.6408 34.1736H58.0571L56.3567 29.9262Z" fill="white"/>
<path d="M67.272 29.4905C67.9831 29.4905 68.6221 29.6669 69.1889 30.0195C69.7557 30.3618 70.1988 30.8389 70.5183 31.4509C70.8378 32.0525 70.9975 32.7266 70.9975 33.4734C70.9975 34.2306 70.8378 34.9152 70.5183 35.5271C70.1988 36.1287 69.7557 36.6058 69.1889 36.9585C68.6221 37.3008 67.9831 37.4719 67.272 37.4719C66.7568 37.4719 66.2775 37.3785 65.8344 37.1918C65.4016 36.9948 65.0357 36.7199 64.7369 36.3673V40.1012H63.1137V29.6617H64.6286V30.7352C64.9069 30.3411 65.2779 30.0351 65.7416 29.8173C66.2054 29.5994 66.7155 29.4905 67.272 29.4905ZM67.0092 35.9783C67.4421 35.9783 67.8337 35.8746 68.1841 35.6671C68.5345 35.4493 68.8127 35.1537 69.0188 34.7803C69.2249 34.4069 69.328 33.9765 69.328 33.489C69.328 33.0015 69.2249 32.5711 69.0188 32.1977C68.823 31.8139 68.5448 31.5183 68.1841 31.3108C67.8337 31.093 67.4421 30.9841 67.0092 30.9841C66.6073 30.9841 66.2312 31.0775 65.8808 31.2642C65.5407 31.4405 65.2624 31.7154 65.046 32.0888C64.8296 32.4622 64.7214 32.9237 64.7214 33.4734C64.7214 34.0232 64.8296 34.4899 65.046 34.8737C65.2624 35.2471 65.5407 35.5271 65.8808 35.7138C66.2312 35.8901 66.6073 35.9783 67.0092 35.9783Z" fill="white"/>
<path d="M77.4879 29.4905C78.1989 29.4905 78.8379 29.6669 79.4047 30.0195C79.9715 30.3618 80.4146 30.8389 80.7341 31.4509C81.0536 32.0525 81.2133 32.7266 81.2133 33.4734C81.2133 34.2306 81.0536 34.9152 80.7341 35.5271C80.4146 36.1287 79.9715 36.6058 79.4047 36.9585C78.8379 37.3008 78.1989 37.4719 77.4879 37.4719C76.9726 37.4719 76.4934 37.3785 76.0502 37.1918C75.6174 36.9948 75.2515 36.7199 74.9527 36.3673V40.1012H73.3295V29.6617H74.8445V30.7352C75.1227 30.3411 75.4937 30.0351 75.9575 29.8173C76.4212 29.5994 76.9313 29.4905 77.4879 29.4905ZM77.2251 35.9783C77.6579 35.9783 78.0495 35.8746 78.3999 35.6671C78.7503 35.4493 79.0285 35.1537 79.2346 34.7803C79.4408 34.4069 79.5438 33.9765 79.5438 33.489C79.5438 33.0015 79.4408 32.5711 79.2346 32.1977C79.0388 31.8139 78.7606 31.5183 78.3999 31.3108C78.0495 31.093 77.6579 30.9841 77.2251 30.9841C76.8231 30.9841 76.447 31.0775 76.0966 31.2642C75.7565 31.4405 75.4783 31.7154 75.2618 32.0888C75.0454 32.4622 74.9372 32.9237 74.9372 33.4734C74.9372 34.0232 75.0454 34.4899 75.2618 34.8737C75.4783 35.2471 75.7565 35.5271 76.0966 35.7138C76.447 35.8901 76.8231 35.9783 77.2251 35.9783Z" fill="white"/>
<path d="M91.5725 37.4719C90.7377 37.4719 89.9854 37.2748 89.3156 36.8807C88.6457 36.4865 88.115 35.942 87.7234 35.2471L88.8827 34.3603C89.2228 34.8581 89.6041 35.2574 90.0267 35.5582C90.4595 35.8487 90.9696 35.9939 91.557 35.9939C92.0826 35.9939 92.5051 35.8642 92.8246 35.6049C93.1544 35.3456 93.3193 34.9981 93.3193 34.5625C93.3193 34.1995 93.2008 33.9143 92.9637 33.7068C92.737 33.4994 92.3557 33.2712 91.8198 33.0222L90.6914 32.4933C89.9494 32.151 89.3671 31.762 88.9446 31.3264C88.522 30.8908 88.3108 30.3307 88.3108 29.6461C88.3108 29.0964 88.4551 28.6089 88.7436 28.1837C89.0322 27.7584 89.4186 27.4317 89.903 27.2035C90.3977 26.9753 90.9387 26.8612 91.5261 26.8612C92.2475 26.8612 92.8968 27.0323 93.4739 27.3746C94.051 27.7065 94.4993 28.1473 94.8188 28.6971L93.6748 29.5839C93.4069 29.1794 93.0874 28.8734 92.7164 28.666C92.3557 28.4481 91.959 28.3392 91.5261 28.3392C91.0933 28.3392 90.7274 28.4481 90.4286 28.666C90.1297 28.8734 89.9803 29.1794 89.9803 29.5839C89.9803 29.8328 90.037 30.0403 90.1503 30.2062C90.2637 30.3722 90.4131 30.5122 90.5986 30.6263C90.7841 30.73 91.0521 30.87 91.4025 31.0464L92.5464 31.5753C93.3708 31.9591 93.984 32.374 94.3859 32.82C94.7878 33.266 94.9888 33.8261 94.9888 34.5003C94.9888 35.0915 94.8394 35.6153 94.5405 36.0717C94.2519 36.5177 93.8449 36.8651 93.3193 37.1141C92.804 37.3526 92.2217 37.4719 91.5725 37.4719Z" fill="white"/>
<path d="M101.879 35.9161V37.3008C101.374 37.4148 100.926 37.4719 100.534 37.4719C99.6579 37.4719 98.9726 37.2541 98.4779 36.8184C97.9833 36.3724 97.7359 35.7034 97.7359 34.8114V31.0775H96.4993V29.6617H97.7359V27.6547H99.3745V29.6617H101.631V31.0775H99.3745V34.6714C99.3745 35.1589 99.4982 35.5012 99.7455 35.6983C100.003 35.8953 100.379 35.9939 100.874 35.9939C101.101 35.9939 101.436 35.9679 101.879 35.9161Z" fill="white"/>
<path d="M107.361 37.4719C106.63 37.4719 105.955 37.2956 105.336 36.9429C104.728 36.5799 104.244 36.0924 103.883 35.4804C103.533 34.8685 103.358 34.1995 103.358 33.4734C103.358 32.737 103.533 32.068 103.883 31.4664C104.244 30.8545 104.728 30.3722 105.336 30.0195C105.955 29.6669 106.63 29.4905 107.361 29.4905C108.103 29.4905 108.784 29.6669 109.402 30.0195C110.02 30.3722 110.505 30.8545 110.855 31.4664C111.216 32.0784 111.396 32.7474 111.396 33.4734C111.396 34.1995 111.216 34.8685 110.855 35.4804C110.505 36.0924 110.02 36.5799 109.402 36.9429C108.784 37.2956 108.103 37.4719 107.361 37.4719ZM107.361 35.9627C107.805 35.9627 108.206 35.8538 108.567 35.636C108.928 35.4182 109.211 35.1226 109.417 34.7492C109.623 34.3654 109.727 33.9454 109.727 33.489C109.727 33.0222 109.623 32.597 109.417 32.2132C109.211 31.8295 108.928 31.5287 108.567 31.3108C108.206 31.093 107.81 30.9841 107.377 30.9841C106.934 30.9841 106.532 31.093 106.171 31.3108C105.81 31.5287 105.527 31.8295 105.321 32.2132C105.115 32.597 105.012 33.0222 105.012 33.489C105.012 33.9557 105.115 34.381 105.321 34.7648C105.527 35.1382 105.805 35.4338 106.156 35.6516C106.516 35.859 106.918 35.9627 107.361 35.9627Z" fill="white"/>
<path d="M118.064 29.6617V31.1086H117.57C116.931 31.1086 116.4 31.2953 115.978 31.6687C115.555 32.0317 115.344 32.5503 115.344 33.2245V37.3008H113.721V29.6617H115.236V30.6574C115.503 30.3151 115.828 30.0506 116.209 29.8639C116.601 29.6772 117.013 29.5839 117.446 29.5839C117.673 29.5839 117.879 29.6098 118.064 29.6617Z" fill="white"/>
<path d="M126.663 34.018H121.005C121.108 34.6403 121.381 35.133 121.824 35.496C122.278 35.8487 122.829 36.025 123.478 36.025C124.272 36.025 125.009 35.7242 125.689 35.1226L126.462 36.2428C125.596 37.0622 124.586 37.4719 123.432 37.4719C122.659 37.4719 121.964 37.3008 121.345 36.9585C120.727 36.6058 120.237 36.1287 119.877 35.5271C119.526 34.9152 119.351 34.2358 119.351 33.489C119.351 32.7526 119.521 32.0784 119.861 31.4664C120.212 30.8545 120.686 30.3722 121.283 30.0195C121.891 29.6669 122.556 29.4905 123.278 29.4905C123.947 29.4905 124.545 29.6461 125.071 29.9573C125.607 30.2581 126.024 30.673 126.323 31.2019C126.632 31.7309 126.787 32.3273 126.787 32.9911C126.787 33.3127 126.745 33.6549 126.663 34.018ZM123.216 30.8752C122.68 30.8752 122.211 31.0464 121.809 31.3886C121.417 31.7205 121.16 32.1717 121.036 32.7422H125.163C125.153 32.1614 124.957 31.705 124.576 31.3731C124.205 31.0412 123.752 30.8752 123.216 30.8752Z" fill="white"/>
<path fill-rule="evenodd" clip-rule="evenodd" d="M33.4498 17.2374C34.5783 16.2495 36.2711 15.4263 37.7759 15.2617C37.9639 16.7435 37.2116 18.2252 36.2711 19.3776C35.1426 20.3654 33.6378 21.1886 31.945 21.1886C31.757 19.7069 32.5093 18.2252 33.4498 17.2374Z" fill="white"/>
<path fill-rule="evenodd" clip-rule="evenodd" d="M40.5656 37.2992C39.5896 38.7927 38.4509 40.452 36.6615 40.452C35.0348 40.452 34.3841 39.4564 32.4321 39.4564C30.48 39.4564 29.8293 40.452 28.2027 40.452C26.5759 40.452 25.2746 38.7927 24.2985 37.2992C22.1838 34.1466 20.3944 28.3389 22.6718 24.3566C23.8105 22.3653 25.7625 21.2038 27.8772 21.2038C29.504 21.2038 31.1306 22.3653 32.1067 22.3653C33.0827 22.3653 35.0348 21.0378 36.9868 21.2038C37.8002 21.2038 40.0776 21.5356 41.5417 23.6927C41.379 23.6927 38.7762 25.3521 38.7762 28.5048C38.7762 32.3213 42.1923 33.6488 42.1923 33.6488C42.3549 33.8147 41.867 35.474 40.5656 37.2992Z" fill="white"/>
<defs>
<filter id="filter0_b_1_147" x="-20.5" y="-20.5" width="191.143" height="96.1571" filterUnits="userSpaceOnUse" color-interpolation-filters="sRGB">
<feFlood flood-opacity="0" result="BackgroundImageFix"/>
<feGaussianBlur in="BackgroundImageFix" stdDeviation="10.5"/>
<feComposite in2="SourceAlpha" operator="in" result="effect1_backgroundBlur_1_147"/>
<feBlend mode="normal" in="SourceGraphic" in2="effect1_backgroundBlur_1_147" result="shape"/>
</filter>
</defs>
</svg>
