<svg width="16" height="16" viewBox="0 0 16 16" fill="none" xmlns="http://www.w3.org/2000/svg">
<path fill-rule="evenodd" clip-rule="evenodd" d="M1.33565 8.79542L12.3435 8.79542L8.35738 13.2016C7.939 13.6638 7.939 14.4131 8.35738 14.8759C8.7753 15.3384 9.45381 15.3381 9.87172 14.8759L15.6863 8.44867C15.887 8.22689 16 7.92566 16 7.61153C16 7.2974 15.887 6.99643 15.6863 6.77439L9.87172 0.347183C9.66253 0.11593 9.3886 0.000698465 9.11444 0.000698441C8.84027 0.000698417 8.5661 0.11593 8.35715 0.347183C7.93876 0.809689 7.93876 1.55922 8.35715 2.02147L12.3435 6.42764L1.38315 6.42764C0.791741 6.42764 7.22517e-07 6.95802 6.65386e-07 7.61153C6.08208e-07 8.26556 0.744241 8.79542 1.33565 8.79542Z" fill="#181F20"/>
</svg>
