<svg width="40" height="40" viewBox="0 0 40 40" fill="none" xmlns="http://www.w3.org/2000/svg">
<path opacity="0.3" d="M20 8.83349V35.5502C20.2833 35.5502 20.5833 35.5001 20.8167 35.3668L20.8834 35.3335C24.0834 33.5835 29.6666 31.7502 33.2833 31.2668L33.7667 31.2001C35.3667 31.0001 36.6667 29.5002 36.6667 27.9002V7.7668C36.6667 5.78347 35.05 4.28349 33.0667 4.45015C29.5667 4.73349 24.2667 6.5002 21.3 8.35019L20.8834 8.60013C20.6334 8.75013 20.3167 8.83349 20 8.83349Z" fill="url(#paint0_linear_406_36100)"/>
<path d="M3.33398 7.78255V27.8992C3.33398 29.4992 4.63397 30.9992 6.23397 31.1992L6.784 31.2659C10.4173 31.7493 16.0174 33.5992 19.2174 35.3659C19.434 35.4992 19.7007 35.5493 20.0007 35.5493V8.83256C19.684 8.83256 19.3673 8.7492 19.1173 8.5992L18.834 8.41589C15.8673 6.54923 10.5506 4.7659 7.05062 4.4659H6.95062C4.96729 4.29923 3.33398 5.78255 3.33398 7.78255Z" fill="url(#paint1_linear_406_36100)"/>
<path d="M31.6667 4.63281V11.7828C31.6667 12.4494 30.9333 12.8494 30.3666 12.4827L28.3333 11.1328L26.3 12.4827C25.75 12.8494 25 12.4494 25 11.7828V6.53274C27.1833 5.66607 29.6167 4.96615 31.6667 4.63281Z" fill="url(#paint2_linear_406_36100)"/>
<defs>
<linearGradient id="paint0_linear_406_36100" x1="28.3333" y1="4.4375" x2="28.3333" y2="35.5502" gradientUnits="userSpaceOnUse">
<stop stop-color="#CCF60E"/>
<stop offset="1" stop-color="#81C441"/>
</linearGradient>
<linearGradient id="paint1_linear_406_36100" x1="11.6673" y1="4.45312" x2="11.6673" y2="35.5493" gradientUnits="userSpaceOnUse">
<stop stop-color="#CCF60E"/>
<stop offset="1" stop-color="#81C441"/>
</linearGradient>
<linearGradient id="paint2_linear_406_36100" x1="28.3333" y1="4.63281" x2="28.3333" y2="12.6221" gradientUnits="userSpaceOnUse">
<stop stop-color="#CCF60E"/>
<stop offset="1" stop-color="#81C441"/>
</linearGradient>
</defs>
</svg>
