<svg width="40" height="40" viewBox="0 0 40 40" fill="none" xmlns="http://www.w3.org/2000/svg">
<path opacity="0.3" d="M31.6673 15.0007C31.6673 17.4173 30.9507 19.634 29.7173 21.484C27.9173 24.1507 25.0673 26.034 21.7507 26.5173C21.184 26.6173 20.6007 26.6673 20.0007 26.6673C19.4007 26.6673 18.8173 26.6173 18.2507 26.5173C14.934 26.034 12.084 24.1507 10.284 21.484C9.05065 19.634 8.33398 17.4173 8.33398 15.0007C8.33398 8.55065 13.5507 3.33398 20.0007 3.33398C26.4507 3.33398 31.6673 8.55065 31.6673 15.0007Z" fill="url(#paint0_linear_406_36163)"/>
<path d="M35.4165 30.7833L32.6665 31.4333C32.0498 31.5833 31.5665 32.05 31.4331 32.6667L30.8498 35.1167C30.5331 36.45 28.8331 36.85 27.9498 35.8L19.9998 26.6667L12.0498 35.8167C11.1665 36.8667 9.46647 36.4667 9.1498 35.1333L8.56647 32.6833C8.41647 32.0667 7.93314 31.5833 7.33314 31.45L4.58314 30.8C3.31647 30.5 2.86647 28.9167 3.78314 28L10.2831 21.5C12.0831 24.1667 14.9331 26.05 18.2498 26.5334C18.8165 26.6334 19.3998 26.6834 19.9998 26.6834C20.5998 26.6834 21.1831 26.6334 21.7498 26.5334C25.0665 26.05 27.9165 24.1667 29.7165 21.5L36.2165 28C37.1331 28.9 36.6831 30.4833 35.4165 30.7833Z" fill="url(#paint1_linear_406_36163)"/>
<path d="M20.9673 9.96602L21.9506 11.9327C22.0839 12.1993 22.4339 12.466 22.7506 12.516L24.5339 12.816C25.6673 12.9993 25.9339 13.8327 25.1173 14.6493L23.7339 16.0327C23.5006 16.266 23.3673 16.716 23.4506 17.0493L23.8506 18.766C24.1673 20.116 23.4506 20.6493 22.2506 19.9326L20.5839 18.9493C20.2839 18.766 19.7839 18.766 19.4839 18.9493L17.8173 19.9326C16.6173 20.6326 15.9006 20.116 16.2173 18.766L16.6173 17.0493C16.6839 16.7327 16.5673 16.266 16.3339 16.0327L14.9506 14.6493C14.1339 13.8327 14.4006 13.016 15.5339 12.816L17.3173 12.516C17.6173 12.466 17.9673 12.1993 18.1006 11.9327L19.0839 9.96602C19.5673 8.89935 20.4339 8.89935 20.9673 9.96602Z" fill="url(#paint2_linear_406_36163)"/>
<defs>
<linearGradient id="paint0_linear_406_36163" x1="20.0007" y1="3.33398" x2="20.0007" y2="26.6673" gradientUnits="userSpaceOnUse">
<stop stop-color="#CCF60E"/>
<stop offset="1" stop-color="#81C441"/>
</linearGradient>
<linearGradient id="paint1_linear_406_36163" x1="19.9998" y1="21.5" x2="19.9998" y2="36.4142" gradientUnits="userSpaceOnUse">
<stop stop-color="#CCF60E"/>
<stop offset="1" stop-color="#81C441"/>
</linearGradient>
<linearGradient id="paint2_linear_406_36163" x1="20.0339" y1="9.16602" x2="20.0339" y2="20.2519" gradientUnits="userSpaceOnUse">
<stop stop-color="#CCF60E"/>
<stop offset="1" stop-color="#81C441"/>
</linearGradient>
</defs>
</svg>
