<svg width="479" height="162" viewBox="0 0 479 162" fill="none" xmlns="http://www.w3.org/2000/svg">
<g opacity="0.5">
<path d="M767.257 51.1949L-290.746 47.0254L-291 111.577L767.003 115.746L767.257 51.1949Z" fill="#CCF60E"/>
</g>
<mask id="mask0_1_177" style="mask-type:luminance" maskUnits="userSpaceOnUse" x="-290" y="-1" width="1060" height="163">
<path d="M763.655 -0.000659212L-289.838 97.6875L-283.879 161.964L769.614 64.2757L763.655 -0.000659212Z" fill="white"/>
</mask>
<g mask="url(#mask0_1_177)">
<path d="M764.493 0.311841L-289 98L-283.041 162.276L770.452 64.5882L764.493 0.311841Z" fill="#CCF60E"/>
<path d="M-54.5932 103.646L-48.4038 103.071L-48.246 104.772L-52.5535 105.172L-52.3803 107.04L-49.2158 106.746L-49.0671 108.349L-52.2315 108.643L-52.0156 110.971L-47.5408 110.556L-47.383 112.256L-53.7397 112.846L-54.5932 103.646ZM-35.9798 101.919L-35.1107 111.287L-35.738 111.345L-41.5908 106.151L-41.0787 111.672L-42.9606 111.846L-43.8296 102.478L-43.2163 102.422L-37.3522 107.586L-37.8617 102.094L-35.9798 101.919ZM-28.8534 102.973L-31.7948 103.246L-31.9526 101.545L-24.174 100.824L-24.0162 102.524L-26.9715 102.799L-26.2758 110.298L-28.1577 110.473L-28.8534 102.973ZM-13.6466 109.127L-16.3316 106.1L-17.7117 106.228L-17.4104 109.476L-19.2923 109.651L-20.1458 100.45L-16.6887 100.129C-16.0474 100.07 -15.4642 100.142 -14.9391 100.347C-14.4149 100.542 -13.9922 100.854 -13.6712 101.284C-13.3417 101.703 -13.1498 102.205 -13.0955 102.791C-13.0412 103.376 -13.1369 103.91 -13.3828 104.392C-13.6286 104.874 -13.9908 105.264 -14.4694 105.562L-11.5277 108.93L-13.6466 109.127ZM-17.8656 104.569L-16.2904 104.423C-15.8536 104.382 -15.5256 104.23 -15.3064 103.966C-15.0779 103.701 -14.9821 103.369 -15.0192 102.969C-15.0554 102.579 -15.2102 102.275 -15.4835 102.056C-15.7569 101.838 -16.1073 101.749 -16.5348 101.788L-18.11 101.934L-17.8656 104.569ZM-4.17601 104.593L-3.83978 108.217L-5.7217 108.392L-6.05664 104.781L-9.75356 99.486L-7.66254 99.292L-5.28846 102.756L-3.60595 98.9157L-1.52887 98.723L-4.17601 104.593ZM8.58121 107.065L6.34639 104.193L4.67797 107.427L2.53119 107.626L5.14957 102.659L1.85891 98.4087L4.00569 98.2096L6.04507 100.945L7.53255 97.8824L9.66539 97.6845L7.25453 102.464L10.7141 106.867L8.58121 107.065ZM59.9615 97.2789C60.4899 97.4174 60.9163 97.6684 61.2406 98.032C61.564 98.3863 61.7516 98.8423 61.8033 99.3999C61.8516 99.9203 61.765 100.402 61.5436 100.844C61.3306 101.276 61.0026 101.63 60.5594 101.905C60.1248 102.171 59.6147 102.331 59.0292 102.385L54.9308 102.765L54.0773 93.5646L57.3393 93.262C57.8969 93.2103 58.4091 93.2752 58.8758 93.4569C59.3418 93.6292 59.7136 93.8994 59.9915 94.2673C60.2777 94.625 60.4442 95.0548 60.4907 95.5567C60.5528 96.2258 60.3764 96.7999 59.9615 97.2789ZM56.0395 95.0135L56.2348 97.1185L57.5312 96.9982C57.9122 96.9629 58.1964 96.8428 58.3836 96.6379C58.5792 96.423 58.662 96.1528 58.6318 95.8276C58.6016 95.5023 58.471 95.2566 58.24 95.0906C58.0183 94.9237 57.717 94.8579 57.3359 94.8933L56.0395 95.0135ZM58.7398 100.781C59.1487 100.743 59.4598 100.611 59.6732 100.385C59.8866 100.159 59.9764 99.8646 59.9428 99.5022C59.9101 99.149 59.768 98.881 59.5167 98.6981C59.2646 98.5059 58.934 98.4288 58.5251 98.4667L56.3783 98.6658L56.593 100.98L58.7398 100.781ZM71.2765 101.249L69.0416 98.3769L67.3732 101.611L65.2265 101.81L67.8448 96.8429L64.5542 92.5927L66.701 92.3935L68.7403 95.1288L70.2278 92.0663L72.3607 91.8685L69.9498 96.6476L73.4093 101.051L71.2765 101.249ZM81.4664 100.472C80.5743 100.555 79.7371 100.422 78.9548 100.072C78.1725 99.7232 77.5294 99.2064 77.0253 98.5221C76.5204 97.8284 76.227 97.0401 76.1451 96.1572C76.0632 95.2744 76.207 94.4502 76.5766 93.6848C76.9453 92.9101 77.482 92.2792 78.1866 91.792C78.8913 91.3048 79.6897 91.0199 80.5819 90.9371C81.4741 90.8543 82.3113 90.9876 83.0936 91.3368C83.8851 91.6852 84.5334 92.2062 85.0383 92.8999C85.5516 93.5834 85.8492 94.3666 85.9311 95.2494C86.013 96.1323 85.865 96.9615 85.487 97.7371C85.1174 98.5025 84.5757 99.1292 83.8617 99.6173C83.157 100.104 82.3586 100.389 81.4664 100.472ZM81.3187 98.7284C81.8763 98.6766 82.3665 98.5046 82.7894 98.2123C83.2206 97.9098 83.5406 97.5193 83.7492 97.0406C83.9663 96.5518 84.0477 96.0147 83.9934 95.4292C83.94 94.853 83.762 94.3493 83.4596 93.918C83.1655 93.4766 82.7788 93.147 82.2992 92.929C81.829 92.7102 81.3151 92.6266 80.7575 92.6783C80.1906 92.7309 79.6962 92.908 79.2742 93.2096C78.8514 93.5019 78.5315 93.8925 78.3143 94.3813C78.1057 94.8599 78.0285 95.392 78.0828 95.9775C78.1371 96.563 78.3113 97.0764 78.6053 97.5178C78.9078 97.9491 79.2941 98.2741 79.7643 98.4929C80.2337 98.7025 80.7518 98.7809 81.3187 98.7284ZM99.0072 96.9609L99.3473 100.627L97.4654 100.802L97.283 98.8362L91.5536 99.3677L91.736 101.333L89.854 101.508L89.5139 97.8416L90.2528 97.773C90.6222 97.4107 90.8504 96.7381 90.9373 95.7552C91.0233 94.763 90.9866 93.4072 90.8271 91.688L90.6862 90.1685L97.0847 89.5749L97.7804 97.0747L99.0072 96.9609ZM92.6143 91.7049C92.7277 93.1286 92.759 94.3254 92.7084 95.2956C92.6662 96.2556 92.5308 97.018 92.302 97.5829L95.8985 97.2493L95.3605 91.4502L92.6143 91.7049ZM118.537 95.1492L118.877 98.8154L116.995 98.99L116.813 97.0245L111.083 97.556L111.266 99.5215L109.384 99.6961L109.044 96.0298L109.783 95.9613C110.152 95.599 110.38 94.9263 110.467 93.9434C110.553 92.9513 110.516 91.5955 110.357 89.8762L110.216 88.3568L116.615 87.7632L117.31 95.263L118.537 95.1492ZM112.144 89.8932C112.257 91.3168 112.289 92.5137 112.238 93.4839C112.196 94.4439 112.061 95.2063 111.832 95.7712L115.428 95.4376L114.89 89.6385L112.144 89.8932ZM129.254 86.5906L130.108 95.7911L128.226 95.9657L127.53 88.4659L124.881 88.7116C125.035 90.6751 125.048 92.2253 124.919 93.362C124.799 94.4886 124.55 95.299 124.174 95.7932C123.798 96.2874 123.281 96.5651 122.621 96.6263C122.351 96.6513 122.082 96.6294 121.813 96.5606L121.664 94.9575C121.722 94.9709 121.848 94.9685 122.043 94.9504C122.415 94.9159 122.693 94.6793 122.877 94.2404C123.071 93.8006 123.179 93.1485 123.202 92.284C123.233 91.4094 123.194 90.2742 123.083 88.8784L122.939 87.1765L129.254 86.5906ZM140.851 85.5148L141.704 94.7153L139.822 94.8899L139.539 91.837L138.34 91.9482L136.477 95.2003L134.455 95.3878L136.498 91.7957C135.89 91.5991 135.391 91.2751 135.002 90.8238C134.623 90.3716 134.404 89.8341 134.347 89.2115C134.29 88.6074 134.39 88.0592 134.644 87.567C134.898 87.0747 135.279 86.6785 135.785 86.3785C136.3 86.0683 136.906 85.8808 137.603 85.8162L140.851 85.5148ZM139.123 87.3483L137.701 87.4802C137.236 87.5233 136.872 87.6883 136.608 87.9753C136.344 88.2622 136.232 88.6194 136.272 89.0469C136.311 89.4744 136.487 89.8049 136.799 90.0384C137.111 90.2626 137.499 90.3532 137.963 90.3101L139.385 90.1781L139.123 87.3483ZM161.803 91.1355L162.143 94.8018L160.261 94.9763L160.079 93.0108L154.35 93.5423L154.532 95.5078L152.65 95.6824L152.31 92.0162L153.049 91.9476C153.418 91.5853 153.646 90.9127 153.733 89.9298C153.819 88.9376 153.783 87.5818 153.623 85.8625L153.482 84.3431L159.881 83.7495L160.576 91.2493L161.803 91.1355ZM155.41 85.8795C155.524 87.3032 155.555 88.5 155.504 89.4702C155.462 90.4302 155.327 91.1926 155.098 91.7575L158.695 91.4239L158.157 85.6248L155.41 85.8795ZM173.16 82.3489L174.029 91.7167L172.147 91.8913L171.618 86.1897L166.768 92.559L166.154 92.6159L165.285 83.2481L167.167 83.0735L167.691 88.7193L172.533 82.4071L173.16 82.3489ZM185.301 81.3914L186.154 90.5919L184.272 90.7664L183.576 83.2666L180.928 83.5124C181.082 85.4759 181.094 87.026 180.965 88.1628C180.845 89.2894 180.597 90.0998 180.221 90.5939C179.845 91.0881 179.327 91.3658 178.667 91.427C178.398 91.452 178.128 91.4301 177.86 91.3613L177.711 89.7582C177.768 89.7716 177.895 89.7693 178.09 89.7512C178.462 89.7167 178.74 89.48 178.924 89.0411C179.117 88.6013 179.226 87.9492 179.249 87.0847C179.28 86.2101 179.24 85.0749 179.129 83.6792L178.986 81.9772L185.301 81.3914ZM190.206 80.9363L196.395 80.3621L196.553 82.0628L192.246 82.4624L192.419 84.3304L195.583 84.0368L195.732 85.64L192.568 85.9335L192.784 88.2615L197.259 87.8464L197.416 89.5471L191.06 90.1368L190.206 80.9363ZM200.985 79.9364L204.442 79.6156C205.084 79.5562 205.667 79.6286 206.192 79.833C206.716 80.028 207.139 80.3403 207.46 80.7698C207.789 81.1892 207.981 81.6916 208.036 82.2771C208.09 82.8626 207.994 83.3964 207.748 83.8785C207.511 84.3504 207.153 84.7352 206.674 85.0326C206.196 85.3301 205.636 85.5086 204.995 85.5681L203.419 85.7142L203.721 88.9623L201.839 89.1368L200.985 79.9364ZM204.842 83.9231C205.279 83.8826 205.607 83.7303 205.826 83.4663C206.054 83.1921 206.149 82.8552 206.112 82.4556C206.076 82.0652 205.921 81.7609 205.647 81.5426C205.374 81.3242 205.024 81.2349 204.596 81.2745L203.021 81.4206L203.267 84.0693L204.842 83.9231ZM217.099 86.512L213.335 86.8612L212.93 88.1079L210.909 88.2954L214.152 78.5461L214.78 78.4879L219.747 87.4755L217.726 87.663L217.099 86.512ZM214.785 82.0306L213.847 85.2531L216.3 85.0255L214.785 82.0306ZM262.414 74.2377L268.604 73.6636L268.762 75.3643L264.454 75.7639L264.627 77.6318L267.792 77.3383L267.94 78.9414L264.776 79.2349L264.992 81.563L269.467 81.1478L269.625 82.8485L263.268 83.4382L262.414 74.2377ZM281.028 72.511L281.897 81.8788L281.27 81.937L275.417 76.7434L275.929 82.2637L274.047 82.4383L273.178 73.0705L273.791 73.0136L279.655 78.178L279.146 72.6856L281.028 72.511ZM288.154 73.5653L285.213 73.8381L285.055 72.1374L292.834 71.4158L292.991 73.1165L290.036 73.3907L290.732 80.8905L288.85 81.0651L288.154 73.5653ZM303.361 79.7189L300.676 76.692L299.296 76.82L299.597 80.0681L297.715 80.2426L296.862 71.0421L300.319 70.7214C300.96 70.6619 301.543 70.7344 302.068 70.9388C302.593 71.1338 303.015 71.4461 303.336 71.8756C303.666 72.295 303.858 72.7974 303.912 73.3829C303.966 73.9684 303.871 74.5022 303.625 74.9843C303.379 75.4664 303.017 75.8562 302.538 76.1537L305.48 79.5223L303.361 79.7189ZM299.142 75.1611L300.717 75.015C301.154 74.9745 301.482 74.8222 301.701 74.5582C301.93 74.2932 302.025 73.961 301.988 73.5614C301.952 73.171 301.797 72.8667 301.524 72.6484C301.251 72.43 300.9 72.3407 300.473 72.3803L298.898 72.5264L299.142 75.1611ZM312.832 75.1847L313.168 78.8092L311.286 78.9837L310.951 75.3732L307.254 70.0781L309.345 69.8841L311.719 73.3476L313.402 69.5078L315.479 69.3151L312.832 75.1847ZM325.589 77.6569L323.354 74.785L321.686 78.019L319.539 78.2181L322.157 73.251L318.867 69.0008L321.013 68.8017L323.053 71.537L324.54 68.4745L326.673 68.2766L324.262 73.0558L327.722 77.459L325.589 77.6569ZM376.969 67.871C377.498 68.0095 377.924 68.2605 378.248 68.6241C378.572 68.9784 378.759 69.4344 378.811 69.992C378.859 70.5124 378.773 70.9938 378.551 71.4361C378.338 71.8683 378.01 72.2221 377.567 72.4976C377.132 72.7629 376.622 72.9227 376.037 72.977L371.938 73.3572L371.085 64.1567L374.347 63.8541C374.904 63.8023 375.417 63.8673 375.883 64.049C376.349 64.2213 376.721 64.4915 376.999 64.8594C377.285 65.2171 377.452 65.6469 377.498 66.1488C377.56 66.8179 377.384 67.392 376.969 67.871ZM373.047 65.6056L373.242 67.7106L374.539 67.5903C374.92 67.555 375.204 67.4349 375.391 67.23C375.587 67.015 375.67 66.7449 375.639 66.4196C375.609 66.0944 375.479 65.8487 375.248 65.6827C375.026 65.5158 374.725 65.45 374.344 65.4854L373.047 65.6056ZM375.747 71.3728C376.156 71.3349 376.467 71.2029 376.681 70.9769C376.894 70.7509 376.984 70.4567 376.95 70.0943C376.918 69.7411 376.776 69.4731 376.524 69.2902C376.272 69.098 375.942 69.0209 375.533 69.0588L373.386 69.2579L373.601 71.572L375.747 71.3728ZM388.284 71.8408L386.049 68.969L384.381 72.2029L382.234 72.4021L384.852 67.435L381.562 63.1848L383.709 62.9856L385.748 65.7209L387.235 62.6584L389.368 62.4606L386.957 67.2397L390.417 71.643L388.284 71.8408ZM398.474 71.0643C397.582 71.147 396.745 71.0138 395.962 70.6645C395.18 70.3153 394.537 69.7985 394.033 69.1141C393.528 68.4205 393.235 67.6322 393.153 66.7493C393.071 65.8665 393.215 65.0423 393.584 64.2769C393.953 63.5022 394.49 62.8713 395.194 62.3841C395.899 61.8969 396.697 61.612 397.59 61.5292C398.482 61.4464 399.319 61.5797 400.101 61.9289C400.893 62.2773 401.541 62.7983 402.046 63.4919C402.559 64.1755 402.857 64.9586 402.939 65.8415C403.021 66.7244 402.873 67.5536 402.495 68.3292C402.125 69.0946 401.583 69.7213 400.869 70.2093C400.165 70.6965 399.366 70.9815 398.474 71.0643ZM398.326 69.3204C398.884 69.2687 399.374 69.0967 399.797 68.8044C400.228 68.5019 400.548 68.1114 400.757 67.6327C400.974 67.1439 401.055 66.6068 401.001 66.0213C400.948 65.4451 400.77 64.9414 400.467 64.5101C400.173 64.0687 399.786 63.7391 399.307 63.5211C398.837 63.3022 398.323 63.2187 397.765 63.2704C397.198 63.323 396.704 63.5001 396.282 63.8017C395.859 64.094 395.539 64.4846 395.322 64.9734C395.113 65.452 395.036 65.9841 395.09 66.5696C395.145 67.1551 395.319 67.6685 395.613 68.1099C395.915 68.5411 396.302 68.8662 396.772 69.085C397.241 69.2946 397.759 69.373 398.326 69.3204ZM416.015 67.553L416.355 71.2193L414.473 71.3938L414.291 69.4283L408.561 69.9598L408.744 71.9253L406.862 72.0999L406.522 68.4337L407.26 68.3651C407.63 68.0028 407.858 67.3302 407.945 66.3473C408.031 65.3551 407.994 63.9993 407.835 62.28L407.694 60.7606L414.092 60.167L414.788 67.6668L416.015 67.553ZM409.622 62.297C409.735 63.7207 409.767 64.9175 409.716 65.8877C409.674 66.8477 409.538 67.6101 409.31 68.175L412.906 67.8414L412.368 62.0423L409.622 62.297ZM435.545 65.7413L435.885 69.4075L434.003 69.5821L433.82 67.6165L428.091 68.148L428.273 70.1136L426.391 70.2882L426.051 66.6219L426.79 66.5534C427.16 66.1911 427.388 65.5184 427.475 64.5355C427.561 63.5433 427.524 62.1876 427.365 60.4683L427.224 58.9488L433.622 58.3553L434.318 65.8551L435.545 65.7413ZM429.152 60.4853C429.265 61.9089 429.296 63.1058 429.246 64.076C429.204 65.036 429.068 65.7984 428.839 66.3633L432.436 66.0297L431.898 60.2305L429.152 60.4853ZM446.262 57.1827L447.115 66.3832L445.233 66.5578L444.538 59.058L441.889 59.3037C442.043 61.2672 442.056 62.8174 441.927 63.9541C441.806 65.0807 441.558 65.8911 441.182 66.3853C440.806 66.8795 440.288 67.1572 439.628 67.2184C439.359 67.2434 439.09 67.2215 438.821 67.1527L438.672 65.5496C438.73 65.563 438.856 65.5606 439.051 65.5425C439.423 65.508 439.701 65.2714 439.885 64.8325C440.079 64.3927 440.187 63.7406 440.21 62.8761C440.241 62.0015 440.201 60.8663 440.091 59.4705L439.947 57.7685L446.262 57.1827ZM457.858 56.1069L458.712 65.3074L456.83 65.482L456.547 62.4291L455.348 62.5403L453.484 65.7924L451.463 65.9799L453.506 62.3878C452.897 62.1912 452.399 61.8672 452.01 61.4159C451.63 60.9636 451.412 60.4262 451.354 59.8035C451.298 59.1995 451.397 58.6513 451.652 58.159C451.906 57.6668 452.286 57.2706 452.793 56.9706C453.307 56.6603 453.913 56.4729 454.61 56.4082L457.858 56.1069ZM456.13 57.9404L454.709 58.0723C454.244 58.1154 453.88 58.2804 453.616 58.5674C453.352 58.8543 453.24 59.2115 453.279 59.639C453.319 60.0665 453.495 60.397 453.807 60.6305C454.118 60.8547 454.506 60.9453 454.971 60.9021L456.393 60.7702L456.13 57.9404ZM478.811 61.7276L479.151 65.3938L477.269 65.5684L477.087 63.6029L471.357 64.1344L471.54 66.0999L469.658 66.2745L469.318 62.6082L470.056 62.5397C470.426 62.1774 470.654 61.5047 470.741 60.5219C470.827 59.5297 470.79 58.1739 470.631 56.4546L470.49 54.9352L476.888 54.3416L477.584 61.8414L478.811 61.7276ZM472.418 56.4716C472.531 57.8952 472.563 59.0921 472.512 60.0623C472.47 61.0223 472.334 61.7847 472.106 62.3496L475.702 62.016L475.164 56.2169L472.418 56.4716ZM490.168 52.941L491.037 62.3088L489.155 62.4833L488.626 56.7818L483.775 63.1511L483.162 63.208L482.293 53.8402L484.175 53.6656L484.699 59.3114L489.54 52.9992L490.168 52.941ZM502.308 51.9835L503.162 61.184L501.28 61.3585L500.584 53.8587L497.935 54.1044C498.089 56.0679 498.102 57.6181 497.973 58.7548C497.853 59.8815 497.604 60.6918 497.228 61.186C496.853 61.6802 496.335 61.9579 495.675 62.0191C495.405 62.0441 495.136 62.0222 494.867 61.9534L494.719 60.3503C494.776 60.3637 494.902 60.3614 495.098 60.3433C495.469 60.3088 495.747 60.0721 495.932 59.6332C496.125 59.1934 496.233 58.5413 496.256 57.6768C496.288 56.8022 496.248 55.667 496.137 54.2713L495.993 52.5693L502.308 51.9835ZM507.214 51.5284L513.403 50.9542L513.561 52.6549L509.253 53.0545L509.427 54.9225L512.591 54.6289L512.74 56.2321L509.575 56.5256L509.791 58.8536L514.266 58.4385L514.424 60.1392L508.067 60.7289L507.214 51.5284ZM517.993 50.5284L521.45 50.2077C522.091 50.1482 522.674 50.2207 523.2 50.4251C523.724 50.6201 524.146 50.9324 524.467 51.3619C524.797 51.7813 524.989 52.2837 525.043 52.8692C525.097 53.4547 525.002 53.9885 524.756 54.4706C524.518 54.9425 524.16 55.3272 523.682 55.6247C523.203 55.9222 522.643 56.1007 522.002 56.1602L520.427 56.3063L520.728 59.5544L518.846 59.7289L517.993 50.5284ZM521.85 54.5152C522.286 54.4747 522.614 54.3224 522.834 54.0584C523.061 53.7842 523.157 53.4473 523.119 53.0477C523.083 52.6573 522.928 52.353 522.655 52.1346C522.382 51.9163 522.031 51.8269 521.604 51.8666L520.029 52.0127L520.274 54.6614L521.85 54.5152ZM534.107 57.1041L530.343 57.4533L529.938 58.7L527.917 58.8875L531.16 49.1382L531.787 49.08L536.755 58.0676L534.734 58.2551L534.107 57.1041ZM531.793 52.6227L530.854 55.8451L533.308 55.6175L531.793 52.6227Z" fill="#181F20"/>
</g>
</svg>
