<svg width="167" height="33" viewBox="0 0 167 33" fill="none" xmlns="http://www.w3.org/2000/svg">
<path fill-rule="evenodd" clip-rule="evenodd" d="M24.3249 0.253906H0V4.46399H24.3249V0.253906ZM87.4766 0.253906V4.46399L99.639 4.2301C102.212 4.2301 104.785 5.39956 104.785 9.14186C104.785 12.8842 102.212 14.7553 99.639 14.7553H87.4766V14.7559H87.4755V32.9996H91.6855V18.4976H96.8684L105.252 32.9985H110.631L101.795 18.4974C105.75 18.4697 109.229 15.1973 109.229 9.14186C109.229 3.9962 106.188 0.253906 101.744 0.253906H87.4766ZM154.137 20.837L156.476 17.5625L167.001 32.9995H162.557L154.137 20.837ZM139.869 0.253906L148.991 13.8197L151.564 10.3113L144.547 0.253906H139.869ZM165.597 0.253906H160.451L138.465 32.999H143.377L165.597 0.253906ZM0 13.8203H19.6471V18.0304H0V13.8203ZM25.2605 28.7889H0V32.999H25.2605V28.7889ZM34.1485 0.253906V32.999H29.9384L29.9384 0.253906H34.1485ZM74.3789 32.9988V6.80273H70.1688V32.9988H74.3789ZM59.4094 4.46484L84.6699 4.46484V0.254762L59.4094 0.25476L59.4094 4.46484ZM57.0703 0.253906V32.999H52.8602L51.4566 32.999L36.0196 9.37573V1.18946L52.3922 26.45H52.8602V0.253906H57.0703ZM115.076 0.253906H110.164L120.923 16.8603L123.262 13.1181L115.076 0.253906ZM138.464 0.253906H133.786L122.092 18.4976V32.999H126.536V18.4976L138.464 0.253906Z" fill="url(#paint0_linear_1_94)"/>
<defs>
<linearGradient id="paint0_linear_1_94" x1="130.279" y1="0.253906" x2="130.279" y2="32.9996" gradientUnits="userSpaceOnUse">
<stop stop-color="white"/>
<stop offset="1" stop-color="white"/>
</linearGradient>
</defs>
</svg>
