<svg width="1440" height="291" viewBox="0 0 1440 291" fill="none" xmlns="http://www.w3.org/2000/svg">
<path d="M913.295 290.981L836.393 157.961H880.04L961.098 290.981H913.295Z" fill="#ECECEC"/>
<path d="M755.334 37.4118V0H882.118C921.609 0 948.628 33.2549 948.628 78.9804C948.628 133.02 917.452 162.118 882.118 162.118H755.334V128.863H863.412C886.275 128.863 909.138 112.235 909.138 78.9804C909.138 45.7255 886.275 35.3333 863.412 35.3333L755.334 37.4118Z" fill="#ECECEC"/>
<path d="M1347.69 182.903L1368.47 153.805L1462 290.981H1422.51L1347.69 182.903Z" fill="#ECECEC"/>
<path d="M1301.96 120.549L1220.9 0H1262.47L1324.82 89.3725L1301.96 120.549Z" fill="#ECECEC"/>
<path d="M1449.53 0H1403.8L1208.43 290.98H1252.08L1449.53 0Z" fill="#ECECEC"/>
<rect x="-22" width="216.157" height="37.4118" fill="#ECECEC"/>
<rect x="-22" y="120.551" width="174.588" height="37.4118" fill="#ECECEC"/>
<rect x="-22" y="253.57" width="224.471" height="37.4118" fill="#ECECEC"/>
<rect x="281.451" width="290.98" height="37.4118" transform="rotate(90 281.451 0)" fill="#ECECEC"/>
<rect x="638.941" y="58.1973" width="232.784" height="37.4118" transform="rotate(90 638.941 58.1973)" fill="#ECECEC"/>
<rect x="792.746" y="128.863" width="162.118" height="37.4118" transform="rotate(90 792.746 128.863)" fill="#ECECEC"/>
<rect x="730.393" y="37.4121" width="224.471" height="37.4117" transform="rotate(-180 730.393 37.4121)" fill="#ECECEC"/>
<rect x="485.137" width="290.98" height="37.4118" transform="rotate(90 485.137 0)" fill="#ECECEC"/>
<path d="M298.078 81.0596V8.31445L443.568 232.785H451.882V290.981H435.255L298.078 81.0596Z" fill="#ECECEC"/>
<path d="M1000.59 0H956.941L1052.55 147.569L1073.33 114.314L1000.59 0Z" fill="#ECECEC"/>
<path d="M1166.86 0H1208.43L1102.43 162.118V290.98H1062.94V162.118L1166.86 0Z" fill="#ECECEC"/>
</svg>
