<svg width="117" height="45" viewBox="0 0 117 45" fill="none" xmlns="http://www.w3.org/2000/svg">
<rect x="0.990234" y="0.375" width="116.01" height="44.2513" rx="6" fill="#F7F7F7"/>
<path d="M11.7538 12.6969C11.7538 12.2901 11.8464 11.9827 11.9892 11.7698L22.3905 22.2126C22.403 22.225 22.4099 22.2419 22.4099 22.2595C22.4099 22.2771 22.403 22.2939 22.3905 22.3065L11.9888 32.7488C11.8462 32.5361 11.7538 32.2292 11.7538 31.8222V12.6969Z" fill="#181F20" stroke="white" stroke-width="0.4"/>
<path d="M30.3834 23.3027L26.2473 25.6618L22.9079 22.3078C22.8956 22.2954 22.8885 22.2784 22.8885 22.2608C22.8885 22.2432 22.8955 22.2263 22.9079 22.2139L26.2473 18.8616L30.3835 21.2208C30.9414 21.5391 31.1653 21.9251 31.1653 22.2614C31.1653 22.5976 30.9413 22.984 30.3834 23.3027Z" fill="#181F20" stroke="white" stroke-width="0.4"/>
<g filter="url(#filter0_d_159_5)">
<path d="M26.2874 25.9128L22.6488 22.26L11.9139 33.0377C12.3102 33.4596 12.9656 33.5115 13.7039 33.0913L26.2874 25.9128Z" fill="#181F20"/>
</g>
<path d="M12.2694 33.0186L22.6487 22.5979L25.8971 25.859L13.5854 32.8824C13.0267 33.2005 12.5754 33.2005 12.2694 33.0186Z" stroke="white" stroke-width="0.4"/>
<path d="M13.5854 11.6386L25.8973 18.6613L22.6496 21.9231L12.2694 11.5024C12.5755 11.3202 13.0268 11.3199 13.5854 11.6386Z" fill="#181F20" stroke="white" stroke-width="0.4"/>
<path d="M58.4393 23.3058C56.5257 23.3058 54.9662 24.7605 54.9662 26.7641C54.9662 28.7555 56.5257 30.2225 58.4393 30.2225C60.3536 30.2225 61.9133 28.7555 61.9133 26.7641C61.9124 24.7605 60.3529 23.3058 58.4393 23.3058ZM58.4393 28.8613C57.3906 28.8613 56.4868 27.9969 56.4868 26.7649C56.4868 25.5201 57.3914 24.6686 58.4393 24.6686C59.488 24.6686 60.3919 25.5201 60.3919 26.7649C60.3919 27.9961 59.488 28.8613 58.4393 28.8613ZM50.8617 23.3058C48.9481 23.3058 47.3886 24.7605 47.3886 26.7641C47.3886 28.7555 48.9481 30.2225 50.8617 30.2225C52.776 30.2225 54.3357 28.7555 54.3357 26.7641C54.3357 24.7605 52.776 23.3058 50.8617 23.3058ZM50.8617 28.8613C49.813 28.8613 48.9092 27.9969 48.9092 26.7649C48.9092 25.5201 49.8138 24.6686 50.8617 24.6686C51.9103 24.6686 52.8143 25.5201 52.8143 26.7649C52.8151 27.9961 51.9103 28.8613 50.8617 28.8613ZM41.8489 24.3677V25.8347H45.3619C45.257 26.6601 44.982 27.2626 44.5621 27.6814C44.0512 28.1921 43.2516 28.7555 41.8489 28.7555C39.6865 28.7555 37.9958 27.013 37.9958 24.8516C37.9958 22.6902 39.6865 20.9476 41.8489 20.9476C43.0156 20.9476 43.8674 21.4062 44.4963 21.9957L45.5319 20.9606C44.6533 20.1222 43.4874 19.4807 41.8489 19.4807C38.8867 19.4807 36.3963 21.8909 36.3963 24.8516C36.3963 27.8123 38.8867 30.2225 41.8489 30.2225C43.4476 30.2225 44.6541 29.6981 45.597 28.7157C46.5668 27.7465 46.8687 26.3836 46.8687 25.2834C46.8687 24.9435 46.8426 24.6288 46.7898 24.3669L41.8489 24.3677ZM78.7103 25.507C78.4223 24.7345 77.5437 23.3058 75.7481 23.3058C73.9655 23.3058 72.4841 24.7076 72.4841 26.7641C72.4841 28.7027 73.9525 30.2225 75.9181 30.2225C77.5038 30.2225 78.4215 29.2532 78.8022 28.6898L77.6226 27.9034C77.2296 28.4799 76.6919 28.8597 75.9181 28.8597C75.1452 28.8597 74.5945 28.5059 74.2405 27.8116L78.8674 25.8989L78.7103 25.507ZM73.9916 26.6601C73.9525 25.3232 75.0273 24.6426 75.801 24.6426C76.4038 24.6426 76.9148 24.9443 77.0856 25.3761L73.9916 26.6601ZM70.2305 30.0136H71.7502V19.8482H70.2305V30.0136ZM67.7393 24.0791H67.6872C67.3463 23.6725 66.6906 23.3058 65.8656 23.3058C64.1352 23.3058 62.5495 24.8255 62.5495 26.778C62.5495 28.7165 64.1352 30.2234 65.8656 30.2234C66.6913 30.2234 67.3463 29.8566 67.6872 29.4378H67.7393V29.9355C67.7393 31.2585 67.0315 31.9659 65.8916 31.9659C64.9609 31.9659 64.3841 31.2983 64.1482 30.7348L62.8245 31.2853C63.2045 32.2018 64.2133 33.3288 65.8916 33.3288C67.6742 33.3288 69.1817 32.2807 69.1817 29.7257V23.5164H67.7401L67.7393 24.0791ZM65.9966 28.8613C64.948 28.8613 64.0701 27.9831 64.0701 26.778C64.0701 25.559 64.948 24.6686 65.9966 24.6686C67.0315 24.6686 67.8443 25.559 67.8443 26.778C67.8443 27.9831 67.0315 28.8613 65.9966 28.8613ZM85.8323 19.8482H82.1948V30.0136H83.7122V26.1624H85.8316C87.5139 26.1624 89.1688 24.9451 89.1688 23.0057C89.1688 21.0663 87.5148 19.8482 85.8323 19.8482ZM85.8714 24.7474H83.7122V21.2631H85.8714C87.0064 21.2631 87.6507 22.2023 87.6507 23.0057C87.6507 23.7928 87.0064 24.7474 85.8714 24.7474ZM95.2535 23.2879C94.1544 23.2879 93.0162 23.7718 92.5451 24.8443L93.8925 25.4062C94.1805 24.8443 94.7173 24.6605 95.2796 24.6605C96.0646 24.6605 96.8628 25.1314 96.8758 25.9681V26.073C96.6008 25.916 96.0117 25.681 95.2926 25.681C93.8403 25.681 92.3613 26.4788 92.3613 27.9693C92.3613 29.3297 93.5523 30.2054 94.8866 30.2054C95.9068 30.2054 96.4698 29.7476 96.8229 29.211H96.875V29.9956H98.341V26.0982C98.3419 24.2945 96.9929 23.2879 95.2535 23.2879ZM95.0697 28.8589C94.5733 28.8589 93.8794 28.61 93.8794 27.9953C93.8794 27.2106 94.7434 26.9097 95.4895 26.9097C96.1557 26.9097 96.4706 27.0537 96.8758 27.2496C96.7578 28.1921 95.9467 28.8589 95.0697 28.8589ZM103.68 23.5098L101.939 27.9172H101.887L100.081 23.5098H98.446L101.154 29.6696L99.6102 33.0962H101.193L105.368 23.5098H103.68ZM90.0067 30.0136H91.5241V19.8482H90.0067V30.0136Z" fill="#181F20"/>
<path d="M41.6591 13.8361C41.6591 14.5052 41.4574 15.0378 41.0534 15.4353C40.595 15.908 39.9968 16.1444 39.262 16.1444C38.558 16.1444 37.959 15.9049 37.4672 15.4258C36.9747 14.9459 36.7283 14.3519 36.7283 13.6429C36.7283 12.9331 36.9747 12.3391 37.4672 11.86C37.959 11.3801 38.558 11.1406 39.262 11.1406C39.6116 11.1406 39.9456 11.2077 40.2627 11.341C40.5804 11.4752 40.8348 11.6532 41.0251 11.876L40.5967 12.2976C40.274 11.9183 39.8294 11.7291 39.2611 11.7291C38.7475 11.7291 38.3036 11.9064 37.9289 12.2609C37.5542 12.6153 37.3672 13.076 37.3672 13.6421C37.3672 14.2081 37.5542 14.6688 37.9289 15.0233C38.3036 15.3779 38.7475 15.5552 39.2611 15.5552C39.8058 15.5552 40.2602 15.3771 40.6235 15.0202C40.8592 14.7878 40.9958 14.4644 41.0324 14.0502H39.2611V13.4744H41.6242C41.6486 13.5998 41.6591 13.7203 41.6591 13.8361Z" fill="#181F20"/>
<path d="M45.4058 11.8348H43.1851V13.3533H45.188V13.9291H43.1851V15.4476H45.4058V16.0369H42.5584V11.2463H45.4058V11.8348Z" fill="#181F20"/>
<path d="M48.0494 16.0369H47.4227V11.8348H46.0604V11.2463H49.4118V11.8348H48.0494V16.0369Z" fill="#181F20"/>
<path d="M51.8358 16.0369V11.2463H52.4625V16.0369H51.8358Z" fill="#181F20"/>
<path d="M55.2408 16.0369H54.6141V11.8348H53.2518V11.2463H56.6032V11.8348H55.2408V16.0369Z" fill="#181F20"/>
<path d="M62.9482 15.4185C62.4686 15.9023 61.8728 16.1443 61.1599 16.1443C60.4471 16.1443 59.8512 15.9023 59.3725 15.4185C58.8929 14.9347 58.6539 14.3422 58.6539 13.6419C58.6539 12.9418 58.8929 12.3493 59.3725 11.8654C59.8512 11.3817 60.4471 11.1389 61.1599 11.1389C61.8687 11.1389 62.4637 11.3824 62.9449 11.8687C63.4261 12.355 63.6668 12.9458 63.6668 13.6419C63.6668 14.3422 63.427 14.9347 62.9482 15.4185ZM59.835 15.0168C60.1959 15.3762 60.6372 15.555 61.1599 15.555C61.6825 15.555 62.1248 15.3754 62.4849 15.0168C62.8457 14.6576 63.027 14.1993 63.027 13.6419C63.027 13.0847 62.8457 12.6264 62.4849 12.267C62.1248 11.9078 61.6825 11.729 61.1599 11.729C60.6372 11.729 60.1959 11.9086 59.835 12.267C59.4749 12.6264 59.2937 13.0847 59.2937 13.6419C59.2937 14.1993 59.4749 14.6576 59.835 15.0168Z" fill="#181F20"/>
<path d="M64.5467 16.0369V11.2463H65.3092L67.6794 14.9726H67.7063L67.6794 14.0496V11.2463H68.306V16.0369H67.6517L65.1717 12.1294H65.145L65.1717 13.0524V16.0369H64.5467Z" fill="#181F20"/>
<defs>
<filter id="filter0_d_159_5" x="11.9139" y="22.1515" width="14.3735" height="11.23" filterUnits="userSpaceOnUse" color-interpolation-filters="sRGB">
<feFlood flood-opacity="0" result="BackgroundImageFix"/>
<feColorMatrix in="SourceAlpha" type="matrix" values="0 0 0 0 0 0 0 0 0 0 0 0 0 0 0 0 0 0 127 0" result="hardAlpha"/>
<feOffset dy="-0.10846"/>
<feComposite in2="hardAlpha" operator="out"/>
<feColorMatrix type="matrix" values="0 0 0 0 0 0 0 0 0 0 0 0 0 0 0 0 0 0 0.08 0"/>
<feBlend mode="normal" in2="BackgroundImageFix" result="effect1_dropShadow_159_5"/>
<feBlend mode="normal" in="SourceGraphic" in2="effect1_dropShadow_159_5" result="shape"/>
</filter>
</defs>
</svg>
