<svg width="25" height="24" viewBox="0 0 25 24" fill="none" xmlns="http://www.w3.org/2000/svg">
<path d="M22.2738 6.5H16.2305" stroke="black" stroke-miterlimit="10" stroke-linecap="round" stroke-linejoin="round"/>
<path d="M6.15779 6.5H2.12891" stroke="black" stroke-miterlimit="10" stroke-linecap="round" stroke-linejoin="round"/>
<path d="M13.7107 6.5C13.7107 8.43 12.1294 10 10.1854 10C8.24149 10 6.66016 8.43 6.66016 6.5C6.66016 4.57 8.24149 3 10.1854 3C10.5279 3 10.8603 3.05 11.1725 3.14" stroke="black" stroke-miterlimit="10" stroke-linecap="round" stroke-linejoin="round"/>
<path d="M22.2711 17.5H18.2422" stroke="black" stroke-miterlimit="10" stroke-linecap="round" stroke-linejoin="round"/>
<path d="M8.17223 17.5H2.12891" stroke="black" stroke-miterlimit="10" stroke-linecap="round" stroke-linejoin="round"/>
<path d="M14.2128 21C16.1597 21 17.738 19.433 17.738 17.5C17.738 15.567 16.1597 14 14.2128 14C12.2658 14 10.6875 15.567 10.6875 17.5C10.6875 19.433 12.2658 21 14.2128 21Z" stroke="black" stroke-miterlimit="10" stroke-linecap="round" stroke-linejoin="round"/>
</svg>
