<svg width="16" height="18" viewBox="0 0 16 18" fill="none" xmlns="http://www.w3.org/2000/svg">
<path fill-rule="evenodd" clip-rule="evenodd" d="M11.3754 5.0625V4.5C11.3754 2.63604 9.86438 1.125 8.00042 1.125C6.13646 1.125 4.62542 2.63604 4.62542 4.5V5.0625H3.13502C2.41536 5.0625 1.81183 5.60583 1.7365 6.32154L0.789127 15.3215C0.701727 16.1518 1.35276 16.875 2.18765 16.875H13.8132C14.6481 16.875 15.2991 16.1518 15.2117 15.3215L14.2644 6.32154C14.189 5.60583 13.5855 5.0625 12.8658 5.0625H11.3754ZM8.00042 2.25C6.75778 2.25 5.75042 3.25736 5.75042 4.5V5.0625H10.2504V4.5C10.2504 3.25736 9.24306 2.25 8.00042 2.25ZM10.2504 6.1875H5.75042V7.24609C5.92304 7.40059 6.03167 7.62511 6.03167 7.875C6.03167 8.34099 5.65391 8.71875 5.18792 8.71875C4.72193 8.71875 4.34417 8.34099 4.34417 7.875C4.34417 7.62511 4.45281 7.40059 4.62542 7.24609V6.1875H3.13502C2.99109 6.1875 2.87038 6.29617 2.85531 6.43931L1.90795 15.4393C1.89047 15.6054 2.02067 15.75 2.18765 15.75H13.8132C13.9802 15.75 14.1104 15.6054 14.0929 15.4393L13.1455 6.43931C13.1305 6.29617 13.0098 6.1875 12.8658 6.1875H11.3754V7.2461C11.548 7.40059 11.6567 7.62511 11.6567 7.875C11.6567 8.34099 11.2789 8.71875 10.8129 8.71875C10.3469 8.71875 9.96917 8.34099 9.96917 7.875C9.96917 7.62511 10.0778 7.40059 10.2504 7.24609V6.1875Z" fill="white" stroke="white" stroke-width="0.3" stroke-linecap="round" stroke-linejoin="round"/>
</svg>
