<svg width="14" height="14" viewBox="0 0 14 14" fill="none" xmlns="http://www.w3.org/2000/svg">
<path fill-rule="evenodd" clip-rule="evenodd" d="M7.00065 1.66732C5.35132 1.66732 5.08198 1.67198 4.31465 1.70598C3.79198 1.73065 3.44132 1.80065 3.11598 1.92732C2.82665 2.03932 2.61798 2.17332 2.39598 2.39598C2.18732 2.59758 2.02689 2.84371 1.92665 3.11598C1.79998 3.44265 1.72998 3.79265 1.70598 4.31465C1.67132 5.05065 1.66732 5.30798 1.66732 7.00065C1.66732 8.64998 1.67198 8.91932 1.70598 9.68665C1.73065 10.2086 1.80065 10.56 1.92665 10.8847C2.03998 11.1747 2.17332 11.3833 2.39465 11.6047C2.61932 11.8287 2.82798 11.9627 3.11465 12.0733C3.44398 12.2007 3.79465 12.2713 4.31465 12.2953C5.05065 12.33 5.30798 12.334 7.00065 12.334C8.64998 12.334 8.91932 12.3293 9.68665 12.2953C10.208 12.2706 10.5593 12.2007 10.8847 12.0747C11.1733 11.962 11.3833 11.828 11.6047 11.6067C11.8293 11.382 11.9633 11.1733 12.074 10.8867C12.2007 10.558 12.2713 10.2066 12.2953 9.68665C12.33 8.95065 12.334 8.69332 12.334 7.00065C12.334 5.35132 12.3293 5.08198 12.2953 4.31465C12.2706 3.79332 12.2007 3.44132 12.074 3.11598C11.9735 2.84399 11.8134 2.59796 11.6053 2.39598C11.4038 2.18721 11.1577 2.02676 10.8853 1.92665C10.5587 1.79998 10.208 1.72998 9.68665 1.70598C8.95065 1.67132 8.69332 1.66732 7.00065 1.66732ZM9.35767 4.64363C8.73255 4.01851 7.88471 3.66732 7.00065 3.66732C6.1166 3.66732 5.26875 4.01851 4.64363 4.64363C4.01851 5.26875 3.66732 6.1166 3.66732 7.00065C3.66732 7.88471 4.01851 8.73255 4.64363 9.35767C5.26875 9.98279 6.1166 10.334 7.00065 10.334C7.88471 10.334 8.73255 9.98279 9.35767 9.35767C9.98279 8.73255 10.334 7.88471 10.334 7.00065C10.334 6.1166 9.98279 5.26875 9.35767 4.64363ZM11.0899 4.08991C11.2462 3.93363 11.334 3.72166 11.334 3.50065C11.334 3.27964 11.2462 3.06768 11.0899 2.9114C10.9336 2.75512 10.7217 2.66732 10.5007 2.66732C10.2796 2.66732 10.0677 2.75512 9.91139 2.9114C9.75511 3.06768 9.66732 3.27964 9.66732 3.50065C9.66732 3.72166 9.75511 3.93363 9.91139 4.08991C10.0677 4.24619 10.2796 4.33398 10.5007 4.33398C10.7217 4.33398 10.9336 4.24619 11.0899 4.08991Z" fill="url(#paint0_linear_1_234)"/>
<path fill-rule="evenodd" clip-rule="evenodd" d="M7.00065 1.66732C5.35132 1.66732 5.08198 1.67198 4.31465 1.70598C3.79198 1.73065 3.44132 1.80065 3.11598 1.92732C2.82665 2.03932 2.61798 2.17332 2.39598 2.39598C2.18732 2.59758 2.02689 2.84371 1.92665 3.11598C1.79998 3.44265 1.72998 3.79265 1.70598 4.31465C1.67132 5.05065 1.66732 5.30798 1.66732 7.00065C1.66732 8.64998 1.67198 8.91932 1.70598 9.68665C1.73065 10.2086 1.80065 10.56 1.92665 10.8847C2.03998 11.1747 2.17332 11.3833 2.39465 11.6047C2.61932 11.8287 2.82798 11.9627 3.11465 12.0733C3.44398 12.2007 3.79465 12.2713 4.31465 12.2953C5.05065 12.33 5.30798 12.334 7.00065 12.334C8.64998 12.334 8.91932 12.3293 9.68665 12.2953C10.208 12.2706 10.5593 12.2007 10.8847 12.0747C11.1733 11.962 11.3833 11.828 11.6047 11.6067C11.8293 11.382 11.9633 11.1733 12.074 10.8867C12.2007 10.558 12.2713 10.2066 12.2953 9.68665C12.33 8.95065 12.334 8.69332 12.334 7.00065C12.334 5.35132 12.3293 5.08198 12.2953 4.31465C12.2706 3.79332 12.2007 3.44132 12.074 3.11598C11.9735 2.84399 11.8134 2.59796 11.6053 2.39598C11.4038 2.18721 11.1577 2.02676 10.8853 1.92665C10.5587 1.79998 10.208 1.72998 9.68665 1.70598C8.95065 1.67132 8.69332 1.66732 7.00065 1.66732ZM7.00065 0.333984C8.81198 0.333984 9.03798 0.340651 9.74865 0.373984C10.4587 0.407318 10.942 0.518651 11.3673 0.683984C11.8073 0.853318 12.178 1.08265 12.5487 1.45265C12.8876 1.78591 13.15 2.18904 13.3173 2.63398C13.482 3.05865 13.594 3.54265 13.6273 4.25265C13.6587 4.96332 13.6673 5.18932 13.6673 7.00065C13.6673 8.81198 13.6607 9.03798 13.6273 9.74865C13.594 10.4587 13.482 10.942 13.3173 11.3673C13.1504 11.8125 12.8881 12.2157 12.5487 12.5487C12.2153 12.8875 11.8122 13.1498 11.3673 13.3173C10.9426 13.482 10.4587 13.594 9.74865 13.6273C9.03798 13.6587 8.81198 13.6673 7.00065 13.6673C5.18932 13.6673 4.96332 13.6607 4.25265 13.6273C3.54265 13.594 3.05932 13.482 2.63398 13.3173C2.18887 13.1503 1.78567 12.8879 1.45265 12.5487C1.11359 12.2154 0.851272 11.8123 0.683984 11.3673C0.518651 10.9426 0.407318 10.4587 0.373984 9.74865C0.342651 9.03798 0.333984 8.81198 0.333984 7.00065C0.333984 5.18932 0.340651 4.96332 0.373984 4.25265C0.407318 3.54198 0.518651 3.05932 0.683984 2.63398C0.850808 2.18877 1.11319 1.78553 1.45265 1.45265C1.78576 1.11347 2.18894 0.851137 2.63398 0.683984C3.05932 0.518651 3.54198 0.407318 4.25265 0.373984C4.96332 0.342651 5.18932 0.333984 7.00065 0.333984Z" fill="url(#paint1_linear_1_234)"/>
<path d="M7.00065 5.00065C6.47022 5.00065 5.96151 5.21136 5.58644 5.58644C5.21136 5.96151 5.00065 6.47022 5.00065 7.00065C5.00065 7.53108 5.21136 8.03979 5.58644 8.41486C5.96151 8.78994 6.47022 9.00065 7.00065 9.00065C7.53108 9.00065 8.03979 8.78994 8.41486 8.41486C8.78994 8.03979 9.00065 7.53108 9.00065 7.00065C9.00065 6.47022 8.78994 5.96151 8.41486 5.58644C8.03979 5.21136 7.53108 5.00065 7.00065 5.00065Z" fill="url(#paint2_linear_1_234)"/>
<defs>
<linearGradient id="paint0_linear_1_234" x1="0.333984" y1="0.333984" x2="13.6673" y2="13.6673" gradientUnits="userSpaceOnUse">
<stop stop-color="#9FCF13"/>
<stop offset="1" stop-color="#74AA17"/>
</linearGradient>
<linearGradient id="paint1_linear_1_234" x1="0.333984" y1="0.333984" x2="13.6673" y2="13.6673" gradientUnits="userSpaceOnUse">
<stop stop-color="#9FCF13"/>
<stop offset="1" stop-color="#74AA17"/>
</linearGradient>
<linearGradient id="paint2_linear_1_234" x1="0.333984" y1="0.333984" x2="13.6673" y2="13.6673" gradientUnits="userSpaceOnUse">
<stop stop-color="#9FCF13"/>
<stop offset="1" stop-color="#74AA17"/>
</linearGradient>
</defs>
</svg>
