<svg width="24" height="24" viewBox="0 0 24 24" fill="none" xmlns="http://www.w3.org/2000/svg">
<path d="M12 8.99997C11.2044 8.99997 10.4413 9.31604 9.87869 9.87865C9.31609 10.4413 9.00002 11.2043 9.00002 12C9.00002 12.7956 9.31609 13.5587 9.87869 14.1213C10.4413 14.6839 11.2044 15 12 15C12.7957 15 13.5587 14.6839 14.1213 14.1213C14.6839 13.5587 15 12.7956 15 12C15 11.2043 14.6839 10.4413 14.1213 9.87865C13.5587 9.31604 12.7957 8.99997 12 8.99997ZM12 6.99997C13.3261 6.99997 14.5979 7.52675 15.5355 8.46444C16.4732 9.40212 17 10.6739 17 12C17 13.3261 16.4732 14.5978 15.5355 15.5355C14.5979 16.4732 13.3261 17 12 17C10.6739 17 9.40216 16.4732 8.46448 15.5355C7.5268 14.5978 7.00002 13.3261 7.00002 12C7.00002 10.6739 7.5268 9.40212 8.46448 8.46444C9.40216 7.52675 10.6739 6.99997 12 6.99997ZM18.5 6.74997C18.5 7.08149 18.3683 7.39943 18.1339 7.63385C17.8995 7.86827 17.5815 7.99997 17.25 7.99997C16.9185 7.99997 16.6006 7.86827 16.3661 7.63385C16.1317 7.39943 16 7.08149 16 6.74997C16 6.41845 16.1317 6.10051 16.3661 5.86609C16.6006 5.63167 16.9185 5.49997 17.25 5.49997C17.5815 5.49997 17.8995 5.63167 18.1339 5.86609C18.3683 6.10051 18.5 6.41845 18.5 6.74997ZM12 3.99997C9.52602 3.99997 9.12202 4.00697 7.97102 4.05797C7.18702 4.09497 6.66102 4.19997 6.17302 4.38997C5.73902 4.55797 5.42602 4.75897 5.09302 5.09297C4.78002 5.39537 4.53937 5.76455 4.38902 6.17297C4.19902 6.66297 4.09402 7.18797 4.05802 7.97097C4.00602 9.07497 4.00002 9.46097 4.00002 12C4.00002 14.474 4.00702 14.878 4.05802 16.029C4.09502 16.812 4.20002 17.339 4.38902 17.826C4.55902 18.261 4.75902 18.574 5.09102 18.906C5.42802 19.242 5.74102 19.443 6.17102 19.609C6.66502 19.8 7.19102 19.906 7.97102 19.942C9.07502 19.994 9.46102 20 12 20C14.474 20 14.878 19.993 16.029 19.942C16.811 19.905 17.338 19.8 17.826 19.611C18.259 19.442 18.574 19.241 18.906 18.909C19.243 18.572 19.444 18.259 19.61 17.829C19.8 17.336 19.906 16.809 19.942 16.029C19.994 14.925 20 14.539 20 12C20 9.52597 19.993 9.12197 19.942 7.97097C19.905 7.18897 19.8 6.66097 19.61 6.17297C19.4593 5.76497 19.2191 5.39593 18.907 5.09297C18.6047 4.77982 18.2355 4.53914 17.827 4.38897C17.337 4.19897 16.811 4.09397 16.029 4.05797C14.925 4.00597 14.539 3.99997 12 3.99997ZM12 1.99997C14.717 1.99997 15.056 2.00997 16.122 2.05997C17.187 2.10997 17.912 2.27697 18.55 2.52497C19.21 2.77897 19.766 3.12297 20.322 3.67797C20.8305 4.17787 21.224 4.78256 21.475 5.44997C21.722 6.08697 21.89 6.81297 21.94 7.87797C21.987 8.94397 22 9.28297 22 12C22 14.717 21.99 15.056 21.94 16.122C21.89 17.187 21.722 17.912 21.475 18.55C21.2247 19.2177 20.8311 19.8226 20.322 20.322C19.822 20.8303 19.2173 21.2237 18.55 21.475C17.913 21.722 17.187 21.89 16.122 21.94C15.056 21.987 14.717 22 12 22C9.28302 22 8.94402 21.99 7.87802 21.94C6.81301 21.89 6.08802 21.722 5.45002 21.475C4.78234 21.2244 4.17754 20.8309 3.67802 20.322C3.16942 19.8222 2.77595 19.2174 2.52502 18.55C2.27702 17.913 2.11002 17.187 2.06002 16.122C2.01302 15.056 2.00002 14.717 2.00002 12C2.00002 9.28297 2.01002 8.94397 2.06002 7.87797C2.11002 6.81197 2.27702 6.08797 2.52502 5.44997C2.77525 4.78215 3.16882 4.17729 3.67802 3.67797C4.17769 3.1692 4.78244 2.7757 5.45002 2.52497C6.08802 2.27697 6.81202 2.10997 7.87802 2.05997C8.94402 2.01297 9.28302 1.99997 12 1.99997Z" fill="white"/>
</svg>
