<svg width="36" height="36" viewBox="0 0 36 36" fill="none" xmlns="http://www.w3.org/2000/svg">
<g clip-path="url(#clip0_327_2783)">
<path d="M36 18C36 8.05887 27.9411 0 18 0C8.05887 0 0 8.05887 0 18C0 27.9411 8.05887 36 18 36C27.9411 36 36 27.9411 36 18Z" fill="#CCF60E"/>
<path d="M20.7752 12.7504H22.3491L19.1747 15.9248C19.0087 16.0907 19.0087 16.3598 19.1747 16.5258C19.3407 16.6918 19.6098 16.6918 19.7757 16.5258L22.9501 13.3514V14.9253C22.9501 15.16 23.1404 15.3503 23.3751 15.3503C23.6098 15.3503 23.8001 15.16 23.8001 14.9253V12.3254C23.8001 12.0907 23.6098 11.9004 23.3751 11.9004H20.7752C20.5405 11.9004 20.3502 12.0907 20.3502 12.3254C20.3502 12.5601 20.5405 12.7504 20.7752 12.7504ZM23.3751 17.1003C23.1404 17.1003 22.9501 17.2905 22.9501 17.5253V22.0751C22.9501 22.5584 22.5584 22.9501 22.0751 22.9501H13.6254C13.1421 22.9501 12.7504 22.5584 12.7504 22.0751V13.6254C12.7504 13.1421 13.1421 12.7504 13.6254 12.7504H18.1752C18.41 12.7504 18.6002 12.5601 18.6002 12.3254C18.6002 12.0907 18.41 11.9004 18.1752 11.9004H13.6254C12.6727 11.9004 11.9004 12.6727 11.9004 13.6254V22.0751C11.9004 23.0278 12.6727 23.8001 13.6254 23.8001H22.0751C23.0278 23.8001 23.8001 23.0278 23.8001 22.0751V17.5253C23.8001 17.2905 23.6098 17.1003 23.3751 17.1003Z" fill="#181F20" stroke="#181F20" stroke-width="0.2"/>
</g>
<defs>
<clipPath id="clip0_327_2783">
<rect width="36" height="36" fill="white"/>
</clipPath>
</defs>
</svg>
