<svg width="60" height="60" viewBox="0 0 60 60" fill="none" xmlns="http://www.w3.org/2000/svg">
<g clip-path="url(#clip0_1_70)">
<path d="M60 30C60 13.4315 46.5685 0 30 0C13.4315 0 0 13.4315 0 30C0 46.5685 13.4315 60 30 60C46.5685 60 60 46.5685 60 30Z" fill="white" fill-opacity="0.3"/>
<path d="M34.1291 22.7996H36.3511L31.8695 27.2813C31.6351 27.5155 31.6351 27.8954 31.8695 28.1298C32.1038 28.3641 32.4837 28.3641 32.718 28.1298L37.1996 23.6481V25.8702C37.1996 26.2015 37.4682 26.4702 37.7996 26.4702C38.1309 26.4702 38.3996 26.2015 38.3996 25.8702V22.1996C38.3996 21.8683 38.1309 21.5996 37.7996 21.5996H34.1291C33.7977 21.5996 33.529 21.8683 33.529 22.1996C33.529 22.531 33.7977 22.7996 34.1291 22.7996ZM37.7996 28.9408C37.4682 28.9408 37.1996 29.2094 37.1996 29.5408V35.9643C37.1996 36.6466 36.6466 37.1996 35.9643 37.1996H24.035C23.3526 37.1996 22.7996 36.6466 22.7996 35.9643V24.035C22.7996 23.3526 23.3526 22.7996 24.035 22.7996H30.4584C30.7899 22.7996 31.0584 22.531 31.0584 22.1996C31.0584 21.8683 30.7899 21.5996 30.4584 21.5996H24.035C22.6899 21.5996 21.5996 22.6899 21.5996 24.035V35.9643C21.5996 37.3093 22.6899 38.3996 24.035 38.3996H35.9643C37.3093 38.3996 38.3996 37.3093 38.3996 35.9643V29.5408C38.3996 29.2094 38.1309 28.9408 37.7996 28.9408Z" fill="white" stroke="white" stroke-width="0.2"/>
</g>
<defs>
<clipPath id="clip0_1_70">
<rect width="60" height="60" fill="white"/>
</clipPath>
</defs>
</svg>
