<svg width="40" height="40" viewBox="0 0 40 40" fill="none" xmlns="http://www.w3.org/2000/svg">
<path fill-rule="evenodd" clip-rule="evenodd" d="M15.384 0H0V3.20832H17.7877L15.384 0ZM16.8264 0H20.6724L39.9023 27.0416H36.0564L16.8264 0ZM40.0001 0L30.7701 12.375L28.8471 9.62497L36.0583 0H40.0001ZM25.4851 14.207L27.6484 16.957L20.6776 27.0403H16.8316L25.4851 14.207ZM0 11.2012H17.0185V14.6779H0V11.2012ZM17.7877 23.8329L0 23.5645V27.0412H15.384L17.7877 23.8329ZM24.3241 34.8628C25.2673 34.8541 26.0958 34.1088 26.0958 32.7317C26.0958 31.5595 25.3693 30.707 24.3074 30.707H20.8984V31.6661L23.8045 31.6128C24.4192 31.6128 25.034 31.8792 25.034 32.7317C25.034 33.5841 24.4192 34.0104 23.8045 34.0104H21.9062V34.0098H20.8993V34.0104H20.8984V34.8628H20.8993V38.1656H21.9062V34.8628H23.147L25.1499 38.1657H26.4353L24.3241 34.8628ZM36.8242 35.3943L37.3831 34.6484L39.8979 38.1649H38.8361L36.8242 35.3943ZM33.4219 30.707L35.6014 33.7972L36.2161 32.998L34.5396 30.707H33.4219ZM39.5686 30.707H38.3392L33.0859 38.1662H34.2595L39.5686 30.707ZM5.81208 30.707H0V31.6661H5.81208V30.707ZM0 33.7986H4.69437V34.7577H0V33.7986ZM6.03562 37.207H0V38.1661H6.03562V37.207ZM8.16016 30.707V38.1662H7.15324L7.15324 30.707H8.16016ZM17.7695 38.1685V32.2012H16.7626V38.1685H17.7695ZM14.1948 31.666H20.2305V30.707H14.1948V31.666ZM13.6369 30.707V38.1662H12.7449V38.1679H12.2978L8.60938 32.7867V30.9219L12.5214 36.6761H12.6299L12.6299 30.707H13.6369ZM27.49 30.707H26.3164L28.8871 34.4899L29.446 33.6374L27.49 30.707ZM33.0839 30.707H31.9661L29.1719 34.8628V38.1662H30.2337V34.8628L33.0839 30.707ZM0 28.873H39.9022V29.3314H0V28.873ZM39.9022 39.541H0V39.9993H39.9022V39.541Z" fill="url(#paint0_linear_480_5253)"/>
<defs>
<linearGradient id="paint0_linear_480_5253" x1="-6.00002" y1="-4.50922" x2="37.595" y2="45.994" gradientUnits="userSpaceOnUse">
<stop stop-color="#CCF60E"/>
<stop offset="1" stop-color="#2F7021"/>
</linearGradient>
</defs>
</svg>
