<svg width="170" height="34" viewBox="0 0 170 34" fill="none" xmlns="http://www.w3.org/2000/svg">
<path fill-rule="evenodd" clip-rule="evenodd" d="M24.7619 0H0V4.28571H24.7619V0ZM89.0469 0V4.28571L101.428 4.04762C104.047 4.04762 106.666 5.23809 106.666 9.04762C106.666 12.8571 104.047 14.7619 101.428 14.7619H93.334V14.7617H89.0483V14.7619H89.0469V18.5714H89.0483V33.3331L93.334 33.3331V18.5714H98.6101L107.144 33.3318H112.62L103.625 18.5712C107.65 18.5416 111.19 15.2104 111.19 9.04762C111.19 3.80952 108.094 0 103.571 0H89.0469ZM156.904 20.9525L159.285 17.6191L170 33.3334H165.476L156.904 20.9525ZM142.381 0L151.667 13.8095L154.286 10.2381L147.143 0H142.381ZM168.572 0H163.334L140.953 33.3333H145.953L168.572 0ZM0 13.8105H20V18.0963H0V13.8105ZM25.7143 29.047H0V33.3327H25.7143V29.047ZM34.7617 0V33.3333H30.476L30.476 0H34.7617ZM75.7148 33.3327V6.66602H71.4291V33.3327H75.7148ZM60.4752 4.28711L86.1895 4.28711V0.00139809L60.4752 0.00139584V4.28711ZM58.0957 0V33.3333H54.2851V33.3341H52.3803L36.666 9.28646V0.953125L53.3327 26.6674H53.81V0H58.0957ZM117.143 0H112.143L123.095 16.9048L125.476 13.0952L117.143 0ZM140.952 0H136.19L124.285 18.5714V33.3333H128.809V18.5714L140.952 0Z" fill="url(#paint0_linear_1_277)"/>
<defs>
<linearGradient id="paint0_linear_1_277" x1="0" y1="0" x2="171.5" y2="32.9997" gradientUnits="userSpaceOnUse">
<stop stop-color="#A2D212"/>
<stop offset="1" stop-color="#7CB116"/>
</linearGradient>
</defs>
</svg>
