<svg width="27" height="33" viewBox="0 0 27 33" fill="none" xmlns="http://www.w3.org/2000/svg">
<path fill-rule="evenodd" clip-rule="evenodd" d="M12.8026 31.7742C12.8484 31.801 12.8844 31.8216 12.9099 31.8361L12.9522 31.86C13.2898 32.0473 13.7087 32.0459 14.0467 31.8606L14.0901 31.8361C14.1156 31.8216 14.1516 31.801 14.1974 31.7742C14.2889 31.7206 14.4197 31.6424 14.5841 31.5401C14.9128 31.3356 15.3769 31.034 15.9312 30.6383C17.038 29.8483 18.5148 28.6761 19.9948 27.145C22.9404 24.0975 26 19.5189 26 13.6305C26 6.65488 20.4036 1 13.5 1C6.59644 1 1 6.65488 1 13.6305C1 19.5189 4.05958 24.0975 7.00524 27.145C8.48523 28.6761 9.96199 29.8483 11.0688 30.6383C11.6231 31.034 12.0872 31.3356 12.4159 31.5401C12.5803 31.6424 12.7111 31.7206 12.8026 31.7742ZM13.5 18.2235C16.0104 18.2235 18.0455 16.1671 18.0455 13.6305C18.0455 11.0939 16.0104 9.03761 13.5 9.03761C10.9896 9.03761 8.95455 11.0939 8.95455 13.6305C8.95455 16.1671 10.9896 18.2235 13.5 18.2235Z" fill="url(#paint0_linear_406_36501)" stroke="#181F20" stroke-linejoin="round"/>
<defs>
<linearGradient id="paint0_linear_406_36501" x1="1" y1="1" x2="26" y2="32" gradientUnits="userSpaceOnUse">
<stop stop-color="#B6E310"/>
<stop offset="1" stop-color="#69A119"/>
</linearGradient>
</defs>
</svg>
