<svg width="28" height="28" viewBox="0 0 28 28" fill="none" xmlns="http://www.w3.org/2000/svg">
<path fill-rule="evenodd" clip-rule="evenodd" d="M13.4173 25.3776C6.82565 25.3776 1.45898 20.0109 1.45898 13.4193C1.45898 6.8276 6.82565 1.46094 13.4173 1.46094C13.8957 1.46094 14.2923 1.8576 14.2923 2.33594C14.2923 2.81427 13.8957 3.21094 13.4173 3.21094C7.78232 3.21094 3.20898 7.79594 3.20898 13.4193C3.20898 19.0426 7.78232 23.6276 13.4173 23.6276C19.0523 23.6276 23.6257 19.0426 23.6257 13.4193C23.6257 12.9409 24.0223 12.5443 24.5007 12.5443C24.979 12.5443 25.3757 12.9409 25.3757 13.4193C25.3757 20.0109 20.009 25.3776 13.4173 25.3776ZM16.334 6.71094H23.334C23.8123 6.71094 24.209 6.31427 24.209 5.83594C24.209 5.3576 23.8123 4.96094 23.334 4.96094H16.334C15.8557 4.96094 15.459 5.3576 15.459 5.83594C15.459 6.31427 15.8557 6.71094 16.334 6.71094ZM16.334 10.2109H19.834C20.3123 10.2109 20.709 9.81427 20.709 9.33594C20.709 8.8576 20.3123 8.46094 19.834 8.46094H16.334C15.8557 8.46094 15.459 8.8576 15.459 9.33594C15.459 9.81427 15.8557 10.2109 16.334 10.2109ZM25.048 26.2866C25.223 26.4616 25.4447 26.5433 25.6664 26.5433C25.888 26.5433 26.1097 26.4616 26.2847 26.2866C26.623 25.9483 26.623 25.3883 26.2847 25.05L23.9514 22.7166C23.613 22.3783 23.053 22.3783 22.7147 22.7166C22.3764 23.055 22.3764 23.615 22.7147 23.9533L25.048 26.2866Z" fill="white"/>
</svg>
