<svg width="58" height="61" viewBox="0 0 58 61" fill="none" xmlns="http://www.w3.org/2000/svg">
<path d="M40.084 25.7941L36.9469 21.6113L24.3987 41.1307H29.9757L40.084 25.7941Z" fill="url(#paint0_linear_1_22)"/>
<path d="M44.6158 18.8223L58 0H52.2841L41.8273 14.6396L44.6158 18.8223Z" fill="url(#paint1_linear_1_22)"/>
<path d="M24.3994 0H29.9763L57.8612 41.1302H52.2842L24.3994 0Z" fill="url(#paint2_linear_1_22)"/>
<path d="M0 0H22.3079L25.7935 4.87985H0V0Z" fill="url(#paint3_linear_1_22)"/>
<path d="M0 17.0391H24.6781V22.3272H0V17.0391Z" fill="url(#paint4_linear_1_22)"/>
<path d="M0 35.842L25.7935 36.2504L22.3079 41.1302H0V35.842Z" fill="url(#paint5_linear_1_22)"/>
<path d="M36.4672 58.0517L33.4688 52.8652H35.1705L38.331 58.0517H36.4672Z" fill="url(#paint6_linear_1_22)"/>
<path d="M30.3086 48.1657V46.707H35.2519C36.7916 46.707 37.8451 48.0036 37.8451 49.7865C37.8451 51.8935 36.6296 53.028 35.2519 53.028H30.3086V51.7314H34.5226C35.414 51.7314 36.3054 51.0831 36.3054 49.7865C36.3054 48.4899 35.414 48.0847 34.5226 48.0847L30.3086 48.1657Z" fill="url(#paint7_linear_1_22)"/>
<path d="M53.4043 53.8377L54.2147 52.7031L57.8614 58.0516H56.3217L53.4043 53.8377Z" fill="url(#paint8_linear_1_22)"/>
<path d="M51.6213 51.4073L48.4608 46.7071H50.0815L52.5127 50.1917L51.6213 51.4073Z" fill="url(#paint9_linear_1_22)"/>
<path d="M57.3749 46.7071H55.5921L47.9745 58.0524H49.6763L57.3749 46.7071Z" fill="url(#paint10_linear_1_22)"/>
<path d="M0 46.707H8.42795V48.1657H0V46.707Z" fill="url(#paint11_linear_1_22)"/>
<path d="M0 51.4082H6.80719V52.8669H0V51.4082Z" fill="url(#paint12_linear_1_22)"/>
<path d="M0 56.5937H8.7521V58.0524H0V56.5937Z" fill="url(#paint13_linear_1_22)"/>
<path d="M11.832 46.707L11.832 58.0523H10.3733L10.3733 46.707H11.832Z" fill="url(#paint14_linear_1_22)"/>
<path d="M25.7695 48.9766V58.0528H24.3108V48.9766H25.7695Z" fill="url(#paint15_linear_1_22)"/>
<path d="M31.7676 51.7324V58.0534H30.3089V51.7324H31.7676Z" fill="url(#paint16_linear_1_22)"/>
<path d="M29.3359 48.166H20.5838V46.7073H29.3359V48.166Z" fill="url(#paint17_linear_1_22)"/>
<path d="M19.7733 46.7071V58.0524H18.3146V46.7071H19.7733Z" fill="url(#paint18_linear_1_22)"/>
<path d="M12.4805 49.8676V47.0312L18.1531 55.7834H18.4773V58.0524H17.829L12.4805 49.8676Z" fill="url(#paint19_linear_1_22)"/>
<path d="M39.8698 46.707H38.168L41.8957 52.4607L42.7061 51.1641L39.8698 46.707Z" fill="url(#paint20_linear_1_22)"/>
<path d="M46.3546 46.707H47.9754L43.8425 53.028V58.0523H42.3027V53.028L46.3546 46.707Z" fill="url(#paint21_linear_1_22)"/>
<path d="M0 43.918H57.8611V44.6151H0V43.918Z" fill="url(#paint22_linear_1_22)"/>
<path d="M0 60.1445H57.8611V60.8417H0V60.1445Z" fill="url(#paint23_linear_1_22)"/>
<defs>
<linearGradient id="paint0_linear_1_22" x1="-8.70001" y1="-6.85882" x2="58.0008" y2="66.8013" gradientUnits="userSpaceOnUse">
<stop stop-color="#CCF60E"/>
<stop offset="1" stop-color="#2F7021"/>
</linearGradient>
<linearGradient id="paint1_linear_1_22" x1="-8.70001" y1="-6.85882" x2="58.0008" y2="66.8013" gradientUnits="userSpaceOnUse">
<stop stop-color="#CCF60E"/>
<stop offset="1" stop-color="#2F7021"/>
</linearGradient>
<linearGradient id="paint2_linear_1_22" x1="-8.70001" y1="-6.85882" x2="58.0008" y2="66.8013" gradientUnits="userSpaceOnUse">
<stop stop-color="#CCF60E"/>
<stop offset="1" stop-color="#2F7021"/>
</linearGradient>
<linearGradient id="paint3_linear_1_22" x1="-8.70001" y1="-6.85882" x2="58.0008" y2="66.8013" gradientUnits="userSpaceOnUse">
<stop stop-color="#CCF60E"/>
<stop offset="1" stop-color="#2F7021"/>
</linearGradient>
<linearGradient id="paint4_linear_1_22" x1="-8.70001" y1="-6.85882" x2="58.0008" y2="66.8013" gradientUnits="userSpaceOnUse">
<stop stop-color="#CCF60E"/>
<stop offset="1" stop-color="#2F7021"/>
</linearGradient>
<linearGradient id="paint5_linear_1_22" x1="-8.70001" y1="-6.85882" x2="58.0008" y2="66.8013" gradientUnits="userSpaceOnUse">
<stop stop-color="#CCF60E"/>
<stop offset="1" stop-color="#2F7021"/>
</linearGradient>
<linearGradient id="paint6_linear_1_22" x1="-8.70001" y1="-6.85882" x2="58.0008" y2="66.8013" gradientUnits="userSpaceOnUse">
<stop stop-color="#CCF60E"/>
<stop offset="1" stop-color="#2F7021"/>
</linearGradient>
<linearGradient id="paint7_linear_1_22" x1="-8.70001" y1="-6.85882" x2="58.0008" y2="66.8013" gradientUnits="userSpaceOnUse">
<stop stop-color="#CCF60E"/>
<stop offset="1" stop-color="#2F7021"/>
</linearGradient>
<linearGradient id="paint8_linear_1_22" x1="-8.70001" y1="-6.85882" x2="58.0008" y2="66.8013" gradientUnits="userSpaceOnUse">
<stop stop-color="#CCF60E"/>
<stop offset="1" stop-color="#2F7021"/>
</linearGradient>
<linearGradient id="paint9_linear_1_22" x1="-8.70001" y1="-6.85882" x2="58.0008" y2="66.8013" gradientUnits="userSpaceOnUse">
<stop stop-color="#CCF60E"/>
<stop offset="1" stop-color="#2F7021"/>
</linearGradient>
<linearGradient id="paint10_linear_1_22" x1="-8.70001" y1="-6.85882" x2="58.0008" y2="66.8013" gradientUnits="userSpaceOnUse">
<stop stop-color="#CCF60E"/>
<stop offset="1" stop-color="#2F7021"/>
</linearGradient>
<linearGradient id="paint11_linear_1_22" x1="-8.70001" y1="-6.85882" x2="58.0008" y2="66.8013" gradientUnits="userSpaceOnUse">
<stop stop-color="#CCF60E"/>
<stop offset="1" stop-color="#2F7021"/>
</linearGradient>
<linearGradient id="paint12_linear_1_22" x1="-8.70001" y1="-6.85882" x2="58.0008" y2="66.8013" gradientUnits="userSpaceOnUse">
<stop stop-color="#CCF60E"/>
<stop offset="1" stop-color="#2F7021"/>
</linearGradient>
<linearGradient id="paint13_linear_1_22" x1="-8.70001" y1="-6.85882" x2="58.0008" y2="66.8013" gradientUnits="userSpaceOnUse">
<stop stop-color="#CCF60E"/>
<stop offset="1" stop-color="#2F7021"/>
</linearGradient>
<linearGradient id="paint14_linear_1_22" x1="-8.70001" y1="-6.85882" x2="58.0008" y2="66.8013" gradientUnits="userSpaceOnUse">
<stop stop-color="#CCF60E"/>
<stop offset="1" stop-color="#2F7021"/>
</linearGradient>
<linearGradient id="paint15_linear_1_22" x1="-8.70001" y1="-6.85882" x2="58.0008" y2="66.8013" gradientUnits="userSpaceOnUse">
<stop stop-color="#CCF60E"/>
<stop offset="1" stop-color="#2F7021"/>
</linearGradient>
<linearGradient id="paint16_linear_1_22" x1="-8.70001" y1="-6.85882" x2="58.0008" y2="66.8013" gradientUnits="userSpaceOnUse">
<stop stop-color="#CCF60E"/>
<stop offset="1" stop-color="#2F7021"/>
</linearGradient>
<linearGradient id="paint17_linear_1_22" x1="-8.70001" y1="-6.85882" x2="58.0008" y2="66.8013" gradientUnits="userSpaceOnUse">
<stop stop-color="#CCF60E"/>
<stop offset="1" stop-color="#2F7021"/>
</linearGradient>
<linearGradient id="paint18_linear_1_22" x1="-8.70001" y1="-6.85882" x2="58.0008" y2="66.8013" gradientUnits="userSpaceOnUse">
<stop stop-color="#CCF60E"/>
<stop offset="1" stop-color="#2F7021"/>
</linearGradient>
<linearGradient id="paint19_linear_1_22" x1="-8.70001" y1="-6.85882" x2="58.0008" y2="66.8013" gradientUnits="userSpaceOnUse">
<stop stop-color="#CCF60E"/>
<stop offset="1" stop-color="#2F7021"/>
</linearGradient>
<linearGradient id="paint20_linear_1_22" x1="-8.70001" y1="-6.85882" x2="58.0008" y2="66.8013" gradientUnits="userSpaceOnUse">
<stop stop-color="#CCF60E"/>
<stop offset="1" stop-color="#2F7021"/>
</linearGradient>
<linearGradient id="paint21_linear_1_22" x1="-8.70001" y1="-6.85882" x2="58.0008" y2="66.8013" gradientUnits="userSpaceOnUse">
<stop stop-color="#CCF60E"/>
<stop offset="1" stop-color="#2F7021"/>
</linearGradient>
<linearGradient id="paint22_linear_1_22" x1="-8.70001" y1="-6.85882" x2="58.0008" y2="66.8013" gradientUnits="userSpaceOnUse">
<stop stop-color="#CCF60E"/>
<stop offset="1" stop-color="#2F7021"/>
</linearGradient>
<linearGradient id="paint23_linear_1_22" x1="-8.70001" y1="-6.85882" x2="58.0008" y2="66.8013" gradientUnits="userSpaceOnUse">
<stop stop-color="#CCF60E"/>
<stop offset="1" stop-color="#2F7021"/>
</linearGradient>
</defs>
</svg>
