<svg width="14" height="12" viewBox="0 0 14 12" fill="none" xmlns="http://www.w3.org/2000/svg">
<path fill-rule="evenodd" clip-rule="evenodd" d="M12.0713 2.66268C12.0206 2.46402 11.8766 2.31402 11.712 2.26802C11.4206 2.18602 10.0006 1.99935 7.00065 1.99935C4.00065 1.99935 2.58198 2.18602 2.28798 2.26802C2.12532 2.31335 1.98132 2.46335 1.92998 2.66268C1.85732 2.94535 1.66732 4.13002 1.66732 5.99935C1.66732 7.86868 1.85732 9.05268 1.92998 9.33668C1.98065 9.53468 2.12465 9.68468 2.28865 9.73002C2.58198 9.81268 4.00065 9.99935 7.00065 9.99935C10.0006 9.99935 11.42 9.81268 11.7133 9.73068C11.876 9.68535 12.02 9.53535 12.0713 9.33602C12.144 9.05335 12.334 7.86602 12.334 5.99935C12.334 4.13268 12.144 2.94602 12.0713 2.66268ZM5.66732 8.33268V3.66602L9.66732 5.99935L5.66732 8.33268Z" fill="url(#paint0_linear_1_237)"/>
<path fill-rule="evenodd" clip-rule="evenodd" d="M13.3626 2.33135C13.6673 3.51935 13.6673 5.99935 13.6673 5.99935C13.6673 5.99935 13.6673 8.47935 13.3626 9.66735C13.1933 10.324 12.698 10.8407 12.0707 11.0153C10.9313 11.3327 7.00065 11.3327 7.00065 11.3327C7.00065 11.3327 3.07198 11.3327 1.93065 11.0153C1.30065 10.838 0.805984 10.322 0.638651 9.66735C0.333984 8.47935 0.333984 5.99935 0.333984 5.99935C0.333984 5.99935 0.333984 3.51935 0.638651 2.33135C0.807984 1.67468 1.30332 1.15802 1.93065 0.983349C3.07198 0.666016 7.00065 0.666016 7.00065 0.666016C7.00065 0.666016 10.9313 0.666016 12.0707 0.983349C12.7007 1.16068 13.1953 1.67668 13.3626 2.33135ZM11.712 2.26802C11.8766 2.31402 12.0206 2.46402 12.0713 2.66268C12.144 2.94602 12.334 4.13268 12.334 5.99935C12.334 7.86602 12.144 9.05335 12.0713 9.33602C12.02 9.53535 11.876 9.68535 11.7133 9.73068C11.42 9.81268 10.0006 9.99935 7.00065 9.99935C4.00065 9.99935 2.58198 9.81268 2.28865 9.73002C2.12465 9.68468 1.98065 9.53468 1.92998 9.33668C1.85732 9.05268 1.66732 7.86868 1.66732 5.99935C1.66732 4.13002 1.85732 2.94535 1.92998 2.66268C1.98132 2.46335 2.12532 2.31335 2.28798 2.26802C2.58198 2.18602 4.00065 1.99935 7.00065 1.99935C10.0006 1.99935 11.4206 2.18602 11.712 2.26802Z" fill="url(#paint1_linear_1_237)"/>
<defs>
<linearGradient id="paint0_linear_1_237" x1="0.333984" y1="0.666016" x2="13.6673" y2="11.3327" gradientUnits="userSpaceOnUse">
<stop stop-color="#9FCF13"/>
<stop offset="1" stop-color="#69A119"/>
</linearGradient>
<linearGradient id="paint1_linear_1_237" x1="0.333984" y1="0.666016" x2="13.6673" y2="11.3327" gradientUnits="userSpaceOnUse">
<stop stop-color="#9FCF13"/>
<stop offset="1" stop-color="#69A119"/>
</linearGradient>
</defs>
</svg>
