<svg width="24" height="24" viewBox="0 0 24 24" fill="none" xmlns="http://www.w3.org/2000/svg">
<path fill-rule="evenodd" clip-rule="evenodd" d="M21.543 6.49803C22 8.28003 22 12 22 12C22 12 22 15.72 21.543 17.502C21.289 18.487 20.546 19.262 19.605 19.524C17.896 20 12 20 12 20C12 20 6.10701 20 4.39501 19.524C3.45001 19.258 2.70802 18.484 2.45702 17.502C2.00002 15.72 2.00002 12 2.00002 12C2.00002 12 2.00002 8.28003 2.45702 6.49803C2.71102 5.51303 3.45401 4.73803 4.39501 4.47603C6.10701 4.00003 12 4.00003 12 4.00003C12 4.00003 17.896 4.00003 19.605 4.47603C20.55 4.74203 21.292 5.51603 21.543 6.49803ZM19.606 6.99503C19.53 6.69703 19.314 6.47203 19.067 6.40303C18.63 6.28003 16.5 6.00003 12 6.00003C7.50001 6.00003 5.37201 6.28003 4.93102 6.40303C4.68702 6.47103 4.47102 6.69603 4.39402 6.99503C4.28502 7.41903 4.00002 9.19603 4.00002 12C4.00002 14.804 4.28502 16.58 4.39402 17.006C4.47002 17.303 4.68602 17.528 4.93201 17.596C5.37201 17.72 7.50001 18 12 18C16.5 18 18.629 17.72 19.069 17.597C19.313 17.529 19.529 17.304 19.606 17.005C19.715 16.581 20 14.8 20 12C20 9.20003 19.715 7.42003 19.606 6.99503ZM10 8.50003V15.5L16 12L10 8.50003Z" fill="white"/>
</svg>
