<?xml version="1.0" encoding="UTF-8"?>
<svg xmlns="http://www.w3.org/2000/svg" version="1.1" width="270" height="270" viewBox="0 0 270 270"><rect x="0" y="0" width="270" height="270" fill="#ffffff"/><g transform="scale(8.182)"><g transform="translate(0,0)"><path fill-rule="evenodd" d="M9 0L9 1L8 1L8 2L9 2L9 3L8 3L8 4L9 4L9 5L8 5L8 7L9 7L9 8L6 8L6 9L5 9L5 8L0 8L0 9L3 9L3 10L2 10L2 12L3 12L3 13L2 13L2 14L0 14L0 15L1 15L1 17L0 17L0 18L1 18L1 19L0 19L0 20L1 20L1 21L0 21L0 25L1 25L1 22L3 22L3 23L4 23L4 22L5 22L5 25L8 25L8 27L9 27L9 28L8 28L8 33L11 33L11 32L13 32L13 33L14 33L14 32L13 32L13 31L11 31L11 30L13 30L13 29L14 29L14 31L16 31L16 32L15 32L15 33L19 33L19 32L20 32L20 33L21 33L21 32L22 32L22 33L23 33L23 32L24 32L24 33L25 33L25 32L24 32L24 31L28 31L28 30L29 30L29 29L30 29L30 28L31 28L31 29L33 29L33 27L32 27L32 26L33 26L33 24L32 24L32 26L31 26L31 25L30 25L30 24L31 24L31 23L32 23L32 22L33 22L33 21L32 21L32 20L31 20L31 19L32 19L32 18L33 18L33 17L32 17L32 16L31 16L31 15L32 15L32 14L33 14L33 13L31 13L31 15L30 15L30 16L31 16L31 19L30 19L30 17L29 17L29 16L28 16L28 17L26 17L26 18L25 18L25 19L23 19L23 18L24 18L24 17L23 17L23 14L24 14L24 15L25 15L25 16L27 16L27 15L28 15L28 13L30 13L30 12L31 12L31 11L32 11L32 10L33 10L33 9L32 9L32 8L31 8L31 9L30 9L30 8L29 8L29 9L30 9L30 10L28 10L28 8L27 8L27 9L26 9L26 8L25 8L25 5L24 5L24 4L25 4L25 3L24 3L24 4L23 4L23 1L24 1L24 0L23 0L23 1L21 1L21 3L20 3L20 4L19 4L19 2L18 2L18 3L17 3L17 4L16 4L16 3L15 3L15 2L17 2L17 0L16 0L16 1L15 1L15 2L14 2L14 1L13 1L13 0ZM19 0L19 1L20 1L20 0ZM11 1L11 3L9 3L9 4L13 4L13 3L14 3L14 5L11 5L11 7L10 7L10 6L9 6L9 7L10 7L10 8L9 8L9 9L12 9L12 10L11 10L11 11L10 11L10 13L9 13L9 12L8 12L8 14L7 14L7 13L6 13L6 12L7 12L7 11L8 11L8 10L7 10L7 9L6 9L6 10L5 10L5 11L4 11L4 10L3 10L3 11L4 11L4 12L5 12L5 13L6 13L6 14L7 14L7 15L5 15L5 14L4 14L4 15L5 15L5 16L4 16L4 18L5 18L5 17L6 17L6 18L7 18L7 17L6 17L6 16L7 16L7 15L9 15L9 17L8 17L8 18L9 18L9 19L10 19L10 20L9 20L9 21L10 21L10 20L11 20L11 21L12 21L12 22L11 22L11 23L10 23L10 24L8 24L8 25L10 25L10 24L11 24L11 25L13 25L13 24L14 24L14 26L11 26L11 28L12 28L12 29L13 29L13 28L14 28L14 29L15 29L15 30L16 30L16 31L17 31L17 32L19 32L19 31L20 31L20 32L21 32L21 29L22 29L22 30L23 30L23 31L24 31L24 30L23 30L23 29L24 29L24 27L22 27L22 28L20 28L20 30L17 30L17 29L15 29L15 28L14 28L14 26L17 26L17 28L18 28L18 27L20 27L20 26L19 26L19 25L20 25L20 22L19 22L19 21L20 21L20 18L19 18L19 19L18 19L18 17L19 17L19 16L20 16L20 17L21 17L21 19L22 19L22 18L23 18L23 17L22 17L22 16L21 16L21 15L22 15L22 14L23 14L23 11L24 11L24 12L25 12L25 13L24 13L24 14L25 14L25 15L27 15L27 14L25 14L25 13L28 13L28 12L30 12L30 11L31 11L31 10L30 10L30 11L27 11L27 12L26 12L26 11L25 11L25 10L26 10L26 9L25 9L25 8L23 8L23 9L22 9L22 8L20 8L20 10L19 10L19 11L17 11L17 10L18 10L18 9L19 9L19 8L18 8L18 5L19 5L19 7L20 7L20 5L21 5L21 4L22 4L22 6L21 6L21 7L22 7L22 6L23 6L23 7L24 7L24 5L23 5L23 4L22 4L22 3L21 3L21 4L20 4L20 5L19 5L19 4L17 4L17 5L16 5L16 4L15 4L15 3L14 3L14 2L13 2L13 3L12 3L12 1ZM14 5L14 8L13 8L13 6L12 6L12 9L13 9L13 10L12 10L12 11L11 11L11 12L12 12L12 13L11 13L11 14L12 14L12 13L14 13L14 14L13 14L13 15L12 15L12 16L13 16L13 17L11 17L11 15L10 15L10 14L9 14L9 15L10 15L10 19L11 19L11 20L12 20L12 21L13 21L13 22L12 22L12 23L11 23L11 24L13 24L13 22L15 22L15 23L14 23L14 24L15 24L15 25L19 25L19 23L18 23L18 22L17 22L17 23L16 23L16 22L15 22L15 21L14 21L14 20L16 20L16 21L19 21L19 20L16 20L16 19L17 19L17 18L15 18L15 19L14 19L14 18L13 18L13 17L15 17L15 16L17 16L17 17L18 17L18 16L17 16L17 14L18 14L18 15L19 15L19 14L20 14L20 15L21 15L21 13L19 13L19 12L17 12L17 11L16 11L16 10L17 10L17 9L18 9L18 8L17 8L17 9L16 9L16 8L15 8L15 6L16 6L16 7L17 7L17 6L16 6L16 5ZM14 8L14 9L15 9L15 10L13 10L13 11L12 11L12 12L14 12L14 13L15 13L15 14L14 14L14 15L13 15L13 16L15 16L15 14L17 14L17 13L15 13L15 10L16 10L16 9L15 9L15 8ZM23 9L23 10L22 10L22 11L20 11L20 12L22 12L22 11L23 11L23 10L24 10L24 9ZM0 10L0 13L1 13L1 10ZM6 10L6 11L5 11L5 12L6 12L6 11L7 11L7 10ZM18 13L18 14L19 14L19 13ZM2 15L2 16L3 16L3 15ZM2 17L2 18L3 18L3 17ZM28 17L28 18L27 18L27 19L28 19L28 20L26 20L26 19L25 19L25 20L23 20L23 21L24 21L24 22L21 22L21 23L22 23L22 24L21 24L21 25L22 25L22 26L24 26L24 25L22 25L22 24L23 24L23 23L24 23L24 24L25 24L25 23L26 23L26 24L28 24L28 23L27 23L27 22L25 22L25 21L28 21L28 22L29 22L29 21L30 21L30 23L29 23L29 24L30 24L30 23L31 23L31 20L30 20L30 19L29 19L29 17ZM11 18L11 19L12 19L12 20L14 20L14 19L12 19L12 18ZM2 19L2 20L3 20L3 19ZM4 19L4 21L5 21L5 22L7 22L7 21L6 21L6 20L8 20L8 19L6 19L6 20L5 20L5 19ZM21 20L21 21L22 21L22 20ZM28 20L28 21L29 21L29 20ZM8 22L8 23L9 23L9 22ZM6 23L6 24L7 24L7 23ZM15 23L15 24L16 24L16 23ZM17 23L17 24L18 24L18 23ZM2 24L2 25L3 25L3 24ZM25 25L25 28L28 28L28 25ZM29 25L29 26L30 26L30 25ZM26 26L26 27L27 27L27 26ZM12 27L12 28L13 28L13 27ZM29 27L29 28L30 28L30 27ZM31 27L31 28L32 28L32 27ZM22 28L22 29L23 29L23 28ZM9 29L9 31L10 31L10 30L11 30L11 29ZM25 29L25 30L27 30L27 29ZM30 30L30 32L29 32L29 33L30 33L30 32L31 32L31 33L32 33L32 32L31 32L31 31L32 31L32 30ZM26 32L26 33L27 33L27 32ZM0 0L0 7L7 7L7 0ZM1 1L1 6L6 6L6 1ZM2 2L2 5L5 5L5 2ZM26 0L26 7L33 7L33 0ZM27 1L27 6L32 6L32 1ZM28 2L28 5L31 5L31 2ZM0 26L0 33L7 33L7 26ZM1 27L1 32L6 32L6 27ZM2 28L2 31L5 31L5 28Z" fill="#000000"/></g></g></svg>
