<?xml version="1.0" encoding="UTF-8"?>
<svg xmlns="http://www.w3.org/2000/svg" version="1.1" width="270" height="270" viewBox="0 0 270 270"><rect x="0" y="0" width="270" height="270" fill="#ffffff"/><g transform="scale(8.182)"><g transform="translate(0,0)"><path fill-rule="evenodd" d="M9 0L9 1L8 1L8 2L9 2L9 3L8 3L8 4L9 4L9 3L10 3L10 1L13 1L13 2L14 2L14 3L12 3L12 4L10 4L10 5L8 5L8 7L9 7L9 8L6 8L6 9L7 9L7 10L4 10L4 9L5 9L5 8L0 8L0 9L3 9L3 10L0 10L0 11L1 11L1 12L0 12L0 20L1 20L1 21L0 21L0 25L1 25L1 21L3 21L3 22L4 22L4 20L5 20L5 22L6 22L6 23L4 23L4 24L3 24L3 23L2 23L2 25L7 25L7 24L8 24L8 27L9 27L9 28L8 28L8 33L9 33L9 32L10 32L10 33L11 33L11 32L12 32L12 31L11 31L11 30L12 30L12 29L14 29L14 30L13 30L13 31L14 31L14 32L13 32L13 33L14 33L14 32L15 32L15 33L19 33L19 32L20 32L20 33L21 33L21 32L22 32L22 33L23 33L23 32L24 32L24 33L25 33L25 32L24 32L24 31L28 31L28 30L29 30L29 29L30 29L30 28L31 28L31 29L33 29L33 27L32 27L32 26L33 26L33 24L32 24L32 26L31 26L31 25L30 25L30 24L31 24L31 23L32 23L32 22L33 22L33 21L32 21L32 20L31 20L31 19L32 19L32 18L33 18L33 17L32 17L32 16L31 16L31 15L32 15L32 14L33 14L33 13L31 13L31 15L30 15L30 16L31 16L31 19L30 19L30 17L29 17L29 16L28 16L28 17L26 17L26 18L25 18L25 19L23 19L23 18L24 18L24 17L23 17L23 14L24 14L24 15L25 15L25 16L27 16L27 15L28 15L28 13L30 13L30 12L31 12L31 11L32 11L32 10L33 10L33 9L32 9L32 8L31 8L31 9L30 9L30 8L29 8L29 9L30 9L30 10L28 10L28 8L27 8L27 9L26 9L26 8L25 8L25 5L24 5L24 4L25 4L25 3L24 3L24 4L23 4L23 1L24 1L24 0L23 0L23 1L21 1L21 0L18 0L18 1L17 1L17 0L16 0L16 1L15 1L15 2L14 2L14 1L13 1L13 0ZM19 1L19 2L21 2L21 1ZM16 2L16 4L15 4L15 3L14 3L14 5L13 5L13 4L12 4L12 5L10 5L10 6L9 6L9 7L10 7L10 8L9 8L9 9L12 9L12 10L11 10L11 12L10 12L10 14L9 14L9 13L8 13L8 11L10 11L10 10L7 10L7 11L5 11L5 12L4 12L4 10L3 10L3 11L2 11L2 14L1 14L1 18L4 18L4 19L3 19L3 20L4 20L4 19L5 19L5 17L2 17L2 16L5 16L5 14L8 14L8 15L9 15L9 16L8 16L8 17L6 17L6 18L8 18L8 17L9 17L9 19L8 19L8 20L9 20L9 19L11 19L11 20L10 20L10 23L9 23L9 26L10 26L10 24L11 24L11 25L12 25L12 26L11 26L11 29L12 29L12 27L13 27L13 28L14 28L14 29L15 29L15 30L14 30L14 31L15 31L15 32L19 32L19 31L20 31L20 32L21 32L21 29L22 29L22 30L23 30L23 31L24 31L24 30L23 30L23 29L24 29L24 27L22 27L22 28L20 28L20 30L17 30L17 29L15 29L15 28L16 28L16 27L15 27L15 28L14 28L14 26L16 26L16 25L17 25L17 26L18 26L18 27L17 27L17 28L18 28L18 27L20 27L20 26L18 26L18 25L20 25L20 22L19 22L19 21L20 21L20 18L18 18L18 17L19 17L19 16L20 16L20 17L21 17L21 19L22 19L22 18L23 18L23 17L22 17L22 16L21 16L21 15L22 15L22 14L23 14L23 11L24 11L24 12L25 12L25 13L24 13L24 14L25 14L25 15L27 15L27 14L25 14L25 13L28 13L28 12L30 12L30 11L31 11L31 10L30 10L30 11L27 11L27 12L26 12L26 11L25 11L25 10L26 10L26 9L25 9L25 8L23 8L23 9L22 9L22 8L20 8L20 10L19 10L19 9L15 9L15 8L14 8L14 5L16 5L16 6L15 6L15 7L16 7L16 6L17 6L17 8L18 8L18 6L19 6L19 7L20 7L20 5L19 5L19 4L22 4L22 6L21 6L21 7L22 7L22 6L23 6L23 7L24 7L24 5L23 5L23 4L22 4L22 3L19 3L19 4L17 4L17 3L18 3L18 2ZM16 4L16 5L17 5L17 6L18 6L18 5L17 5L17 4ZM10 6L10 7L11 7L11 6ZM12 6L12 9L13 9L13 10L12 10L12 11L13 11L13 10L15 10L15 11L14 11L14 12L13 12L13 13L11 13L11 14L10 14L10 15L11 15L11 16L9 16L9 17L10 17L10 18L12 18L12 17L14 17L14 19L15 19L15 21L14 21L14 20L13 20L13 19L12 19L12 21L11 21L11 22L12 22L12 21L14 21L14 22L13 22L13 23L14 23L14 24L12 24L12 25L13 25L13 26L14 26L14 24L15 24L15 25L16 25L16 24L17 24L17 25L18 25L18 24L17 24L17 23L19 23L19 22L17 22L17 23L16 23L16 22L15 22L15 21L19 21L19 19L18 19L18 20L16 20L16 19L17 19L17 18L15 18L15 17L14 17L14 16L17 16L17 17L18 17L18 16L19 16L19 14L20 14L20 15L21 15L21 13L19 13L19 11L18 11L18 12L17 12L17 11L16 11L16 10L15 10L15 9L14 9L14 8L13 8L13 6ZM23 9L23 10L22 10L22 11L20 11L20 12L22 12L22 11L23 11L23 10L24 10L24 9ZM3 12L3 13L4 13L4 12ZM6 12L6 13L7 13L7 12ZM14 12L14 13L13 13L13 14L14 14L14 13L15 13L15 14L17 14L17 16L18 16L18 14L19 14L19 13L15 13L15 12ZM2 14L2 15L3 15L3 14ZM11 14L11 15L12 15L12 16L11 16L11 17L12 17L12 16L14 16L14 15L12 15L12 14ZM6 15L6 16L7 16L7 15ZM28 17L28 18L27 18L27 19L28 19L28 20L26 20L26 19L25 19L25 20L23 20L23 21L24 21L24 22L21 22L21 23L22 23L22 24L21 24L21 25L22 25L22 26L24 26L24 25L22 25L22 24L23 24L23 23L24 23L24 24L25 24L25 23L26 23L26 24L28 24L28 23L27 23L27 22L25 22L25 21L28 21L28 22L29 22L29 21L30 21L30 23L29 23L29 24L30 24L30 23L31 23L31 20L30 20L30 19L29 19L29 17ZM6 19L6 20L7 20L7 19ZM21 20L21 21L22 21L22 20ZM28 20L28 21L29 21L29 20ZM6 21L6 22L7 22L7 21ZM6 23L6 24L7 24L7 23ZM15 23L15 24L16 24L16 23ZM25 25L25 28L28 28L28 25ZM29 25L29 26L30 26L30 25ZM26 26L26 27L27 27L27 26ZM29 27L29 28L30 28L30 27ZM31 27L31 28L32 28L32 27ZM9 28L9 29L10 29L10 28ZM22 28L22 29L23 29L23 28ZM25 29L25 30L27 30L27 29ZM9 30L9 31L10 31L10 32L11 32L11 31L10 31L10 30ZM15 30L15 31L17 31L17 30ZM30 30L30 32L29 32L29 33L30 33L30 32L31 32L31 33L32 33L32 32L31 32L31 31L32 31L32 30ZM26 32L26 33L27 33L27 32ZM0 0L0 7L7 7L7 0ZM1 1L1 6L6 6L6 1ZM2 2L2 5L5 5L5 2ZM26 0L26 7L33 7L33 0ZM27 1L27 6L32 6L32 1ZM28 2L28 5L31 5L31 2ZM0 26L0 33L7 33L7 26ZM1 27L1 32L6 32L6 27ZM2 28L2 31L5 31L5 28Z" fill="#000000"/></g></g></svg>
