<?xml version="1.0" encoding="UTF-8"?>
<svg xmlns="http://www.w3.org/2000/svg" version="1.1" width="270" height="270" viewBox="0 0 270 270"><rect x="0" y="0" width="270" height="270" fill="#ffffff"/><g transform="scale(8.182)"><g transform="translate(0,0)"><path fill-rule="evenodd" d="M9 0L9 1L8 1L8 2L9 2L9 3L8 3L8 4L9 4L9 3L11 3L11 1L12 1L12 0L11 0L11 1L10 1L10 0ZM14 0L14 1L13 1L13 2L12 2L12 3L13 3L13 4L10 4L10 5L8 5L8 7L9 7L9 8L6 8L6 9L5 9L5 8L0 8L0 9L1 9L1 11L0 11L0 15L1 15L1 17L0 17L0 19L1 19L1 21L0 21L0 25L1 25L1 22L4 22L4 21L5 21L5 22L6 22L6 23L7 23L7 22L6 22L6 21L9 21L9 23L8 23L8 24L6 24L6 25L8 25L8 27L11 27L11 28L8 28L8 33L9 33L9 32L10 32L10 33L11 33L11 30L12 30L12 29L14 29L14 30L13 30L13 31L16 31L16 30L15 30L15 29L14 29L14 28L16 28L16 29L17 29L17 30L20 30L20 28L22 28L22 29L21 29L21 32L20 32L20 31L19 31L19 32L15 32L15 33L19 33L19 32L20 32L20 33L21 33L21 32L22 32L22 33L23 33L23 32L24 32L24 33L25 33L25 32L24 32L24 31L28 31L28 30L29 30L29 29L30 29L30 28L31 28L31 29L33 29L33 27L32 27L32 26L33 26L33 24L32 24L32 26L31 26L31 25L30 25L30 24L31 24L31 23L32 23L32 22L33 22L33 21L32 21L32 20L31 20L31 19L32 19L32 18L33 18L33 17L32 17L32 16L31 16L31 15L32 15L32 14L33 14L33 13L31 13L31 15L30 15L30 16L31 16L31 19L30 19L30 17L29 17L29 16L28 16L28 17L26 17L26 18L25 18L25 19L23 19L23 18L24 18L24 17L23 17L23 14L24 14L24 15L25 15L25 16L27 16L27 15L28 15L28 13L30 13L30 12L31 12L31 11L32 11L32 10L33 10L33 9L32 9L32 8L31 8L31 9L30 9L30 8L29 8L29 9L30 9L30 10L28 10L28 8L27 8L27 9L26 9L26 8L25 8L25 5L24 5L24 4L25 4L25 3L24 3L24 4L23 4L23 1L24 1L24 0L23 0L23 1L21 1L21 3L20 3L20 2L19 2L19 1L20 1L20 0L19 0L19 1L17 1L17 2L16 2L16 1L15 1L15 0ZM14 1L14 2L13 2L13 3L14 3L14 5L10 5L10 6L9 6L9 7L10 7L10 8L9 8L9 9L8 9L8 10L9 10L9 9L12 9L12 10L10 10L10 14L9 14L9 15L8 15L8 14L7 14L7 13L6 13L6 12L7 12L7 11L6 11L6 10L7 10L7 9L6 9L6 10L5 10L5 12L4 12L4 13L5 13L5 14L4 14L4 15L3 15L3 11L2 11L2 12L1 12L1 15L2 15L2 17L1 17L1 19L2 19L2 17L4 17L4 18L3 18L3 20L4 20L4 19L5 19L5 20L8 20L8 19L6 19L6 18L7 18L7 17L4 17L4 16L5 16L5 14L7 14L7 15L6 15L6 16L8 16L8 17L9 17L9 15L10 15L10 14L11 14L11 15L12 15L12 16L10 16L10 17L13 17L13 18L10 18L10 19L9 19L9 21L12 21L12 22L11 22L11 23L10 23L10 24L8 24L8 25L9 25L9 26L11 26L11 27L12 27L12 26L13 26L13 28L14 28L14 26L16 26L16 28L19 28L19 27L20 27L20 26L19 26L19 25L20 25L20 22L19 22L19 21L20 21L20 18L19 18L19 17L17 17L17 16L20 16L20 17L21 17L21 19L22 19L22 18L23 18L23 17L22 17L22 16L21 16L21 15L22 15L22 14L23 14L23 11L24 11L24 12L25 12L25 13L24 13L24 14L25 14L25 15L27 15L27 14L25 14L25 13L28 13L28 12L30 12L30 11L31 11L31 10L30 10L30 11L27 11L27 12L26 12L26 11L25 11L25 10L26 10L26 9L25 9L25 8L23 8L23 9L22 9L22 8L20 8L20 10L19 10L19 11L18 11L18 9L19 9L19 8L18 8L18 6L17 6L17 8L18 8L18 9L12 9L12 8L14 8L14 5L19 5L19 7L20 7L20 5L21 5L21 4L22 4L22 6L21 6L21 7L22 7L22 6L23 6L23 7L24 7L24 5L23 5L23 4L22 4L22 3L21 3L21 4L20 4L20 3L19 3L19 2L17 2L17 3L19 3L19 4L15 4L15 3L16 3L16 2L15 2L15 1ZM19 4L19 5L20 5L20 4ZM10 6L10 7L11 7L11 6ZM12 6L12 7L13 7L13 6ZM15 6L15 8L16 8L16 6ZM23 9L23 10L22 10L22 11L20 11L20 12L22 12L22 11L23 11L23 10L24 10L24 9ZM12 10L12 11L11 11L11 12L13 12L13 13L11 13L11 14L12 14L12 15L13 15L13 14L15 14L15 16L13 16L13 17L15 17L15 16L17 16L17 14L15 14L15 13L19 13L19 14L18 14L18 15L19 15L19 14L20 14L20 15L21 15L21 13L19 13L19 12L17 12L17 11L16 11L16 10L15 10L15 13L14 13L14 12L13 12L13 11L14 11L14 10ZM8 11L8 12L9 12L9 11ZM28 17L28 18L27 18L27 19L28 19L28 20L26 20L26 19L25 19L25 20L23 20L23 21L24 21L24 22L21 22L21 23L22 23L22 24L21 24L21 25L22 25L22 26L24 26L24 25L22 25L22 24L23 24L23 23L24 23L24 24L25 24L25 23L26 23L26 24L28 24L28 23L27 23L27 22L25 22L25 21L28 21L28 22L29 22L29 21L30 21L30 23L29 23L29 24L30 24L30 23L31 23L31 20L30 20L30 19L29 19L29 17ZM14 18L14 19L15 19L15 20L13 20L13 19L12 19L12 21L16 21L16 22L15 22L15 25L19 25L19 22L18 22L18 21L19 21L19 18L17 18L17 19L16 19L16 18ZM10 19L10 20L11 20L11 19ZM17 19L17 20L16 20L16 21L17 21L17 20L18 20L18 19ZM21 20L21 21L22 21L22 20ZM28 20L28 21L29 21L29 20ZM12 22L12 23L11 23L11 24L10 24L10 25L11 25L11 26L12 26L12 25L13 25L13 26L14 26L14 24L13 24L13 23L14 23L14 22ZM17 22L17 23L16 23L16 24L18 24L18 22ZM2 24L2 25L3 25L3 24ZM4 24L4 25L5 25L5 24ZM11 24L11 25L12 25L12 24ZM25 25L25 28L28 28L28 25ZM29 25L29 26L30 26L30 25ZM17 26L17 27L19 27L19 26ZM26 26L26 27L27 27L27 26ZM22 27L22 28L23 28L23 29L22 29L22 30L23 30L23 31L24 31L24 30L23 30L23 29L24 29L24 27ZM29 27L29 28L30 28L30 27ZM31 27L31 28L32 28L32 27ZM11 28L11 29L10 29L10 30L9 30L9 31L10 31L10 30L11 30L11 29L12 29L12 28ZM25 29L25 30L27 30L27 29ZM30 30L30 32L29 32L29 33L30 33L30 32L31 32L31 33L32 33L32 32L31 32L31 31L32 31L32 30ZM13 32L13 33L14 33L14 32ZM26 32L26 33L27 33L27 32ZM0 0L0 7L7 7L7 0ZM1 1L1 6L6 6L6 1ZM2 2L2 5L5 5L5 2ZM26 0L26 7L33 7L33 0ZM27 1L27 6L32 6L32 1ZM28 2L28 5L31 5L31 2ZM0 26L0 33L7 33L7 26ZM1 27L1 32L6 32L6 27ZM2 28L2 31L5 31L5 28Z" fill="#000000"/></g></g></svg>
