<?xml version="1.0" encoding="UTF-8"?>
<svg xmlns="http://www.w3.org/2000/svg" version="1.1" width="270" height="270" viewBox="0 0 270 270"><rect x="0" y="0" width="270" height="270" fill="#ffffff"/><g transform="scale(8.182)"><g transform="translate(0,0)"><path fill-rule="evenodd" d="M9 0L9 1L8 1L8 2L9 2L9 3L8 3L8 4L10 4L10 7L11 7L11 4L12 4L12 5L13 5L13 6L12 6L12 8L6 8L6 9L5 9L5 8L0 8L0 9L2 9L2 10L0 10L0 11L1 11L1 12L0 12L0 13L2 13L2 14L0 14L0 15L2 15L2 18L1 18L1 16L0 16L0 20L4 20L4 19L3 19L3 17L4 17L4 18L5 18L5 19L8 19L8 18L5 18L5 17L9 17L9 18L10 18L10 19L11 19L11 18L12 18L12 19L13 19L13 18L12 18L12 17L18 17L18 19L19 19L19 18L20 18L20 17L21 17L21 18L24 18L24 17L25 17L25 16L23 16L23 14L24 14L24 13L25 13L25 14L26 14L26 16L28 16L28 17L29 17L29 19L27 19L27 17L26 17L26 18L25 18L25 20L24 20L24 21L23 21L23 22L22 22L22 23L21 23L21 22L20 22L20 21L21 21L21 20L22 20L22 19L20 19L20 21L19 21L19 20L17 20L17 19L16 19L16 18L14 18L14 20L13 20L13 21L11 21L11 22L9 22L9 21L8 21L8 20L6 20L6 21L8 21L8 22L6 22L6 23L8 23L8 22L9 22L9 23L11 23L11 24L5 24L5 25L8 25L8 27L10 27L10 26L12 26L12 27L13 27L13 25L16 25L16 26L14 26L14 27L15 27L15 28L12 28L12 29L10 29L10 28L8 28L8 33L10 33L10 32L9 32L9 31L10 31L10 30L12 30L12 29L17 29L17 30L14 30L14 31L15 31L15 32L17 32L17 33L20 33L20 32L17 32L17 30L18 30L18 31L19 31L19 30L20 30L20 31L21 31L21 32L22 32L22 33L25 33L25 32L26 32L26 31L27 31L27 32L28 32L28 31L27 31L27 30L26 30L26 29L28 29L28 30L30 30L30 29L29 29L29 28L31 28L31 27L32 27L32 29L33 29L33 27L32 27L32 26L33 26L33 24L32 24L32 26L31 26L31 25L29 25L29 24L31 24L31 23L32 23L32 22L33 22L33 21L32 21L32 20L31 20L31 19L32 19L32 18L33 18L33 17L32 17L32 16L31 16L31 15L32 15L32 14L33 14L33 13L31 13L31 15L30 15L30 16L31 16L31 19L30 19L30 17L29 17L29 15L28 15L28 13L30 13L30 12L31 12L31 11L32 11L32 10L33 10L33 9L32 9L32 8L31 8L31 9L30 9L30 8L29 8L29 9L30 9L30 10L27 10L27 9L28 9L28 8L27 8L27 9L26 9L26 8L24 8L24 7L25 7L25 3L24 3L24 2L23 2L23 1L24 1L24 0L23 0L23 1L22 1L22 2L21 2L21 1L20 1L20 0L19 0L19 1L17 1L17 0L16 0L16 1L14 1L14 2L16 2L16 1L17 1L17 2L19 2L19 1L20 1L20 3L22 3L22 4L19 4L19 3L17 3L17 4L16 4L16 3L15 3L15 4L14 4L14 3L12 3L12 2L13 2L13 1L11 1L11 2L10 2L10 0ZM10 3L10 4L11 4L11 3ZM13 4L13 5L14 5L14 6L13 6L13 8L12 8L12 9L13 9L13 8L14 8L14 10L11 10L11 9L10 9L10 11L11 11L11 12L10 12L10 13L13 13L13 14L14 14L14 15L12 15L12 14L10 14L10 15L12 15L12 16L11 16L11 17L12 17L12 16L14 16L14 15L15 15L15 14L16 14L16 16L18 16L18 17L20 17L20 16L21 16L21 17L22 17L22 16L21 16L21 15L20 15L20 14L17 14L17 12L19 12L19 13L22 13L22 14L23 14L23 13L24 13L24 11L26 11L26 9L24 9L24 10L23 10L23 9L22 9L22 8L23 8L23 7L24 7L24 5L19 5L19 4L18 4L18 5L17 5L17 7L16 7L16 6L15 6L15 5L16 5L16 4L15 4L15 5L14 5L14 4ZM8 5L8 7L9 7L9 5ZM18 5L18 8L17 8L17 9L16 9L16 7L15 7L15 6L14 6L14 8L15 8L15 9L16 9L16 10L14 10L14 12L13 12L13 11L12 11L12 12L13 12L13 13L15 13L15 12L17 12L17 9L19 9L19 10L18 10L18 11L19 11L19 12L20 12L20 11L21 11L21 12L22 12L22 13L23 13L23 12L22 12L22 11L23 11L23 10L22 10L22 9L21 9L21 8L22 8L22 7L23 7L23 6L22 6L22 7L21 7L21 6L20 6L20 7L21 7L21 8L19 8L19 5ZM6 9L6 10L3 10L3 11L2 11L2 13L3 13L3 11L5 11L5 12L4 12L4 14L2 14L2 15L4 15L4 16L7 16L7 15L6 15L6 14L7 14L7 13L6 13L6 14L5 14L5 12L7 12L7 11L6 11L6 10L7 10L7 9ZM8 9L8 11L9 11L9 9ZM20 9L20 10L19 10L19 11L20 11L20 10L21 10L21 9ZM30 10L30 11L29 11L29 12L30 12L30 11L31 11L31 10ZM27 11L27 12L26 12L26 13L27 13L27 12L28 12L28 11ZM8 13L8 16L9 16L9 17L10 17L10 16L9 16L9 13ZM29 19L29 21L28 21L28 20L26 20L26 21L27 21L27 22L25 22L25 21L24 21L24 22L23 22L23 23L24 23L24 22L25 22L25 23L27 23L27 22L29 22L29 21L30 21L30 23L31 23L31 20L30 20L30 19ZM14 20L14 21L13 21L13 22L14 22L14 21L15 21L15 22L16 22L16 23L12 23L12 22L11 22L11 23L12 23L12 24L11 24L11 25L13 25L13 24L16 24L16 25L17 25L17 24L19 24L19 23L20 23L20 22L19 22L19 21L17 21L17 20L16 20L16 21L15 21L15 20ZM0 21L0 25L1 25L1 21ZM2 21L2 25L4 25L4 23L5 23L5 22L3 22L3 21ZM16 21L16 22L17 22L17 23L16 23L16 24L17 24L17 23L19 23L19 22L17 22L17 21ZM28 23L28 24L29 24L29 23ZM20 24L20 26L19 26L19 25L18 25L18 26L16 26L16 27L17 27L17 28L19 28L19 29L18 29L18 30L19 30L19 29L22 29L22 28L20 28L20 27L21 27L21 25L22 25L22 24ZM23 24L23 25L24 25L24 24ZM25 25L25 28L28 28L28 25ZM18 26L18 27L19 27L19 26ZM26 26L26 27L27 27L27 26ZM23 28L23 29L24 29L24 31L23 31L23 32L25 32L25 29L24 29L24 28ZM31 30L31 31L29 31L29 33L30 33L30 32L31 32L31 33L32 33L32 32L31 32L31 31L32 31L32 30ZM13 32L13 33L14 33L14 32ZM0 0L0 7L7 7L7 0ZM1 1L1 6L6 6L6 1ZM2 2L2 5L5 5L5 2ZM26 0L26 7L33 7L33 0ZM27 1L27 6L32 6L32 1ZM28 2L28 5L31 5L31 2ZM0 26L0 33L7 33L7 26ZM1 27L1 32L6 32L6 27ZM2 28L2 31L5 31L5 28Z" fill="#000000"/></g></g></svg>
