<?xml version="1.0" encoding="UTF-8"?>
<svg xmlns="http://www.w3.org/2000/svg" version="1.1" width="270" height="270" viewBox="0 0 270 270"><rect x="0" y="0" width="270" height="270" fill="#ffffff"/><g transform="scale(8.182)"><g transform="translate(0,0)"><path fill-rule="evenodd" d="M9 0L9 1L8 1L8 2L9 2L9 3L8 3L8 4L9 4L9 5L8 5L8 7L9 7L9 8L6 8L6 9L7 9L7 10L5 10L5 8L0 8L0 9L1 9L1 10L0 10L0 11L2 11L2 12L1 12L1 13L0 13L0 15L1 15L1 14L2 14L2 16L1 16L1 17L0 17L0 18L1 18L1 17L2 17L2 18L3 18L3 19L1 19L1 20L3 20L3 19L4 19L4 18L3 18L3 17L5 17L5 16L6 16L6 17L7 17L7 18L6 18L6 19L5 19L5 20L6 20L6 21L2 21L2 22L4 22L4 23L3 23L3 25L4 25L4 23L5 23L5 24L6 24L6 25L7 25L7 24L6 24L6 23L7 23L7 22L9 22L9 23L10 23L10 24L11 24L11 23L10 23L10 22L9 22L9 21L11 21L11 22L13 22L13 23L14 23L14 24L12 24L12 25L9 25L9 24L8 24L8 27L9 27L9 28L8 28L8 33L10 33L10 32L12 32L12 33L15 33L15 32L16 32L16 33L19 33L19 32L20 32L20 33L21 33L21 32L22 32L22 33L23 33L23 32L24 32L24 33L25 33L25 32L24 32L24 31L28 31L28 30L29 30L29 29L30 29L30 28L31 28L31 29L33 29L33 27L32 27L32 26L33 26L33 24L32 24L32 26L31 26L31 25L30 25L30 24L31 24L31 23L32 23L32 22L33 22L33 21L32 21L32 20L31 20L31 19L32 19L32 18L33 18L33 17L32 17L32 16L31 16L31 15L32 15L32 14L33 14L33 13L31 13L31 15L30 15L30 16L31 16L31 19L30 19L30 17L29 17L29 16L28 16L28 17L26 17L26 18L25 18L25 19L23 19L23 18L24 18L24 17L23 17L23 14L24 14L24 15L25 15L25 16L27 16L27 15L28 15L28 13L30 13L30 12L31 12L31 11L32 11L32 10L33 10L33 9L32 9L32 8L31 8L31 9L30 9L30 8L29 8L29 9L30 9L30 10L28 10L28 8L27 8L27 9L26 9L26 8L25 8L25 5L24 5L24 4L25 4L25 3L24 3L24 4L23 4L23 1L24 1L24 0L23 0L23 1L21 1L21 0L18 0L18 1L17 1L17 0L16 0L16 1L13 1L13 0ZM10 1L10 3L9 3L9 4L10 4L10 5L9 5L9 7L10 7L10 8L9 8L9 9L10 9L10 11L11 11L11 12L10 12L10 13L9 13L9 12L8 12L8 13L6 13L6 12L7 12L7 11L6 11L6 12L5 12L5 10L4 10L4 9L3 9L3 10L2 10L2 11L4 11L4 12L3 12L3 13L4 13L4 14L3 14L3 15L4 15L4 14L5 14L5 13L6 13L6 14L7 14L7 15L6 15L6 16L8 16L8 18L7 18L7 19L6 19L6 20L8 20L8 18L9 18L9 19L10 19L10 20L11 20L11 21L13 21L13 22L14 22L14 21L15 21L15 22L16 22L16 23L17 23L17 24L16 24L16 25L15 25L15 24L14 24L14 26L13 26L13 25L12 25L12 26L10 26L10 28L9 28L9 29L10 29L10 28L11 28L11 29L13 29L13 32L15 32L15 31L14 31L14 29L15 29L15 30L16 30L16 32L19 32L19 31L20 31L20 32L21 32L21 29L22 29L22 30L23 30L23 31L24 31L24 30L23 30L23 29L24 29L24 27L22 27L22 28L20 28L20 30L17 30L17 29L16 29L16 28L18 28L18 27L20 27L20 26L18 26L18 25L20 25L20 22L19 22L19 21L20 21L20 18L19 18L19 17L17 17L17 16L20 16L20 17L21 17L21 19L22 19L22 18L23 18L23 17L22 17L22 16L21 16L21 15L22 15L22 14L23 14L23 11L24 11L24 12L25 12L25 13L24 13L24 14L25 14L25 15L27 15L27 14L25 14L25 13L28 13L28 12L30 12L30 11L31 11L31 10L30 10L30 11L27 11L27 12L26 12L26 11L25 11L25 10L26 10L26 9L25 9L25 8L23 8L23 9L22 9L22 8L20 8L20 10L19 10L19 9L16 9L16 8L19 8L19 7L20 7L20 5L21 5L21 4L22 4L22 6L21 6L21 7L22 7L22 6L23 6L23 7L24 7L24 5L23 5L23 4L22 4L22 3L21 3L21 4L20 4L20 2L21 2L21 1L19 1L19 2L17 2L17 1L16 1L16 2L13 2L13 3L12 3L12 1ZM16 2L16 3L15 3L15 4L16 4L16 5L14 5L14 3L13 3L13 4L11 4L11 3L10 3L10 4L11 4L11 5L10 5L10 7L11 7L11 8L10 8L10 9L11 9L11 10L12 10L12 11L13 11L13 10L15 10L15 12L13 12L13 13L11 13L11 14L9 14L9 13L8 13L8 14L9 14L9 15L11 15L11 16L13 16L13 17L11 17L11 18L13 18L13 17L14 17L14 20L13 20L13 19L11 19L11 20L13 20L13 21L14 21L14 20L15 20L15 21L19 21L19 19L18 19L18 18L15 18L15 17L14 17L14 16L17 16L17 15L19 15L19 14L20 14L20 15L21 15L21 13L18 13L18 12L17 12L17 11L18 11L18 10L17 10L17 11L16 11L16 10L15 10L15 9L14 9L14 8L16 8L16 7L17 7L17 4L19 4L19 5L20 5L20 4L19 4L19 3L17 3L17 2ZM16 3L16 4L17 4L17 3ZM11 5L11 7L12 7L12 5ZM13 5L13 8L14 8L14 5ZM15 6L15 7L16 7L16 6ZM18 6L18 7L19 7L19 6ZM11 8L11 9L12 9L12 10L13 10L13 9L12 9L12 8ZM23 9L23 10L22 10L22 11L20 11L20 12L22 12L22 11L23 11L23 10L24 10L24 9ZM8 10L8 11L9 11L9 10ZM13 13L13 16L14 16L14 15L15 15L15 14L18 14L18 13ZM11 14L11 15L12 15L12 14ZM2 16L2 17L3 17L3 16ZM28 17L28 18L27 18L27 19L28 19L28 20L26 20L26 19L25 19L25 20L23 20L23 21L24 21L24 22L21 22L21 23L22 23L22 24L21 24L21 25L22 25L22 26L24 26L24 25L22 25L22 24L23 24L23 23L24 23L24 24L25 24L25 23L26 23L26 24L28 24L28 23L27 23L27 22L25 22L25 21L28 21L28 22L29 22L29 21L30 21L30 23L29 23L29 24L30 24L30 23L31 23L31 20L30 20L30 19L29 19L29 17ZM15 19L15 20L18 20L18 19ZM21 20L21 21L22 21L22 20ZM28 20L28 21L29 21L29 20ZM0 21L0 25L1 25L1 21ZM6 21L6 22L5 22L5 23L6 23L6 22L7 22L7 21ZM18 22L18 23L19 23L19 22ZM17 24L17 25L16 25L16 26L14 26L14 28L13 28L13 29L14 29L14 28L16 28L16 27L18 27L18 26L17 26L17 25L18 25L18 24ZM25 25L25 28L28 28L28 25ZM29 25L29 26L30 26L30 25ZM12 26L12 27L11 27L11 28L12 28L12 27L13 27L13 26ZM26 26L26 27L27 27L27 26ZM29 27L29 28L30 28L30 27ZM31 27L31 28L32 28L32 27ZM22 28L22 29L23 29L23 28ZM25 29L25 30L27 30L27 29ZM9 30L9 31L12 31L12 30ZM30 30L30 32L29 32L29 33L30 33L30 32L31 32L31 33L32 33L32 32L31 32L31 31L32 31L32 30ZM26 32L26 33L27 33L27 32ZM0 0L0 7L7 7L7 0ZM1 1L1 6L6 6L6 1ZM2 2L2 5L5 5L5 2ZM26 0L26 7L33 7L33 0ZM27 1L27 6L32 6L32 1ZM28 2L28 5L31 5L31 2ZM0 26L0 33L7 33L7 26ZM1 27L1 32L6 32L6 27ZM2 28L2 31L5 31L5 28Z" fill="#000000"/></g></g></svg>
