<?xml version="1.0" encoding="UTF-8"?>
<svg xmlns="http://www.w3.org/2000/svg" version="1.1" width="270" height="270" viewBox="0 0 270 270"><rect x="0" y="0" width="270" height="270" fill="#ffffff"/><g transform="scale(8.182)"><g transform="translate(0,0)"><path fill-rule="evenodd" d="M9 0L9 1L8 1L8 2L9 2L9 3L8 3L8 4L9 4L9 3L10 3L10 2L11 2L11 1L12 1L12 0L11 0L11 1L10 1L10 0ZM14 0L14 1L13 1L13 2L16 2L16 1L15 1L15 0ZM18 0L18 1L17 1L17 2L18 2L18 3L15 3L15 4L19 4L19 5L20 5L20 7L19 7L19 6L18 6L18 7L19 7L19 8L16 8L16 7L17 7L17 5L14 5L14 3L12 3L12 4L10 4L10 5L8 5L8 7L9 7L9 8L6 8L6 9L5 9L5 8L0 8L0 9L2 9L2 10L1 10L1 11L2 11L2 13L1 13L1 12L0 12L0 14L1 14L1 15L0 15L0 16L2 16L2 21L0 21L0 25L1 25L1 22L2 22L2 25L3 25L3 24L4 24L4 25L5 25L5 24L4 24L4 23L5 23L5 21L7 21L7 20L9 20L9 19L10 19L10 20L11 20L11 19L10 19L10 18L13 18L13 19L12 19L12 20L13 20L13 21L11 21L11 22L10 22L10 21L9 21L9 24L8 24L8 23L7 23L7 22L6 22L6 23L7 23L7 24L6 24L6 25L7 25L7 24L8 24L8 27L9 27L9 28L8 28L8 33L11 33L11 32L9 32L9 31L11 31L11 30L12 30L12 32L13 32L13 33L14 33L14 32L13 32L13 31L14 31L14 30L13 30L13 29L17 29L17 30L15 30L15 33L16 33L16 31L17 31L17 30L20 30L20 28L22 28L22 29L21 29L21 32L20 32L20 31L19 31L19 32L20 32L20 33L21 33L21 32L22 32L22 33L23 33L23 32L24 32L24 33L25 33L25 32L24 32L24 31L28 31L28 30L29 30L29 29L30 29L30 28L31 28L31 29L33 29L33 27L32 27L32 26L33 26L33 24L32 24L32 26L31 26L31 25L30 25L30 24L31 24L31 23L32 23L32 22L33 22L33 21L32 21L32 20L31 20L31 19L32 19L32 18L33 18L33 17L32 17L32 16L31 16L31 15L32 15L32 14L33 14L33 13L31 13L31 15L30 15L30 16L31 16L31 19L30 19L30 17L29 17L29 16L28 16L28 17L26 17L26 18L25 18L25 19L23 19L23 18L24 18L24 17L23 17L23 14L24 14L24 15L25 15L25 16L27 16L27 15L28 15L28 13L30 13L30 12L31 12L31 11L32 11L32 10L33 10L33 9L32 9L32 8L31 8L31 9L30 9L30 8L29 8L29 9L30 9L30 10L28 10L28 8L27 8L27 9L26 9L26 8L25 8L25 5L24 5L24 4L25 4L25 3L24 3L24 4L23 4L23 1L24 1L24 0L23 0L23 1L21 1L21 0ZM19 1L19 4L20 4L20 5L21 5L21 4L22 4L22 6L21 6L21 7L22 7L22 6L23 6L23 7L24 7L24 5L23 5L23 4L22 4L22 3L21 3L21 1ZM20 3L20 4L21 4L21 3ZM12 4L12 5L10 5L10 6L9 6L9 7L10 7L10 8L9 8L9 9L12 9L12 10L9 10L9 11L8 11L8 12L7 12L7 11L5 11L5 10L4 10L4 9L3 9L3 11L4 11L4 12L5 12L5 13L2 13L2 16L3 16L3 18L4 18L4 19L3 19L3 21L5 21L5 20L4 20L4 19L6 19L6 20L7 20L7 19L6 19L6 18L7 18L7 17L8 17L8 18L10 18L10 17L13 17L13 18L14 18L14 19L13 19L13 20L14 20L14 21L13 21L13 22L14 22L14 23L13 23L13 24L12 24L12 22L11 22L11 24L12 24L12 25L13 25L13 24L14 24L14 26L13 26L13 27L12 27L12 26L11 26L11 25L10 25L10 26L9 26L9 27L10 27L10 26L11 26L11 27L12 27L12 28L10 28L10 29L9 29L9 30L11 30L11 29L13 29L13 28L14 28L14 26L18 26L18 25L20 25L20 22L18 22L18 21L20 21L20 18L19 18L19 17L17 17L17 16L18 16L18 14L19 14L19 16L20 16L20 17L21 17L21 19L22 19L22 18L23 18L23 17L22 17L22 16L21 16L21 15L22 15L22 14L23 14L23 11L24 11L24 12L25 12L25 13L24 13L24 14L25 14L25 15L27 15L27 14L25 14L25 13L28 13L28 12L30 12L30 11L31 11L31 10L30 10L30 11L27 11L27 12L26 12L26 11L25 11L25 10L26 10L26 9L25 9L25 8L23 8L23 9L22 9L22 8L20 8L20 10L19 10L19 9L18 9L18 10L17 10L17 9L16 9L16 8L15 8L15 9L12 9L12 8L14 8L14 5L13 5L13 4ZM12 5L12 7L11 7L11 6L10 6L10 7L11 7L11 8L12 8L12 7L13 7L13 5ZM15 6L15 7L16 7L16 6ZM6 9L6 10L7 10L7 9ZM23 9L23 10L22 10L22 11L20 11L20 12L22 12L22 11L23 11L23 10L24 10L24 9ZM12 10L12 11L14 11L14 10ZM15 10L15 12L13 12L13 13L11 13L11 14L13 14L13 15L12 15L12 16L13 16L13 17L15 17L15 16L17 16L17 14L15 14L15 15L14 15L14 14L13 14L13 13L19 13L19 14L20 14L20 15L21 15L21 13L19 13L19 10L18 10L18 12L17 12L17 11L16 11L16 10ZM9 11L9 13L10 13L10 12L11 12L11 11ZM6 12L6 13L5 13L5 14L6 14L6 15L10 15L10 16L8 16L8 17L10 17L10 16L11 16L11 15L10 15L10 14L6 14L6 13L7 13L7 12ZM3 14L3 16L4 16L4 14ZM13 15L13 16L14 16L14 15ZM5 16L5 18L6 18L6 17L7 17L7 16ZM28 17L28 18L27 18L27 19L28 19L28 20L26 20L26 19L25 19L25 20L23 20L23 21L24 21L24 22L21 22L21 23L22 23L22 24L21 24L21 25L22 25L22 26L24 26L24 25L22 25L22 24L23 24L23 23L24 23L24 24L25 24L25 23L26 23L26 24L28 24L28 23L27 23L27 22L25 22L25 21L28 21L28 22L29 22L29 21L30 21L30 23L29 23L29 24L30 24L30 23L31 23L31 20L30 20L30 19L29 19L29 17ZM15 18L15 19L14 19L14 20L16 20L16 21L18 21L18 20L16 20L16 19L18 19L18 18ZM21 20L21 21L22 21L22 20ZM28 20L28 21L29 21L29 20ZM14 21L14 22L15 22L15 25L18 25L18 24L16 24L16 22L15 22L15 21ZM3 22L3 23L4 23L4 22ZM25 25L25 28L28 28L28 25ZM29 25L29 26L30 26L30 25ZM19 26L19 27L17 27L17 28L19 28L19 27L20 27L20 26ZM26 26L26 27L27 27L27 26ZM22 27L22 28L23 28L23 29L22 29L22 30L23 30L23 31L24 31L24 30L23 30L23 29L24 29L24 27ZM29 27L29 28L30 28L30 27ZM31 27L31 28L32 28L32 27ZM25 29L25 30L27 30L27 29ZM30 30L30 32L29 32L29 33L30 33L30 32L31 32L31 33L32 33L32 32L31 32L31 31L32 31L32 30ZM17 32L17 33L18 33L18 32ZM26 32L26 33L27 33L27 32ZM0 0L0 7L7 7L7 0ZM1 1L1 6L6 6L6 1ZM2 2L2 5L5 5L5 2ZM26 0L26 7L33 7L33 0ZM27 1L27 6L32 6L32 1ZM28 2L28 5L31 5L31 2ZM0 26L0 33L7 33L7 26ZM1 27L1 32L6 32L6 27ZM2 28L2 31L5 31L5 28Z" fill="#000000"/></g></g></svg>
