<?xml version="1.0" encoding="UTF-8"?>
<svg xmlns="http://www.w3.org/2000/svg" version="1.1" width="270" height="270" viewBox="0 0 270 270"><rect x="0" y="0" width="270" height="270" fill="#ffffff"/><g transform="scale(8.182)"><g transform="translate(0,0)"><path fill-rule="evenodd" d="M10 0L10 1L8 1L8 2L9 2L9 3L8 3L8 4L9 4L9 5L8 5L8 7L9 7L9 8L6 8L6 9L7 9L7 10L6 10L6 11L5 11L5 8L0 8L0 9L1 9L1 10L0 10L0 11L1 11L1 12L0 12L0 15L1 15L1 16L2 16L2 15L1 15L1 12L2 12L2 13L3 13L3 14L4 14L4 13L5 13L5 12L6 12L6 13L7 13L7 14L6 14L6 15L5 15L5 17L4 17L4 15L3 15L3 18L4 18L4 19L5 19L5 20L6 20L6 21L7 21L7 22L5 22L5 21L3 21L3 22L4 22L4 24L5 24L5 25L7 25L7 24L9 24L9 25L8 25L8 27L9 27L9 28L8 28L8 33L9 33L9 30L13 30L13 31L10 31L10 33L11 33L11 32L12 32L12 33L16 33L16 32L13 32L13 31L14 31L14 30L15 30L15 31L17 31L17 30L20 30L20 28L22 28L22 29L21 29L21 32L20 32L20 31L19 31L19 32L20 32L20 33L21 33L21 32L22 32L22 33L23 33L23 32L24 32L24 33L25 33L25 32L24 32L24 31L28 31L28 30L29 30L29 29L30 29L30 28L31 28L31 29L33 29L33 27L32 27L32 26L33 26L33 24L32 24L32 26L31 26L31 25L30 25L30 24L31 24L31 23L32 23L32 22L33 22L33 21L32 21L32 20L31 20L31 19L32 19L32 18L33 18L33 17L32 17L32 16L31 16L31 15L32 15L32 14L33 14L33 13L31 13L31 15L30 15L30 16L31 16L31 19L30 19L30 17L29 17L29 16L28 16L28 17L26 17L26 18L25 18L25 19L23 19L23 18L24 18L24 17L23 17L23 14L24 14L24 15L25 15L25 16L27 16L27 15L28 15L28 13L30 13L30 12L31 12L31 11L32 11L32 10L33 10L33 9L32 9L32 8L31 8L31 9L30 9L30 8L29 8L29 9L30 9L30 10L28 10L28 8L27 8L27 9L26 9L26 8L25 8L25 5L24 5L24 4L25 4L25 3L24 3L24 4L23 4L23 1L24 1L24 0L23 0L23 1L21 1L21 0L18 0L18 1L15 1L15 0L14 0L14 1L13 1L13 0ZM10 1L10 3L9 3L9 4L12 4L12 5L9 5L9 7L10 7L10 6L11 6L11 8L9 8L9 9L8 9L8 10L9 10L9 9L13 9L13 10L10 10L10 14L11 14L11 15L9 15L9 14L8 14L8 16L9 16L9 17L10 17L10 21L9 21L9 22L10 22L10 24L11 24L11 25L12 25L12 26L10 26L10 25L9 25L9 27L11 27L11 29L13 29L13 30L14 30L14 29L15 29L15 30L17 30L17 29L15 29L15 28L14 28L14 26L16 26L16 25L17 25L17 26L19 26L19 27L16 27L16 28L19 28L19 27L20 27L20 26L19 26L19 25L20 25L20 22L18 22L18 21L20 21L20 18L19 18L19 17L17 17L17 16L18 16L18 15L17 15L17 16L15 16L15 17L13 17L13 16L14 16L14 15L15 15L15 14L18 14L18 13L21 13L21 15L20 15L20 14L19 14L19 16L20 16L20 17L21 17L21 19L22 19L22 18L23 18L23 17L22 17L22 16L21 16L21 15L22 15L22 14L23 14L23 11L24 11L24 12L25 12L25 13L24 13L24 14L25 14L25 15L27 15L27 14L25 14L25 13L28 13L28 12L30 12L30 11L31 11L31 10L30 10L30 11L27 11L27 12L26 12L26 11L25 11L25 10L26 10L26 9L25 9L25 8L23 8L23 9L22 9L22 8L20 8L20 10L19 10L19 9L13 9L13 8L14 8L14 5L18 5L18 6L17 6L17 8L18 8L18 6L19 6L19 7L20 7L20 5L21 5L21 4L22 4L22 6L21 6L21 7L22 7L22 6L23 6L23 7L24 7L24 5L23 5L23 4L22 4L22 3L21 3L21 4L20 4L20 1L18 1L18 2L16 2L16 3L14 3L14 2L15 2L15 1L14 1L14 2L13 2L13 3L14 3L14 5L13 5L13 4L12 4L12 3L11 3L11 2L12 2L12 1ZM18 2L18 3L16 3L16 4L18 4L18 5L20 5L20 4L18 4L18 3L19 3L19 2ZM12 5L12 8L13 8L13 5ZM15 6L15 7L16 7L16 6ZM2 9L2 10L1 10L1 11L2 11L2 10L4 10L4 9ZM23 9L23 10L22 10L22 11L20 11L20 12L22 12L22 11L23 11L23 10L24 10L24 9ZM13 10L13 11L12 11L12 12L11 12L11 14L13 14L13 13L18 13L18 12L19 12L19 10L17 10L17 11L16 11L16 10L15 10L15 12L13 12L13 11L14 11L14 10ZM4 11L4 12L5 12L5 11ZM6 11L6 12L7 12L7 13L9 13L9 11L8 11L8 12L7 12L7 11ZM17 11L17 12L18 12L18 11ZM12 12L12 13L13 13L13 12ZM6 15L6 16L7 16L7 15ZM12 15L12 16L11 16L11 18L12 18L12 19L11 19L11 20L12 20L12 19L13 19L13 17L12 17L12 16L13 16L13 15ZM6 17L6 18L5 18L5 19L6 19L6 20L7 20L7 19L6 19L6 18L7 18L7 17ZM28 17L28 18L27 18L27 19L28 19L28 20L26 20L26 19L25 19L25 20L23 20L23 21L24 21L24 22L21 22L21 23L22 23L22 24L21 24L21 25L22 25L22 26L24 26L24 25L22 25L22 24L23 24L23 23L24 23L24 24L25 24L25 23L26 23L26 24L28 24L28 23L27 23L27 22L25 22L25 21L28 21L28 22L29 22L29 21L30 21L30 23L29 23L29 24L30 24L30 23L31 23L31 20L30 20L30 19L29 19L29 17ZM0 18L0 25L1 25L1 20L3 20L3 19L2 19L2 18ZM15 18L15 19L14 19L14 20L13 20L13 21L11 21L11 22L13 22L13 23L11 23L11 24L12 24L12 25L13 25L13 26L12 26L12 27L13 27L13 26L14 26L14 24L15 24L15 25L16 25L16 24L17 24L17 25L19 25L19 23L18 23L18 24L17 24L17 23L16 23L16 22L15 22L15 21L18 21L18 20L19 20L19 18ZM15 19L15 20L14 20L14 21L13 21L13 22L14 22L14 21L15 21L15 20L18 20L18 19ZM21 20L21 21L22 21L22 20ZM28 20L28 21L29 21L29 20ZM2 23L2 24L3 24L3 23ZM6 23L6 24L7 24L7 23ZM13 23L13 24L14 24L14 23ZM15 23L15 24L16 24L16 23ZM25 25L25 28L28 28L28 25ZM29 25L29 26L30 26L30 25ZM26 26L26 27L27 27L27 26ZM22 27L22 28L23 28L23 29L22 29L22 30L23 30L23 31L24 31L24 30L23 30L23 29L24 29L24 27ZM29 27L29 28L30 28L30 27ZM31 27L31 28L32 28L32 27ZM13 28L13 29L14 29L14 28ZM25 29L25 30L27 30L27 29ZM30 30L30 32L29 32L29 33L30 33L30 32L31 32L31 33L32 33L32 32L31 32L31 31L32 31L32 30ZM17 32L17 33L18 33L18 32ZM26 32L26 33L27 33L27 32ZM0 0L0 7L7 7L7 0ZM1 1L1 6L6 6L6 1ZM2 2L2 5L5 5L5 2ZM26 0L26 7L33 7L33 0ZM27 1L27 6L32 6L32 1ZM28 2L28 5L31 5L31 2ZM0 26L0 33L7 33L7 26ZM1 27L1 32L6 32L6 27ZM2 28L2 31L5 31L5 28Z" fill="#000000"/></g></g></svg>
